<svg width="889" height="1230" fill="none" xmlns="http://www.w3.org/2000/svg">
<g>
<path d="M-114.547 1167.44L152.983 704.516L89.8376 469.739L359.248 3.56396L448.727 55.1741L477.827 257.114L617.002 337.387L796.663 255.859L886.124 307.458L616.714 773.633L381.637 836.4L114.106 1299.32" stroke="#A49B9B" stroke-opacity="0.2" stroke-width="2"/>
<path d="M-9.32617 1050.55L192.082 702.041L144.553 525.269L347.394 174.281L414.742 213.126L436.665 365.165L541.451 425.604L676.714 364.229L744.077 403.083L541.236 754.069L364.214 801.325L162.806 1149.83" stroke="#A49B9B" stroke-opacity="0.2" stroke-width="1.5"/>
<path d="M95.8672 933.668L231.175 699.538L199.252 580.789L335.514 345.005L380.762 371.104L395.493 473.234L465.891 513.838L556.756 472.614L602.003 498.712L465.74 734.494L346.838 766.25L211.53 1000.38" stroke="#A49B9B" stroke-opacity="0.2"/>
<path d="M201.096 816.807L270.302 697.057L253.996 636.266L323.662 515.723L346.81 529.076L354.337 581.313L390.329 602.072L436.807 580.984L459.956 594.337L390.292 714.88L329.443 731.168L260.237 850.92" stroke="#A49B9B" stroke-opacity="0.2" stroke-width="0.5"/>
</g>
</svg>
