<svg width="141" height="45" viewBox="0 0 141 45" fill="none" xmlns="http://www.w3.org/2000/svg">
<path d="M60.5959 38.4856C59.5291 38.4856 58.5355 38.2811 57.6149 37.8719C56.7016 37.4554 55.9015 36.8819 55.2147 36.1512C54.5352 35.4133 54.0019 34.5621 53.6146 33.5977C53.2347 32.6332 53.0447 31.6067 53.0447 30.518C53.0447 29.3709 53.2493 28.3152 53.6585 27.3507C54.0676 26.3863 54.6266 25.5497 55.3353 24.841C56.044 24.125 56.8513 23.5697 57.7573 23.1752C58.6706 22.7806 59.6278 22.5833 60.6287 22.5833C61.7612 22.5833 62.8499 22.8464 63.8947 23.3724C64.9395 23.8985 65.8491 24.6876 66.6236 25.7397L64.5851 26.8466C64.0591 26.189 63.4453 25.6922 62.7439 25.3561C62.0498 25.02 61.3375 24.852 60.6068 24.852C59.8981 24.852 59.2259 24.9981 58.5903 25.2903C57.9546 25.5753 57.392 25.9771 56.9025 26.4959C56.413 27.0073 56.0257 27.6101 55.7408 28.3042C55.4631 28.991 55.3243 29.7399 55.3243 30.5509C55.3243 31.3327 55.4595 32.067 55.7298 32.7538C56.0075 33.4406 56.3874 34.0434 56.8696 34.5621C57.3591 35.0736 57.9217 35.4754 58.5574 35.7677C59.2003 36.0599 59.8871 36.206 60.6178 36.206C61.1584 36.206 61.6772 36.1184 62.174 35.943C62.6709 35.7677 63.1312 35.5192 63.5549 35.1978C63.986 34.869 64.3623 34.4781 64.6838 34.0251C65.0052 33.5721 65.261 33.068 65.4509 32.5127H62.196V30.4961H68.1251C68.1397 31.5921 67.9497 32.6223 67.5552 33.5867C67.1679 34.5512 66.6273 35.4023 65.9332 36.1403C65.2464 36.8709 64.4463 37.4445 63.533 37.8609C62.6197 38.2774 61.6407 38.4856 60.5959 38.4856ZM78.556 27.2411H80.8356V38.2007H78.545L78.4573 36.6115C78.1359 37.1741 77.7011 37.6271 77.1532 37.9705C76.6052 38.3139 75.9586 38.4856 75.2133 38.4856C74.4096 38.4856 73.6534 38.3359 72.9447 38.0363C72.236 37.7294 71.6113 37.3057 71.0706 36.765C70.5372 36.2243 70.1208 35.6033 69.8212 34.9019C69.5217 34.1931 69.3719 33.4333 69.3719 32.6223C69.3719 31.8405 69.518 31.1062 69.8103 30.4194C70.1025 29.7253 70.508 29.1189 71.0268 28.6001C71.5455 28.0814 72.1446 27.6759 72.8241 27.3836C73.5109 27.0841 74.2452 26.9343 75.027 26.9343C75.8234 26.9343 76.5248 27.1169 77.1312 27.4823C77.745 27.8403 78.2528 28.3006 78.6546 28.8632L78.556 27.2411ZM75.1585 36.2828C75.8015 36.2828 76.3641 36.1257 76.8463 35.8115C77.3285 35.49 77.7011 35.0589 77.9642 34.5183C78.2345 33.9776 78.3697 33.3785 78.3697 32.7209C78.3697 32.056 78.2345 31.4533 77.9642 30.9126C77.6938 30.3719 77.3176 29.9445 76.8353 29.6303C76.3604 29.3088 75.8015 29.1481 75.1585 29.1481C74.5229 29.1481 73.942 29.3088 73.416 29.6303C72.8899 29.9518 72.4734 30.3829 72.1666 30.9235C71.8597 31.4642 71.7063 32.0633 71.7063 32.7209C71.7063 33.3858 71.8634 33.9886 72.1775 34.5292C72.499 35.0626 72.9191 35.49 73.4379 35.8115C73.9639 36.1257 74.5375 36.2828 75.1585 36.2828ZM91.3459 21.7614H93.6255V38.2007H91.3459V36.5896C90.9879 37.1595 90.5203 37.6198 89.9431 37.9705C89.3659 38.3139 88.6901 38.4856 87.9156 38.4856C87.1192 38.4856 86.374 38.3359 85.6799 38.0363C84.9857 37.7367 84.372 37.3239 83.8386 36.7979C83.3126 36.2645 82.8998 35.6508 82.6002 34.9567C82.3007 34.2626 82.1509 33.5173 82.1509 32.7209C82.1509 31.9245 82.3007 31.1793 82.6002 30.4852C82.8998 29.7838 83.3126 29.17 83.8386 28.644C84.372 28.1106 84.9857 27.6941 85.6799 27.3946C86.374 27.095 87.1192 26.9452 87.9156 26.9452C88.6901 26.9452 89.3659 27.1206 89.9431 27.4713C90.5203 27.8147 90.9879 28.2677 91.3459 28.8303V21.7614ZM87.9375 36.2828C88.5805 36.2828 89.1431 36.1257 89.6253 35.8115C90.1075 35.49 90.4801 35.0589 90.7432 34.5183C91.0135 33.9776 91.1487 33.3785 91.1487 32.7209C91.1487 32.056 91.0135 31.4533 90.7432 30.9126C90.4728 30.3719 90.0965 29.9445 89.6143 29.6303C89.1394 29.3088 88.5805 29.1481 87.9375 29.1481C87.3019 29.1481 86.721 29.3088 86.195 29.6303C85.6762 29.9518 85.2597 30.3829 84.9456 30.9235C84.6387 31.4642 84.4853 32.0633 84.4853 32.7209C84.4853 33.3858 84.6423 33.9886 84.9565 34.5292C85.278 35.0626 85.6981 35.49 86.2169 35.8115C86.7429 36.1257 87.3165 36.2828 87.9375 36.2828ZM104.441 27.2411H106.721V38.4856C106.721 39.2382 106.56 39.9323 106.239 40.5679C105.925 41.2036 105.497 41.7516 104.956 42.2119C104.416 42.6795 103.795 43.0411 103.093 43.2969C102.399 43.5526 101.672 43.6805 100.912 43.6805C100.145 43.6805 99.4073 43.5161 98.6986 43.1873C97.9899 42.8658 97.3652 42.4274 96.8245 41.8721C96.2911 41.3168 95.8929 40.6885 95.6299 39.9871L97.7232 39.0446C97.8693 39.4976 98.1031 39.8994 98.4246 40.2501C98.7534 40.6008 99.1333 40.8785 99.5644 41.083C100.003 41.2876 100.452 41.3899 100.912 41.3899C101.365 41.3899 101.8 41.3168 102.217 41.1707C102.64 41.0319 103.017 40.8346 103.345 40.5789C103.682 40.3232 103.948 40.0163 104.145 39.6583C104.343 39.3003 104.441 38.9094 104.441 38.4856V36.6335C104.083 37.1888 103.623 37.6381 103.06 37.9815C102.498 38.3176 101.844 38.4856 101.099 38.4856C100.324 38.4856 99.5936 38.3359 98.9068 38.0363C98.22 37.7367 97.6172 37.3239 97.0985 36.7979C96.5797 36.2645 96.1742 35.6508 95.882 34.9567C95.5897 34.2626 95.4436 33.5173 95.4436 32.7209C95.4436 31.9245 95.5897 31.1793 95.882 30.4852C96.1742 29.7838 96.5797 29.17 97.0985 28.644C97.6172 28.1106 98.22 27.6941 98.9068 27.3946C99.5936 27.095 100.324 26.9452 101.099 26.9452C101.844 26.9452 102.498 27.1169 103.06 27.4603C103.623 27.7964 104.083 28.2458 104.441 28.8084V27.2411ZM101.121 36.2828C101.756 36.2828 102.312 36.122 102.786 35.8005C103.261 35.4718 103.63 35.037 103.893 34.4964C104.156 33.9557 104.288 33.3639 104.288 32.7209C104.288 32.0633 104.153 31.4679 103.882 30.9345C103.619 30.3938 103.25 29.9628 102.776 29.6413C102.301 29.3125 101.749 29.1481 101.121 29.1481C100.507 29.1481 99.9443 29.3088 99.4329 29.6303C98.9287 29.9518 98.5269 30.3829 98.2273 30.9235C97.9278 31.4642 97.778 32.0633 97.778 32.7209C97.778 33.3785 97.9278 33.9776 98.2273 34.5183C98.5342 35.0589 98.9397 35.49 99.4438 35.8115C99.9553 36.1257 100.514 36.2828 101.121 36.2828ZM113.981 38.4856C112.972 38.4856 112.052 38.2263 111.219 37.7075C110.393 37.1888 109.732 36.4946 109.235 35.6252C108.746 34.7484 108.501 33.7803 108.501 32.7209C108.501 31.9172 108.643 31.1683 108.928 30.4742C109.213 29.7728 109.604 29.1591 110.101 28.633C110.605 28.0996 111.19 27.6832 111.854 27.3836C112.519 27.0841 113.228 26.9343 113.981 26.9343C114.821 26.9343 115.592 27.1096 116.293 27.4603C116.995 27.8037 117.594 28.2823 118.09 28.896C118.587 29.5025 118.953 30.2039 119.186 31.0003C119.42 31.7894 119.49 32.6296 119.395 33.521H110.945C111.04 34.0251 111.222 34.4817 111.493 34.8909C111.77 35.2928 112.121 35.6106 112.545 35.8444C112.976 36.0782 113.455 36.1987 113.981 36.206C114.536 36.206 115.04 36.0672 115.493 35.7896C115.953 35.5119 116.33 35.1284 116.622 34.6388L118.934 35.1758C118.496 36.1476 117.835 36.944 116.951 37.565C116.067 38.1788 115.077 38.4856 113.981 38.4856ZM110.868 31.7784H117.093C117.02 31.2523 116.834 30.7774 116.534 30.3537C116.242 29.9226 115.873 29.5828 115.427 29.3344C114.989 29.0787 114.507 28.9508 113.981 28.9508C113.462 28.9508 112.98 29.075 112.534 29.3235C112.096 29.5719 111.73 29.9116 111.438 30.3427C111.153 30.7665 110.963 31.245 110.868 31.7784ZM126.932 29.5207H124.631L124.62 38.2007H122.34L122.351 29.5207H120.608V27.2411H122.351L122.34 23.7998H124.62L124.631 27.2411H126.932V29.5207Z" fill="white"/>
<path d="M53.0453 16.3237V0.98037H55.3249V16.3237H53.0453ZM68.1455 9.4521V16.3237H65.8659V10.011C65.8659 9.52151 65.7454 9.07582 65.5042 8.67397C65.2704 8.27212 64.9526 7.95429 64.5508 7.72049C64.1562 7.47938 63.7105 7.35882 63.2137 7.35882C62.7315 7.35882 62.2894 7.47938 61.8876 7.72049C61.4857 7.95429 61.1643 8.27212 60.9232 8.67397C60.682 9.07582 60.5615 9.52151 60.5615 10.011V16.3237H58.2819V5.36419H60.5615V6.5259C60.9414 6.0729 61.409 5.71489 61.9643 5.45186C62.5196 5.18884 63.1187 5.05732 63.7617 5.05732C64.5727 5.05732 65.3106 5.25459 65.9755 5.64914C66.6404 6.04368 67.1664 6.57339 67.5537 7.23827C67.9482 7.90315 68.1455 8.64109 68.1455 9.4521ZM73.621 16.532C73.0438 16.4954 72.4812 16.3785 71.9332 16.1813C71.3852 15.984 70.903 15.7173 70.4866 15.3812C70.0774 15.0378 69.7705 14.636 69.566 14.1757L71.5058 13.3427C71.6008 13.54 71.7652 13.7336 71.999 13.9236C72.2401 14.1136 72.5214 14.2706 72.8429 14.3949C73.1643 14.5118 73.5004 14.5702 73.8511 14.5702C74.1945 14.5702 74.5124 14.5227 74.8046 14.4277C75.1042 14.3254 75.3489 14.172 75.5389 13.9674C75.7289 13.7629 75.8239 13.5181 75.8239 13.2331C75.8239 12.9117 75.7143 12.6632 75.4951 12.4879C75.2832 12.3052 75.0165 12.1664 74.695 12.0714C74.3735 11.9764 74.0521 11.8851 73.7306 11.7974C73.0146 11.6367 72.357 11.4175 71.7579 11.1399C71.166 10.8549 70.6948 10.4933 70.3441 10.0549C69.9934 9.60918 69.818 9.06486 69.818 8.4219C69.818 7.72049 70.008 7.11406 70.3879 6.60262C70.7678 6.08386 71.2647 5.68567 71.8784 5.40803C72.4995 5.13038 73.1607 4.99156 73.8621 4.99156C74.7389 4.99156 75.5426 5.17788 76.2732 5.5505C77.0038 5.92312 77.5628 6.43457 77.95 7.08484L76.1417 8.15887C76.0321 7.93968 75.8677 7.74241 75.6485 7.56706C75.4293 7.3917 75.1809 7.25288 74.9032 7.15059C74.6256 7.041 74.337 6.97889 74.0374 6.96428C73.6648 6.94967 73.3178 6.99351 72.9963 7.0958C72.6821 7.19078 72.43 7.34421 72.2401 7.5561C72.0501 7.76798 71.9551 8.03832 71.9551 8.3671C71.9551 8.68858 72.0684 8.92969 72.2949 9.09043C72.5214 9.24387 72.8063 9.36807 73.1497 9.46306C73.5004 9.55804 73.8584 9.66398 74.2238 9.78088C74.874 9.98546 75.4841 10.2375 76.054 10.5371C76.6239 10.8293 77.0842 11.191 77.4349 11.6221C77.7856 12.0532 77.9537 12.5792 77.939 13.2003C77.939 13.8871 77.7308 14.4898 77.3143 15.0086C76.9052 15.5273 76.3718 15.9219 75.7143 16.1922C75.0567 16.4626 74.3589 16.5758 73.621 16.532ZM82.0953 21.8035H79.8157V5.36419H82.0953V6.97524C82.4606 6.41265 82.9282 5.956 83.4981 5.6053C84.068 5.25459 84.7402 5.07924 85.5147 5.07924C86.311 5.07924 87.0563 5.22902 87.7504 5.52858C88.4518 5.82814 89.0655 6.2446 89.5916 6.77797C90.1177 7.30403 90.5305 7.91411 90.83 8.60821C91.1296 9.30232 91.2794 10.0476 91.2794 10.844C91.2794 11.6404 91.1296 12.3893 90.83 13.0907C90.5305 13.7921 90.1177 14.4095 89.5916 14.9428C89.0655 15.4689 88.4518 15.8817 87.7504 16.1813C87.0563 16.4808 86.311 16.6306 85.5147 16.6306C84.7402 16.6306 84.068 16.4552 83.4981 16.1045C82.9282 15.7465 82.4606 15.2899 82.0953 14.7346V21.8035ZM85.4927 7.28211C84.8571 7.28211 84.2981 7.44285 83.8159 7.76433C83.3337 8.08581 82.9574 8.51688 82.6871 9.05755C82.4168 9.59092 82.2816 10.1864 82.2816 10.844C82.2816 11.5015 82.4168 12.1007 82.6871 12.6413C82.9574 13.182 83.3337 13.6131 83.8159 13.9346C84.2981 14.256 84.8571 14.4168 85.4927 14.4168C86.1211 14.4168 86.6983 14.2597 87.2243 13.9455C87.7504 13.624 88.1705 13.193 88.4847 12.6523C88.7989 12.1116 88.956 11.5088 88.956 10.844C88.956 10.1937 88.7989 9.59822 88.4847 9.05755C88.1778 8.51688 87.7614 8.08581 87.2353 7.76433C86.7092 7.44285 86.1284 7.28211 85.4927 7.28211ZM97.8664 16.6087C96.8581 16.6087 95.9375 16.3493 95.1046 15.8306C94.279 15.3118 93.6178 14.6177 93.1209 13.7482C92.6314 12.8715 92.3866 11.9034 92.3866 10.844C92.3866 10.0403 92.5291 9.29136 92.8141 8.59725C93.099 7.89584 93.4899 7.28211 93.9867 6.75605C94.4909 6.22269 95.0754 5.80622 95.7403 5.50666C96.4051 5.2071 97.1138 5.05732 97.8664 5.05732C98.7066 5.05732 99.4775 5.23267 100.179 5.58338C100.88 5.92678 101.479 6.40534 101.976 7.01908C102.473 7.62551 102.838 8.32692 103.072 9.12331C103.306 9.9124 103.375 10.7526 103.28 11.644H94.8306C94.9256 12.1481 95.1082 12.6048 95.3786 13.0139C95.6562 13.4158 96.0069 13.7336 96.4307 13.9674C96.8618 14.2012 97.3403 14.3218 97.8664 14.3291C98.4217 14.3291 98.9258 14.1903 99.3788 13.9126C99.8391 13.635 100.215 13.2514 100.508 12.7619L102.82 13.2989C102.382 14.2706 101.721 15.067 100.836 15.6881C99.9524 16.3018 98.9624 16.6087 97.8664 16.6087ZM94.7539 9.90144H100.979C100.906 9.37538 100.72 8.90047 100.42 8.4767C100.128 8.04562 99.7587 7.70588 99.3131 7.45746C98.8747 7.20174 98.3925 7.07388 97.8664 7.07388C97.3476 7.07388 96.8654 7.19808 96.4197 7.4465C95.9814 7.69492 95.616 8.03466 95.3238 8.46574C95.0388 8.88951 94.8489 9.36807 94.7539 9.90144ZM114.316 16.3237H111.686L108.99 11.6769L107.225 13.7811V16.3237H104.946V-0.115584H107.225V10.2412L111.302 5.36419H114.283L110.546 9.82472L114.316 16.3237ZM121.991 7.64377H119.69L119.679 16.3237H117.399L117.41 7.64377H115.668V5.36419H117.41L117.399 1.92289H119.679L119.69 5.36419H121.991V7.64377ZM128.519 16.6087C127.511 16.6087 126.59 16.3493 125.757 15.8306C124.931 15.3118 124.27 14.6177 123.773 13.7482C123.284 12.8715 123.039 11.9034 123.039 10.844C123.039 10.0403 123.182 9.29136 123.467 8.59725C123.751 7.89584 124.142 7.28211 124.639 6.75605C125.143 6.22269 125.728 5.80622 126.393 5.50666C127.058 5.2071 127.766 5.05732 128.519 5.05732C129.527 5.05732 130.444 5.3167 131.27 5.83545C132.103 6.3542 132.764 7.05196 133.253 7.92872C133.75 8.80548 133.999 9.77723 133.999 10.844C133.999 11.6404 133.856 12.3856 133.571 13.0797C133.286 13.7738 132.892 14.3875 132.388 14.9209C131.891 15.447 131.31 15.8598 130.645 16.1593C129.987 16.4589 129.279 16.6087 128.519 16.6087ZM128.519 14.3291C129.125 14.3291 129.67 14.1684 130.152 13.8469C130.634 13.5254 131.014 13.1016 131.292 12.5756C131.577 12.0422 131.719 11.465 131.719 10.844C131.719 10.2083 131.573 9.6238 131.281 9.09043C130.996 8.55707 130.612 8.1333 130.13 7.81913C129.648 7.49765 129.111 7.33691 128.519 7.33691C127.92 7.33691 127.375 7.49765 126.886 7.81913C126.404 8.14061 126.02 8.56803 125.735 9.10139C125.458 9.63476 125.319 10.2156 125.319 10.844C125.319 11.4942 125.465 12.0824 125.757 12.6084C126.049 13.1345 126.437 13.5546 126.919 13.8688C127.408 14.1757 127.942 14.3291 128.519 14.3291ZM135.769 16.3237V5.36419H138.049V6.5259C138.429 6.0729 138.896 5.71489 139.452 5.45186C140.007 5.18884 140.606 5.05732 141.249 5.05732C141.658 5.05732 142.064 5.11212 142.466 5.22171L141.556 7.52322C141.271 7.41362 140.986 7.35882 140.701 7.35882C140.219 7.35882 139.777 7.47938 139.375 7.72049C138.973 7.95429 138.652 8.27212 138.411 8.67397C138.169 9.07582 138.049 9.52151 138.049 10.011V16.3237H135.769Z" fill="white"/>
<path d="M37.0433 0.803711L33.1329 1.87214L26.5498 3.6457L22.2745 4.81192L17.2464 6.19595L2.38061 10.2042L0.000488281 19.5799L6.09705 25.6773L10.7126 30.3167L15.0849 25.8959L15.0602 20.2851L23.7325 11.6128L25.4083 13.2648L24.7278 17.9042L27.2057 20.3821L31.8451 19.7016L33.497 21.3782L24.8256 30.025L19.1901 30.0011L14.8178 34.3734L18.3641 37.9436L25.0195 44.5998L34.4446 42.3159L35.61 37.9436L37.0195 32.7461L40.0801 21.305L41.4403 16.2769L43.7719 7.60542L37.0433 0.803711Z" fill="white"/>
</svg>
