<svg width="141" height="44" viewBox="0 0 141 44" fill="none" xmlns="http://www.w3.org/2000/svg">
<path d="M60.5959 37.6819C59.5291 37.6819 58.5355 37.4773 57.6149 37.0682C56.7016 36.6517 55.9015 36.0782 55.2147 35.3475C54.5352 34.6096 54.0019 33.7584 53.6146 32.794C53.2347 31.8295 53.0447 30.803 53.0447 29.7143C53.0447 28.5672 53.2493 27.5115 53.6585 26.547C54.0676 25.5826 54.6266 24.746 55.3353 24.0373C56.044 23.3213 56.8513 22.766 57.7573 22.3714C58.6706 21.9769 59.6278 21.7796 60.6287 21.7796C61.7612 21.7796 62.8499 22.0427 63.8947 22.5687C64.9395 23.0948 65.8491 23.8839 66.6236 24.936L64.5851 26.0429C64.0591 25.3853 63.4453 24.8885 62.7439 24.5524C62.0498 24.2163 61.3375 24.0482 60.6068 24.0482C59.8981 24.0482 59.2259 24.1944 58.5903 24.4866C57.9546 24.7716 57.392 25.1734 56.9025 25.6922C56.413 26.2036 56.0257 26.8064 55.7408 27.5005C55.4631 28.1873 55.3243 28.9362 55.3243 29.7472C55.3243 30.529 55.4595 31.2633 55.7298 31.9501C56.0075 32.6369 56.3874 33.2397 56.8696 33.7584C57.3591 34.2698 57.9217 34.6717 58.5574 34.964C59.2003 35.2562 59.8871 35.4023 60.6178 35.4023C61.1584 35.4023 61.6772 35.3147 62.174 35.1393C62.6709 34.964 63.1312 34.7155 63.5549 34.3941C63.986 34.0653 64.3623 33.6744 64.6838 33.2214C65.0052 32.7684 65.261 32.2643 65.4509 31.709H62.196V29.6924H68.1251C68.1397 30.7884 67.9497 31.8186 67.5552 32.783C67.1679 33.7474 66.6273 34.5986 65.9332 35.3366C65.2464 36.0672 64.4463 36.6408 63.533 37.0572C62.6197 37.4737 61.6407 37.6819 60.5959 37.6819ZM78.556 26.4374H80.8356V37.397H78.545L78.4573 35.8078C78.1359 36.3704 77.7011 36.8234 77.1532 37.1668C76.6052 37.5102 75.9586 37.6819 75.2133 37.6819C74.4096 37.6819 73.6534 37.5321 72.9447 37.2326C72.236 36.9257 71.6113 36.5019 71.0706 35.9613C70.5372 35.4206 70.1208 34.7996 69.8212 34.0982C69.5217 33.3894 69.3719 32.6296 69.3719 31.8186C69.3719 31.0368 69.518 30.3025 69.8103 29.6157C70.1025 28.9216 70.508 28.3152 71.0268 27.7964C71.5455 27.2777 72.1446 26.8722 72.8241 26.5799C73.5109 26.2803 74.2452 26.1306 75.027 26.1306C75.8234 26.1306 76.5248 26.3132 77.1312 26.6785C77.745 27.0366 78.2528 27.4969 78.6546 28.0594L78.556 26.4374ZM75.1585 35.4791C75.8015 35.4791 76.3641 35.322 76.8463 35.0078C77.3285 34.6863 77.7011 34.2552 77.9642 33.7146C78.2345 33.1739 78.3697 32.5748 78.3697 31.9172C78.3697 31.2523 78.2345 30.6495 77.9642 30.1089C77.6938 29.5682 77.3176 29.1408 76.8353 28.8266C76.3604 28.5051 75.8015 28.3444 75.1585 28.3444C74.5229 28.3444 73.942 28.5051 73.416 28.8266C72.8899 29.1481 72.4734 29.5792 72.1666 30.1198C71.8597 30.6605 71.7063 31.2596 71.7063 31.9172C71.7063 32.5821 71.8634 33.1849 72.1775 33.7255C72.499 34.2589 72.9191 34.6863 73.4379 35.0078C73.9639 35.322 74.5375 35.4791 75.1585 35.4791ZM91.3459 20.9577H93.6255V37.397H91.3459V35.7859C90.9879 36.3558 90.5203 36.8161 89.9431 37.1668C89.3659 37.5102 88.6901 37.6819 87.9156 37.6819C87.1192 37.6819 86.374 37.5321 85.6799 37.2326C84.9857 36.933 84.372 36.5202 83.8386 35.9942C83.3126 35.4608 82.8998 34.8471 82.6002 34.1529C82.3007 33.4588 82.1509 32.7136 82.1509 31.9172C82.1509 31.1208 82.3007 30.3756 82.6002 29.6815C82.8998 28.98 83.3126 28.3663 83.8386 27.8403C84.372 27.3069 84.9857 26.8904 85.6799 26.5909C86.374 26.2913 87.1192 26.1415 87.9156 26.1415C88.6901 26.1415 89.3659 26.3169 89.9431 26.6676C90.5203 27.011 90.9879 27.464 91.3459 28.0266V20.9577ZM87.9375 35.4791C88.5805 35.4791 89.1431 35.322 89.6253 35.0078C90.1075 34.6863 90.4801 34.2552 90.7432 33.7146C91.0135 33.1739 91.1487 32.5748 91.1487 31.9172C91.1487 31.2523 91.0135 30.6495 90.7432 30.1089C90.4728 29.5682 90.0965 29.1408 89.6143 28.8266C89.1394 28.5051 88.5805 28.3444 87.9375 28.3444C87.3019 28.3444 86.721 28.5051 86.195 28.8266C85.6762 29.1481 85.2597 29.5792 84.9456 30.1198C84.6387 30.6605 84.4853 31.2596 84.4853 31.9172C84.4853 32.5821 84.6423 33.1849 84.9565 33.7255C85.278 34.2589 85.6981 34.6863 86.2169 35.0078C86.7429 35.322 87.3165 35.4791 87.9375 35.4791ZM104.441 26.4374H106.721V37.6819C106.721 38.4345 106.56 39.1286 106.239 39.7642C105.925 40.3999 105.497 40.9479 104.956 41.4082C104.416 41.8758 103.795 42.2374 103.093 42.4932C102.399 42.7489 101.672 42.8767 100.912 42.8767C100.145 42.8767 99.4073 42.7124 98.6986 42.3836C97.9899 42.0621 97.3652 41.6237 96.8245 41.0684C96.2911 40.5131 95.8929 39.8848 95.6299 39.1834L97.7232 38.2409C97.8693 38.6939 98.1031 39.0957 98.4246 39.4464C98.7534 39.7971 99.1333 40.0748 99.5644 40.2793C100.003 40.4839 100.452 40.5862 100.912 40.5862C101.365 40.5862 101.8 40.5131 102.217 40.367C102.64 40.2282 103.017 40.0309 103.345 39.7752C103.682 39.5195 103.948 39.2126 104.145 38.8546C104.343 38.4966 104.441 38.1057 104.441 37.6819V35.8298C104.083 36.385 103.623 36.8344 103.06 37.1778C102.498 37.5139 101.844 37.6819 101.099 37.6819C100.324 37.6819 99.5936 37.5321 98.9068 37.2326C98.22 36.933 97.6172 36.5202 97.0985 35.9942C96.5797 35.4608 96.1742 34.8471 95.882 34.1529C95.5897 33.4588 95.4436 32.7136 95.4436 31.9172C95.4436 31.1208 95.5897 30.3756 95.882 29.6815C96.1742 28.98 96.5797 28.3663 97.0985 27.8403C97.6172 27.3069 98.22 26.8904 98.9068 26.5909C99.5936 26.2913 100.324 26.1415 101.099 26.1415C101.844 26.1415 102.498 26.3132 103.06 26.6566C103.623 26.9927 104.083 27.4421 104.441 28.0046V26.4374ZM101.121 35.4791C101.756 35.4791 102.312 35.3183 102.786 34.9968C103.261 34.668 103.63 34.2333 103.893 33.6926C104.156 33.152 104.288 32.5602 104.288 31.9172C104.288 31.2596 104.153 30.6642 103.882 30.1308C103.619 29.5901 103.25 29.159 102.776 28.8376C102.301 28.5088 101.749 28.3444 101.121 28.3444C100.507 28.3444 99.9443 28.5051 99.4329 28.8266C98.9287 29.1481 98.5269 29.5792 98.2273 30.1198C97.9278 30.6605 97.778 31.2596 97.778 31.9172C97.778 32.5748 97.9278 33.1739 98.2273 33.7146C98.5342 34.2552 98.9397 34.6863 99.4438 35.0078C99.9553 35.322 100.514 35.4791 101.121 35.4791ZM113.981 37.6819C112.972 37.6819 112.052 37.4225 111.219 36.9038C110.393 36.385 109.732 35.6909 109.235 34.8215C108.746 33.9447 108.501 32.9766 108.501 31.9172C108.501 31.1135 108.643 30.3646 108.928 29.6705C109.213 28.9691 109.604 28.3553 110.101 27.8293C110.605 27.2959 111.19 26.8795 111.854 26.5799C112.519 26.2803 113.228 26.1306 113.981 26.1306C114.821 26.1306 115.592 26.3059 116.293 26.6566C116.995 27 117.594 27.4786 118.09 28.0923C118.587 28.6987 118.953 29.4002 119.186 30.1966C119.42 30.9856 119.49 31.8259 119.395 32.7172H110.945C111.04 33.2214 111.222 33.678 111.493 34.0872C111.77 34.489 112.121 34.8069 112.545 35.0407C112.976 35.2745 113.455 35.395 113.981 35.4023C114.536 35.4023 115.04 35.2635 115.493 34.9859C115.953 34.7082 116.33 34.3246 116.622 33.8351L118.934 34.3721C118.496 35.3439 117.835 36.1403 116.951 36.7613C116.067 37.3751 115.077 37.6819 113.981 37.6819ZM110.868 30.9747H117.093C117.02 30.4486 116.834 29.9737 116.534 29.5499C116.242 29.1189 115.873 28.7791 115.427 28.5307C114.989 28.275 114.507 28.1471 113.981 28.1471C113.462 28.1471 112.98 28.2713 112.534 28.5197C112.096 28.7682 111.73 29.1079 111.438 29.539C111.153 29.9627 110.963 30.4413 110.868 30.9747ZM126.932 28.717H124.631L124.62 37.397H122.34L122.351 28.717H120.608V26.4374H122.351L122.34 22.9961H124.62L124.631 26.4374H126.932V28.717Z" fill="#E61D4B"/>
<path d="M53.0453 15.52V0.176659H55.3249V15.52H53.0453ZM68.1455 8.64839V15.52H65.8659V9.20732C65.8659 8.7178 65.7454 8.27211 65.5042 7.87026C65.2704 7.46841 64.9526 7.15058 64.5508 6.91678C64.1562 6.67567 63.7105 6.55511 63.2137 6.55511C62.7315 6.55511 62.2894 6.67567 61.8876 6.91678C61.4857 7.15058 61.1643 7.46841 60.9232 7.87026C60.682 8.27211 60.5615 8.7178 60.5615 9.20732V15.52H58.2819V4.56048H60.5615V5.72219C60.9414 5.26919 61.409 4.91118 61.9643 4.64815C62.5196 4.38512 63.1187 4.25361 63.7617 4.25361C64.5727 4.25361 65.3106 4.45088 65.9755 4.84542C66.6404 5.23997 67.1664 5.76968 67.5537 6.43456C67.9482 7.09944 68.1455 7.83738 68.1455 8.64839ZM73.621 15.7283C73.0438 15.6917 72.4812 15.5748 71.9332 15.3775C71.3852 15.1803 70.903 14.9136 70.4866 14.5775C70.0774 14.2341 69.7705 13.8322 69.566 13.3719L71.5058 12.539C71.6008 12.7363 71.7652 12.9299 71.999 13.1199C72.2401 13.3098 72.5214 13.4669 72.8429 13.5911C73.1643 13.708 73.5004 13.7665 73.8511 13.7665C74.1945 13.7665 74.5124 13.719 74.8046 13.624C75.1042 13.5217 75.3489 13.3683 75.5389 13.1637C75.7289 12.9591 75.8239 12.7144 75.8239 12.4294C75.8239 12.1079 75.7143 11.8595 75.4951 11.6842C75.2832 11.5015 75.0165 11.3627 74.695 11.2677C74.3735 11.1727 74.0521 11.0814 73.7306 10.9937C73.0146 10.833 72.357 10.6138 71.7579 10.3362C71.166 10.0512 70.6948 9.68954 70.3441 9.25116C69.9934 8.80547 69.818 8.26115 69.818 7.61819C69.818 6.91678 70.008 6.31035 70.3879 5.79891C70.7678 5.28015 71.2647 4.88196 71.8784 4.60431C72.4995 4.32667 73.1607 4.18785 73.8621 4.18785C74.7389 4.18785 75.5426 4.37416 76.2732 4.74679C77.0038 5.11941 77.5628 5.63086 77.95 6.28112L76.1417 7.35516C76.0321 7.13597 75.8677 6.9387 75.6485 6.76334C75.4293 6.58799 75.1809 6.44917 74.9032 6.34688C74.6256 6.23729 74.337 6.17518 74.0374 6.16057C73.6648 6.14596 73.3178 6.1898 72.9963 6.29208C72.6821 6.38707 72.43 6.5405 72.2401 6.75239C72.0501 6.96427 71.9551 7.23461 71.9551 7.56339C71.9551 7.88487 72.0684 8.12598 72.2949 8.28672C72.5214 8.44015 72.8063 8.56436 73.1497 8.65935C73.5004 8.75433 73.8584 8.86027 74.2238 8.97717C74.874 9.18175 75.4841 9.43382 76.054 9.73338C76.6239 10.0256 77.0842 10.3873 77.4349 10.8184C77.7856 11.2495 77.9537 11.7755 77.939 12.3965C77.939 13.0833 77.7308 13.6861 77.3143 14.2049C76.9052 14.7236 76.3718 15.1182 75.7143 15.3885C75.0567 15.6588 74.3589 15.7721 73.621 15.7283ZM82.0953 20.9998H79.8157V4.56048H82.0953V6.17153C82.4606 5.60894 82.9282 5.15229 83.4981 4.80159C84.068 4.45088 84.7402 4.27553 85.5147 4.27553C86.311 4.27553 87.0563 4.42531 87.7504 4.72487C88.4518 5.02443 89.0655 5.44089 89.5916 5.97426C90.1177 6.50032 90.5305 7.1104 90.83 7.8045C91.1296 8.49861 91.2794 9.24385 91.2794 10.0402C91.2794 10.8366 91.1296 11.5855 90.83 12.287C90.5305 12.9884 90.1177 13.6058 89.5916 14.1391C89.0655 14.6652 88.4518 15.078 87.7504 15.3775C87.0563 15.6771 86.311 15.8269 85.5147 15.8269C84.7402 15.8269 84.068 15.6515 83.4981 15.3008C82.9282 14.9428 82.4606 14.4862 82.0953 13.9309V20.9998ZM85.4927 6.4784C84.8571 6.4784 84.2981 6.63914 83.8159 6.96062C83.3337 7.2821 82.9574 7.71317 82.6871 8.25384C82.4168 8.78721 82.2816 9.38268 82.2816 10.0402C82.2816 10.6978 82.4168 11.2969 82.6871 11.8376C82.9574 12.3783 83.3337 12.8094 83.8159 13.1308C84.2981 13.4523 84.8571 13.6131 85.4927 13.6131C86.1211 13.6131 86.6983 13.456 87.2243 13.1418C87.7504 12.8203 88.1705 12.3892 88.4847 11.8486C88.7989 11.3079 88.956 10.7051 88.956 10.0402C88.956 9.38998 88.7989 8.79451 88.4847 8.25384C88.1778 7.71317 87.7614 7.2821 87.2353 6.96062C86.7092 6.63914 86.1284 6.4784 85.4927 6.4784ZM97.8664 15.805C96.8581 15.805 95.9375 15.5456 95.1046 15.0268C94.279 14.5081 93.6178 13.814 93.1209 12.9445C92.6314 12.0678 92.3866 11.0997 92.3866 10.0402C92.3866 9.23655 92.5291 8.48765 92.8141 7.79354C93.099 7.09213 93.4899 6.4784 93.9867 5.95234C94.4909 5.41897 95.0754 5.00251 95.7403 4.70295C96.4051 4.40339 97.1138 4.25361 97.8664 4.25361C98.7066 4.25361 99.4775 4.42896 100.179 4.77967C100.88 5.12307 101.479 5.60163 101.976 6.21537C102.473 6.8218 102.838 7.52321 103.072 8.3196C103.306 9.10869 103.375 9.94892 103.28 10.8403H94.8306C94.9256 11.3444 95.1082 11.8011 95.3786 12.2102C95.6562 12.6121 96.0069 12.9299 96.4307 13.1637C96.8618 13.3975 97.3403 13.5181 97.8664 13.5254C98.4217 13.5254 98.9258 13.3866 99.3788 13.1089C99.8391 12.8313 100.215 12.4477 100.508 11.9582L102.82 12.4952C102.382 13.4669 101.721 14.2633 100.836 14.8844C99.9524 15.4981 98.9624 15.805 97.8664 15.805ZM94.7539 9.09773H100.979C100.906 8.57167 100.72 8.09676 100.42 7.67299C100.128 7.24191 99.7587 6.90217 99.3131 6.65375C98.8747 6.39803 98.3925 6.27017 97.8664 6.27017C97.3476 6.27017 96.8654 6.39437 96.4197 6.64279C95.9814 6.89121 95.616 7.23095 95.3238 7.66203C95.0388 8.0858 94.8489 8.56436 94.7539 9.09773ZM114.316 15.52H111.686L108.99 10.8732L107.225 12.9774V15.52H104.946V-0.919295H107.225V9.43747L111.302 4.56048H114.283L110.546 9.02101L114.316 15.52ZM121.991 6.84006H119.69L119.679 15.52H117.399L117.41 6.84006H115.668V4.56048H117.41L117.399 1.11918H119.679L119.69 4.56048H121.991V6.84006ZM128.519 15.805C127.511 15.805 126.59 15.5456 125.757 15.0268C124.931 14.5081 124.27 13.814 123.773 12.9445C123.284 12.0678 123.039 11.0997 123.039 10.0402C123.039 9.23655 123.182 8.48765 123.467 7.79354C123.751 7.09213 124.142 6.4784 124.639 5.95234C125.143 5.41897 125.728 5.00251 126.393 4.70295C127.058 4.40339 127.766 4.25361 128.519 4.25361C129.527 4.25361 130.444 4.51299 131.27 5.03174C132.103 5.55049 132.764 6.24825 133.253 7.12501C133.75 8.00177 133.999 8.97352 133.999 10.0402C133.999 10.8366 133.856 11.5819 133.571 12.276C133.286 12.9701 132.892 13.5838 132.388 14.1172C131.891 14.6433 131.31 15.0561 130.645 15.3556C129.987 15.6552 129.279 15.805 128.519 15.805ZM128.519 13.5254C129.125 13.5254 129.67 13.3646 130.152 13.0432C130.634 12.7217 131.014 12.2979 131.292 11.7719C131.577 11.2385 131.719 10.6613 131.719 10.0402C131.719 9.40459 131.573 8.82009 131.281 8.28672C130.996 7.75336 130.612 7.32959 130.13 7.01541C129.648 6.69393 129.111 6.53319 128.519 6.53319C127.92 6.53319 127.375 6.69393 126.886 7.01541C126.404 7.33689 126.02 7.76432 125.735 8.29768C125.458 8.83105 125.319 9.4119 125.319 10.0402C125.319 10.6905 125.465 11.2787 125.757 11.8047C126.049 12.3308 126.437 12.7509 126.919 13.0651C127.408 13.3719 127.942 13.5254 128.519 13.5254ZM135.769 15.52V4.56048H138.049V5.72219C138.429 5.26919 138.896 4.91118 139.452 4.64815C140.007 4.38512 140.606 4.25361 141.249 4.25361C141.658 4.25361 142.064 4.30841 142.466 4.418L141.556 6.71951C141.271 6.60991 140.986 6.55511 140.701 6.55511C140.219 6.55511 139.777 6.67567 139.375 6.91678C138.973 7.15058 138.652 7.46841 138.411 7.87026C138.169 8.27211 138.049 8.7178 138.049 9.20732V15.52H135.769Z" fill="#E61D4B"/>
<path d="M37.0433 0L33.1329 1.06843L26.5498 2.84199L22.2745 4.0082L17.2464 5.39224L2.38061 9.40044L0.000488281 18.7762L6.09705 24.8736L10.7126 29.513L15.0849 25.0922L15.0602 19.4814L23.7325 10.8091L25.4083 12.4611L24.7278 17.1005L27.2057 19.5784L31.8451 18.8979L33.497 20.5744L24.8256 29.2213L19.1901 29.1974L14.8178 33.5697L18.3641 37.1399L25.0195 43.7961L34.4446 41.5122L35.61 37.1399L37.0195 31.9424L40.0801 20.5013L41.4403 15.4732L43.7719 6.80171L37.0433 0Z" fill="#E61D4B"/>
</svg>
