<svg width="171" height="210" viewBox="0 0 171 210" fill="none" xmlns="http://www.w3.org/2000/svg">
<g opacity="0.2">
<g opacity="0.2">
<path opacity="0.2" d="M169.805 160.348L86.4072 210L0.64502 160.348L84.0428 110.912L169.805 160.348Z" fill="#1F1D21"/>
</g>
</g>
<path d="M0 49.4369L85.7622 0L170.665 48.792L84.9024 98.2289L0 49.4369Z" fill="#FFBECE"/>
<path d="M84.9023 98.2298L84.0425 196.459L169.805 147.022L170.664 48.793L84.9023 98.2298Z" fill="#FD688D"/>
<path d="M0 49.437V147.666L84.0426 196.458L84.9024 98.229L0 49.437Z" fill="#FE93AE"/>
<path d="M84.2578 98.0135L84.4728 14.6157L157.123 56.5296L156.909 139.927L84.2578 98.0135Z" fill="#FE93AE"/>
<path d="M84.2577 98.0135L13.5415 139.927L13.7565 56.5296L84.4726 14.6157L84.2577 98.0135Z" fill="#FD688D"/>
<path d="M156.908 139.927L84.2577 181.626L13.5415 139.927L84.2577 98.0132L156.908 139.927Z" fill="#FFBECE"/>
</svg>
