<svg width="2023" height="364" viewBox="0 0 2023 364" fill="none" xmlns="http://www.w3.org/2000/svg">
<path d="M6.86135e-06 192.111L70.7 192.111L70.7 182L80.8 182L80.8 171.889L40.4 171.889L40.4 182L7.30332e-06 182L8.18726e-06 161.778L20.2 161.778L20.2 151.667L60.6 151.667L60.6 161.778L90.9 161.778L90.9 151.667L222.2 151.667L222.2 161.778L202 161.778L202 171.889L262.6 171.889L262.6 161.778L242.4 161.778L242.4 151.667L282.8 151.667L282.8 161.778L323.2 161.778L323.2 151.667L373.7 151.667L373.7 161.778L383.8 161.778L383.8 171.889L424.2 171.889L424.2 161.778L404 161.778L404 151.667L474.7 151.667L474.7 141.556L505 141.556L505 151.667L484.8 151.667L484.8 161.778L464.6 161.778L464.6 171.889L494.9 171.889L494.9 161.778L505 161.778L505 182L424.2 182L424.2 192.111L505 192.111L505 364L-6.52155e-07 364L6.86135e-06 192.111ZM30.3 242.667L30.3 252.778L60.6 252.778L60.6 242.667L30.3 242.667ZM80.8 222.444L80.8 232.556L111.1 232.556L111.1 222.444L80.8 222.444ZM50.5 202.222L50.5 212.333L151.5 212.333L151.5 202.222L50.5 202.222ZM181.8 171.889L151.5 171.889L151.5 161.778L111.1 161.778L111.1 171.889L141.4 171.889L141.4 182L181.8 182L181.8 171.889ZM363.6 202.222L363.6 192.111L333.3 192.111L333.3 182L252.5 182L252.5 192.111L323.2 192.111L323.2 202.222L363.6 202.222ZM282.8 202.222L191.9 202.222L191.9 212.333L282.8 212.333L282.8 202.222ZM383.8 212.333L353.5 212.333L353.5 222.444L383.8 222.444L383.8 212.333ZM474.7 232.556L474.7 222.444L424.2 222.444L424.2 232.556L474.7 232.556ZM343.4 252.778L343.4 242.667L292.9 242.667L292.9 252.778L343.4 252.778ZM191.9 252.778L141.4 252.778L141.4 262.889L191.9 262.889L191.9 252.778ZM282.8 262.889L252.5 262.889L252.5 273L282.8 273L282.8 262.889ZM444.4 283.111L444.4 273L404 273L404 283.111L444.4 283.111Z" fill="white"/>
<path d="M383.8 10.1111L383.8 1.67764e-05L424.2 1.85424e-05L424.2 10.1111L383.8 10.1111Z" fill="white"/>
<path d="M70.7 20.2222L70.7 10.1111L121.2 10.1111L121.2 20.2222L70.7 20.2222Z" fill="white"/>
<path d="M202 20.2222L202 10.1111L252.5 10.1111L252.5 20.2222L202 20.2222Z" fill="white"/>
<path d="M292.9 30.3333L292.9 20.2222L353.5 20.2222L353.5 30.3333L292.9 30.3333Z" fill="white"/>
<path d="M141.4 30.3333L141.4 20.2222L171.7 20.2222L171.7 30.3333L141.4 30.3333Z" fill="white"/>
<path d="M20.2 30.3333L20.2 20.2222L60.6 20.2222L60.6 30.3333L20.2 30.3333Z" fill="white"/>
<path d="M383.8 40.4445L383.8 30.3333L444.4 30.3334L444.4 40.4445L383.8 40.4445Z" fill="white"/>
<path d="M171.7 40.4444L171.7 30.3333L212.1 30.3333L212.1 40.4445L171.7 40.4444Z" fill="white"/>
<path d="M232.3 50.5556L232.3 40.4445L292.9 40.4445L292.9 50.5556L232.3 50.5556Z" fill="white"/>
<path d="M464.6 50.5556L464.6 40.4445L505 40.4445L505 50.5556L464.6 50.5556Z" fill="white"/>
<path d="M1.30489e-05 50.5556L1.34909e-05 40.4444L20.2 40.4444L20.2 50.5556L1.30489e-05 50.5556Z" fill="white"/>
<path d="M414.1 60.6667L414.1 50.5556L454.5 50.5556L454.5 60.6667L414.1 60.6667Z" fill="white"/>
<path d="M30.3 60.6667L30.3 50.5556L70.7 50.5556L70.7 60.6667L30.3 60.6667Z" fill="white"/>
<path d="M252.5 70.7778L252.5 60.6667L313.1 60.6667L313.1 70.7778L252.5 70.7778Z" fill="white"/>
<path d="M121.2 60.5403L121.2 50.5556L202 50.5556L202 60.6667L131.3 60.6667L131.3 70.6514L80.8 70.6514L80.8 60.5403L121.2 60.5403Z" fill="white"/>
<path d="M1.17285e-05 80.7625L1.21705e-05 70.6514L60.6 70.6514L60.6 80.7625L1.17285e-05 80.7625Z" fill="white"/>
<path d="M191.9 80.7625L191.9 70.6514L222.2 70.6514L222.2 80.7625L191.9 80.7625Z" fill="white"/>
<path d="M414.1 80.7625L363.6 80.7625L363.6 70.7778L333.3 70.7778L333.3 60.6667L383.8 60.6667L383.8 70.6514L414.1 70.6514L414.1 80.7625Z" fill="white"/>
<path d="M484.8 80.7625L484.8 70.7778L505 70.7778L505 90.8736L444.4 90.8736L444.4 80.7625L484.8 80.7625Z" fill="white"/>
<path d="M70.7 91L70.7 101.111L1.08391e-05 101.111L1.12811e-05 91L40.4 91L40.4 80.8889L101 80.8889L101 91L70.7 91Z" fill="white"/>
<path d="M232.3 111.222L232.3 101.111L262.6 101.111L262.6 111.222L232.3 111.222Z" fill="white"/>
<path d="M121.2 111.222L121.2 101.111L151.5 101.111L151.5 91L202 91L202 101.111L171.7 101.111L171.7 111.222L222.2 111.222L222.2 121.333L262.6 121.333L262.6 131.444L202 131.444L202 121.333L141.4 121.333L141.4 111.222L121.2 111.222Z" fill="white"/>
<path d="M70.7 111.222L70.7 101.111L111.1 101.111L111.1 111.222L70.7 111.222Z" fill="white"/>
<path d="M30.3 131.444L50.5 131.444L50.5 121.333L141.4 121.333L141.4 131.444L191.9 131.444L191.9 141.556L121.2 141.556L121.2 131.444L70.7 131.444L70.7 141.429L90.9 141.429L90.9 151.54L8.63475e-06 151.54L9.07672e-06 141.429L10.1 141.429L10.1 131.444L9.51317e-06 131.444L1.03971e-05 111.222L30.3 111.222L30.3 131.444Z" fill="white"/>
<path d="M505 192.111L575.84 192.111L575.84 182L585.96 182L585.96 171.889L545.48 171.889L545.48 182L505 182L505 161.778L525.24 161.778L525.24 151.667L565.72 151.667L565.72 161.778L596.08 161.778L596.08 151.667L727.64 151.667L727.64 161.778L707.4 161.778L707.4 171.889L768.12 171.889L768.12 161.778L747.88 161.778L747.88 151.667L788.36 151.667L788.36 161.778L828.84 161.778L828.84 151.667L879.44 151.667L879.44 161.778L889.56 161.778L889.56 171.889L930.04 171.889L930.04 161.778L909.8 161.778L909.8 151.667L980.64 151.667L980.64 141.556L1011 141.556L1011 151.667L990.76 151.667L990.76 161.778L970.52 161.778L970.52 171.889L1000.88 171.889L1000.88 161.778L1011 161.778L1011 182L930.04 182L930.04 192.111L1011 192.111L1011 364L505 364L505 192.111ZM535.36 242.667L535.36 252.778L565.72 252.778L565.72 242.667L535.36 242.667ZM585.96 222.444L585.96 232.556L616.32 232.556L616.32 222.444L585.96 222.444ZM555.6 202.222L555.6 212.333L656.8 212.333L656.8 202.222L555.6 202.222ZM687.16 171.889L656.8 171.889L656.8 161.778L616.32 161.778L616.32 171.889L646.68 171.889L646.68 182L687.16 182L687.16 171.889ZM869.32 202.222L869.32 192.111L838.96 192.111L838.96 182L758 182L758 192.111L828.84 192.111L828.84 202.222L869.32 202.222ZM788.36 202.222L697.28 202.222L697.28 212.333L788.36 212.333L788.36 202.222ZM889.56 212.333L859.2 212.333L859.2 222.444L889.56 222.444L889.56 212.333ZM980.64 232.556L980.64 222.444L930.04 222.444L930.04 232.556L980.64 232.556ZM849.08 252.778L849.08 242.667L798.48 242.667L798.48 252.778L849.08 252.778ZM697.28 252.778L646.68 252.778L646.68 262.889L697.28 262.889L697.28 252.778ZM788.36 262.889L758 262.889L758 273L788.36 273L788.36 262.889ZM950.28 283.111L950.28 273L909.8 273L909.8 283.111L950.28 283.111Z" fill="white"/>
<path d="M889.56 10.1111L889.56 1.68097e-05L930.04 1.85791e-05L930.04 10.1111L889.56 10.1111Z" fill="white"/>
<path d="M575.84 20.2222L575.84 10.1111L626.44 10.1111L626.44 20.2222L575.84 20.2222Z" fill="white"/>
<path d="M707.4 20.2222L707.4 10.1111L758 10.1111L758 20.2222L707.4 20.2222Z" fill="white"/>
<path d="M798.48 30.3333L798.48 20.2222L859.2 20.2222L859.2 30.3333L798.48 30.3333Z" fill="white"/>
<path d="M646.68 30.3333L646.68 20.2222L677.04 20.2222L677.04 30.3333L646.68 30.3333Z" fill="white"/>
<path d="M525.24 30.3333L525.24 20.2222L565.72 20.2222L565.72 30.3333L525.24 30.3333Z" fill="white"/>
<path d="M889.56 40.4445L889.56 30.3333L950.28 30.3334L950.28 40.4445L889.56 40.4445Z" fill="white"/>
<path d="M677.04 40.4444L677.04 30.3333L717.52 30.3333L717.52 40.4445L677.04 40.4444Z" fill="white"/>
<path d="M737.76 50.5556L737.76 40.4445L798.48 40.4445L798.48 50.5556L737.76 50.5556Z" fill="white"/>
<path d="M970.52 50.5556L970.52 40.4445L1011 40.4445L1011 50.5556L970.52 50.5556Z" fill="white"/>
<path d="M505 50.5556L505 40.4444L525.24 40.4444L525.24 50.5556L505 50.5556Z" fill="white"/>
<path d="M919.92 60.6667L919.92 50.5556L960.4 50.5556L960.4 60.6667L919.92 60.6667Z" fill="white"/>
<path d="M535.36 60.6667L535.36 50.5556L575.84 50.5556L575.84 60.6667L535.36 60.6667Z" fill="white"/>
<path d="M758 70.7778L758 60.6667L818.72 60.6667L818.72 70.7778L758 70.7778Z" fill="white"/>
<path d="M626.44 60.5403L626.44 50.5556L707.4 50.5556L707.4 60.6667L636.56 60.6667L636.56 70.6514L585.96 70.6514L585.96 60.5403L626.44 60.5403Z" fill="white"/>
<path d="M505 80.7625L505 70.6514L565.72 70.6514L565.72 80.7625L505 80.7625Z" fill="white"/>
<path d="M697.28 80.7625L697.28 70.6514L727.64 70.6514L727.64 80.7625L697.28 80.7625Z" fill="white"/>
<path d="M919.92 80.7625L869.32 80.7625L869.32 70.7778L838.96 70.7778L838.96 60.6667L889.56 60.6667L889.56 70.6514L919.92 70.6514L919.92 80.7625Z" fill="white"/>
<path d="M990.76 80.7625L990.76 70.7778L1011 70.7778L1011 90.8736L950.28 90.8736L950.28 80.7625L990.76 80.7625Z" fill="white"/>
<path d="M575.84 91L575.84 101.111L505 101.111L505 91L545.48 91L545.48 80.8889L606.2 80.8889L606.2 91L575.84 91Z" fill="white"/>
<path d="M737.76 111.222L737.76 101.111L768.12 101.111L768.12 111.222L737.76 111.222Z" fill="white"/>
<path d="M626.44 111.222L626.44 101.111L656.8 101.111L656.8 91L707.4 91L707.4 101.111L677.04 101.111L677.04 111.222L727.64 111.222L727.64 121.333L768.12 121.333L768.12 131.444L707.4 131.444L707.4 121.333L646.68 121.333L646.68 111.222L626.44 111.222Z" fill="white"/>
<path d="M575.84 111.222L575.84 101.111L616.32 101.111L616.32 111.222L575.84 111.222Z" fill="white"/>
<path d="M535.36 131.444L555.6 131.444L555.6 121.333L646.68 121.333L646.68 131.444L697.28 131.444L697.28 141.556L626.44 141.556L626.44 131.444L575.84 131.444L575.84 141.429L596.08 141.429L596.08 151.54L505 151.54L505 141.429L515.12 141.429L515.12 131.444L505 131.444L505 111.222L535.36 111.222L535.36 131.444Z" fill="white"/>
<path d="M1011 192.111L1081.84 192.111L1081.84 182L1091.96 182L1091.96 171.889L1051.48 171.889L1051.48 182L1011 182L1011 161.778L1031.24 161.778L1031.24 151.667L1071.72 151.667L1071.72 161.778L1102.08 161.778L1102.08 151.667L1233.64 151.667L1233.64 161.778L1213.4 161.778L1213.4 171.889L1274.12 171.889L1274.12 161.778L1253.88 161.778L1253.88 151.667L1294.36 151.667L1294.36 161.778L1334.84 161.778L1334.84 151.667L1385.44 151.667L1385.44 161.778L1395.56 161.778L1395.56 171.889L1436.04 171.889L1436.04 161.778L1415.8 161.778L1415.8 151.667L1486.64 151.667L1486.64 141.556L1517 141.556L1517 151.667L1496.76 151.667L1496.76 161.778L1476.52 161.778L1476.52 171.889L1506.88 171.889L1506.88 161.778L1517 161.778L1517 182L1436.04 182L1436.04 192.111L1517 192.111L1517 364L1011 364L1011 192.111ZM1041.36 242.667L1041.36 252.778L1071.72 252.778L1071.72 242.667L1041.36 242.667ZM1091.96 222.444L1091.96 232.556L1122.32 232.556L1122.32 222.444L1091.96 222.444ZM1061.6 202.222L1061.6 212.333L1162.8 212.333L1162.8 202.222L1061.6 202.222ZM1193.16 171.889L1162.8 171.889L1162.8 161.778L1122.32 161.778L1122.32 171.889L1152.68 171.889L1152.68 182L1193.16 182L1193.16 171.889ZM1375.32 202.222L1375.32 192.111L1344.96 192.111L1344.96 182L1264 182L1264 192.111L1334.84 192.111L1334.84 202.222L1375.32 202.222ZM1294.36 202.222L1203.28 202.222L1203.28 212.333L1294.36 212.333L1294.36 202.222ZM1395.56 212.333L1365.2 212.333L1365.2 222.444L1395.56 222.444L1395.56 212.333ZM1486.64 232.556L1486.64 222.444L1436.04 222.444L1436.04 232.556L1486.64 232.556ZM1355.08 252.778L1355.08 242.667L1304.48 242.667L1304.48 252.778L1355.08 252.778ZM1203.28 252.778L1152.68 252.778L1152.68 262.889L1203.28 262.889L1203.28 252.778ZM1294.36 262.889L1264 262.889L1264 273L1294.36 273L1294.36 262.889ZM1456.28 283.111L1456.28 273L1415.8 273L1415.8 283.111L1456.28 283.111Z" fill="white"/>
<path d="M1395.56 10.1111L1395.56 1.68097e-05L1436.04 1.85791e-05L1436.04 10.1111L1395.56 10.1111Z" fill="white"/>
<path d="M1081.84 20.2222L1081.84 10.1111L1132.44 10.1111L1132.44 20.2222L1081.84 20.2222Z" fill="white"/>
<path d="M1213.4 20.2222L1213.4 10.1111L1264 10.1111L1264 20.2222L1213.4 20.2222Z" fill="white"/>
<path d="M1304.48 30.3333L1304.48 20.2222L1365.2 20.2222L1365.2 30.3333L1304.48 30.3333Z" fill="white"/>
<path d="M1152.68 30.3333L1152.68 20.2222L1183.04 20.2222L1183.04 30.3333L1152.68 30.3333Z" fill="white"/>
<path d="M1031.24 30.3333L1031.24 20.2222L1071.72 20.2222L1071.72 30.3333L1031.24 30.3333Z" fill="white"/>
<path d="M1395.56 40.4445L1395.56 30.3333L1456.28 30.3334L1456.28 40.4445L1395.56 40.4445Z" fill="white"/>
<path d="M1183.04 40.4444L1183.04 30.3333L1223.52 30.3333L1223.52 40.4445L1183.04 40.4444Z" fill="white"/>
<path d="M1243.76 50.5556L1243.76 40.4445L1304.48 40.4445L1304.48 50.5556L1243.76 50.5556Z" fill="white"/>
<path d="M1476.52 50.5556L1476.52 40.4445L1517 40.4445L1517 50.5556L1476.52 50.5556Z" fill="white"/>
<path d="M1011 50.5556L1011 40.4444L1031.24 40.4444L1031.24 50.5556L1011 50.5556Z" fill="white"/>
<path d="M1425.92 60.6667L1425.92 50.5556L1466.4 50.5556L1466.4 60.6667L1425.92 60.6667Z" fill="white"/>
<path d="M1041.36 60.6667L1041.36 50.5556L1081.84 50.5556L1081.84 60.6667L1041.36 60.6667Z" fill="white"/>
<path d="M1264 70.7778L1264 60.6667L1324.72 60.6667L1324.72 70.7778L1264 70.7778Z" fill="white"/>
<path d="M1132.44 60.5403L1132.44 50.5556L1213.4 50.5556L1213.4 60.6667L1142.56 60.6667L1142.56 70.6514L1091.96 70.6514L1091.96 60.5403L1132.44 60.5403Z" fill="white"/>
<path d="M1011 80.7625L1011 70.6514L1071.72 70.6514L1071.72 80.7625L1011 80.7625Z" fill="white"/>
<path d="M1203.28 80.7625L1203.28 70.6514L1233.64 70.6514L1233.64 80.7625L1203.28 80.7625Z" fill="white"/>
<path d="M1425.92 80.7625L1375.32 80.7625L1375.32 70.7778L1344.96 70.7778L1344.96 60.6667L1395.56 60.6667L1395.56 70.6514L1425.92 70.6514L1425.92 80.7625Z" fill="white"/>
<path d="M1496.76 80.7625L1496.76 70.7778L1517 70.7778L1517 90.8736L1456.28 90.8736L1456.28 80.7625L1496.76 80.7625Z" fill="white"/>
<path d="M1081.84 91L1081.84 101.111L1011 101.111L1011 91L1051.48 91L1051.48 80.8889L1112.2 80.8889L1112.2 91L1081.84 91Z" fill="white"/>
<path d="M1243.76 111.222L1243.76 101.111L1274.12 101.111L1274.12 111.222L1243.76 111.222Z" fill="white"/>
<path d="M1132.44 111.222L1132.44 101.111L1162.8 101.111L1162.8 91L1213.4 91L1213.4 101.111L1183.04 101.111L1183.04 111.222L1233.64 111.222L1233.64 121.333L1274.12 121.333L1274.12 131.444L1213.4 131.444L1213.4 121.333L1152.68 121.333L1152.68 111.222L1132.44 111.222Z" fill="white"/>
<path d="M1081.84 111.222L1081.84 101.111L1122.32 101.111L1122.32 111.222L1081.84 111.222Z" fill="white"/>
<path d="M1041.36 131.444L1061.6 131.444L1061.6 121.333L1152.68 121.333L1152.68 131.444L1203.28 131.444L1203.28 141.556L1132.44 141.556L1132.44 131.444L1081.84 131.444L1081.84 141.429L1102.08 141.429L1102.08 151.54L1011 151.54L1011 141.429L1021.12 141.429L1021.12 131.444L1011 131.444L1011 111.222L1041.36 111.222L1041.36 131.444Z" fill="white"/>
<path d="M1517 192.111L1587.84 192.111L1587.84 182L1597.96 182L1597.96 171.889L1557.48 171.889L1557.48 182L1517 182L1517 161.778L1537.24 161.778L1537.24 151.667L1577.72 151.667L1577.72 161.778L1608.08 161.778L1608.08 151.667L1739.64 151.667L1739.64 161.778L1719.4 161.778L1719.4 171.889L1780.12 171.889L1780.12 161.778L1759.88 161.778L1759.88 151.667L1800.36 151.667L1800.36 161.778L1840.84 161.778L1840.84 151.667L1891.44 151.667L1891.44 161.778L1901.56 161.778L1901.56 171.889L1942.04 171.889L1942.04 161.778L1921.8 161.778L1921.8 151.667L1992.64 151.667L1992.64 141.556L2023 141.556L2023 151.667L2002.76 151.667L2002.76 161.778L1982.52 161.778L1982.52 171.889L2012.88 171.889L2012.88 161.778L2023 161.778L2023 182L1942.04 182L1942.04 192.111L2023 192.111L2023 364L1517 364L1517 192.111ZM1547.36 242.667L1547.36 252.778L1577.72 252.778L1577.72 242.667L1547.36 242.667ZM1597.96 222.444L1597.96 232.556L1628.32 232.556L1628.32 222.444L1597.96 222.444ZM1567.6 202.222L1567.6 212.333L1668.8 212.333L1668.8 202.222L1567.6 202.222ZM1699.16 171.889L1668.8 171.889L1668.8 161.778L1628.32 161.778L1628.32 171.889L1658.68 171.889L1658.68 182L1699.16 182L1699.16 171.889ZM1881.32 202.222L1881.32 192.111L1850.96 192.111L1850.96 182L1770 182L1770 192.111L1840.84 192.111L1840.84 202.222L1881.32 202.222ZM1800.36 202.222L1709.28 202.222L1709.28 212.333L1800.36 212.333L1800.36 202.222ZM1901.56 212.333L1871.2 212.333L1871.2 222.444L1901.56 222.444L1901.56 212.333ZM1992.64 232.556L1992.64 222.444L1942.04 222.444L1942.04 232.556L1992.64 232.556ZM1861.08 252.778L1861.08 242.667L1810.48 242.667L1810.48 252.778L1861.08 252.778ZM1709.28 252.778L1658.68 252.778L1658.68 262.889L1709.28 262.889L1709.28 252.778ZM1800.36 262.889L1770 262.889L1770 273L1800.36 273L1800.36 262.889ZM1962.28 283.111L1962.28 273L1921.8 273L1921.8 283.111L1962.28 283.111Z" fill="white"/>
<path d="M1901.56 10.1111L1901.56 1.68097e-05L1942.04 1.85791e-05L1942.04 10.1111L1901.56 10.1111Z" fill="white"/>
<path d="M1587.84 20.2222L1587.84 10.1111L1638.44 10.1111L1638.44 20.2222L1587.84 20.2222Z" fill="white"/>
<path d="M1719.4 20.2222L1719.4 10.1111L1770 10.1111L1770 20.2222L1719.4 20.2222Z" fill="white"/>
<path d="M1810.48 30.3333L1810.48 20.2222L1871.2 20.2222L1871.2 30.3333L1810.48 30.3333Z" fill="white"/>
<path d="M1658.68 30.3333L1658.68 20.2222L1689.04 20.2222L1689.04 30.3333L1658.68 30.3333Z" fill="white"/>
<path d="M1537.24 30.3333L1537.24 20.2222L1577.72 20.2222L1577.72 30.3333L1537.24 30.3333Z" fill="white"/>
<path d="M1901.56 40.4445L1901.56 30.3333L1962.28 30.3334L1962.28 40.4445L1901.56 40.4445Z" fill="white"/>
<path d="M1689.04 40.4444L1689.04 30.3333L1729.52 30.3333L1729.52 40.4445L1689.04 40.4444Z" fill="white"/>
<path d="M1749.76 50.5556L1749.76 40.4445L1810.48 40.4445L1810.48 50.5556L1749.76 50.5556Z" fill="white"/>
<path d="M1982.52 50.5556L1982.52 40.4445L2023 40.4445L2023 50.5556L1982.52 50.5556Z" fill="white"/>
<path d="M1517 50.5556L1517 40.4444L1537.24 40.4444L1537.24 50.5556L1517 50.5556Z" fill="white"/>
<path d="M1931.92 60.6667L1931.92 50.5556L1972.4 50.5556L1972.4 60.6667L1931.92 60.6667Z" fill="white"/>
<path d="M1547.36 60.6667L1547.36 50.5556L1587.84 50.5556L1587.84 60.6667L1547.36 60.6667Z" fill="white"/>
<path d="M1770 70.7778L1770 60.6667L1830.72 60.6667L1830.72 70.7778L1770 70.7778Z" fill="white"/>
<path d="M1638.44 60.5403L1638.44 50.5556L1719.4 50.5556L1719.4 60.6667L1648.56 60.6667L1648.56 70.6514L1597.96 70.6514L1597.96 60.5403L1638.44 60.5403Z" fill="white"/>
<path d="M1517 80.7625L1517 70.6514L1577.72 70.6514L1577.72 80.7625L1517 80.7625Z" fill="white"/>
<path d="M1709.28 80.7625L1709.28 70.6514L1739.64 70.6514L1739.64 80.7625L1709.28 80.7625Z" fill="white"/>
<path d="M1931.92 80.7625L1881.32 80.7625L1881.32 70.7778L1850.96 70.7778L1850.96 60.6667L1901.56 60.6667L1901.56 70.6514L1931.92 70.6514L1931.92 80.7625Z" fill="white"/>
<path d="M2002.76 80.7625L2002.76 70.7778L2023 70.7778L2023 90.8736L1962.28 90.8736L1962.28 80.7625L2002.76 80.7625Z" fill="white"/>
<path d="M1587.84 91L1587.84 101.111L1517 101.111L1517 91L1557.48 91L1557.48 80.8889L1618.2 80.8889L1618.2 91L1587.84 91Z" fill="white"/>
<path d="M1749.76 111.222L1749.76 101.111L1780.12 101.111L1780.12 111.222L1749.76 111.222Z" fill="white"/>
<path d="M1638.44 111.222L1638.44 101.111L1668.8 101.111L1668.8 91L1719.4 91L1719.4 101.111L1689.04 101.111L1689.04 111.222L1739.64 111.222L1739.64 121.333L1780.12 121.333L1780.12 131.444L1719.4 131.444L1719.4 121.333L1658.68 121.333L1658.68 111.222L1638.44 111.222Z" fill="white"/>
<path d="M1587.84 111.222L1587.84 101.111L1628.32 101.111L1628.32 111.222L1587.84 111.222Z" fill="white"/>
<path d="M1547.36 131.444L1567.6 131.444L1567.6 121.333L1658.68 121.333L1658.68 131.444L1709.28 131.444L1709.28 141.556L1638.44 141.556L1638.44 131.444L1587.84 131.444L1587.84 141.429L1608.08 141.429L1608.08 151.54L1517 151.54L1517 141.429L1527.12 141.429L1527.12 131.444L1517 131.444L1517 111.222L1547.36 111.222L1547.36 131.444Z" fill="white"/>
</svg>
