<svg xmlns="http://www.w3.org/2000/svg" width="1019" height="244" viewBox="0 0 1019 244">
  <metadata><?xpacket begin="﻿" id="W5M0MpCehiHzreSzNTczkc9d"?>
<x:xmpmeta xmlns:x="adobe:ns:meta/" x:xmptk="Adobe XMP Core 5.6-c140 79.160451, 2017/05/06-01:08:21        ">
   <rdf:RDF xmlns:rdf="http://www.w3.org/1999/02/22-rdf-syntax-ns#">
      <rdf:Description rdf:about=""/>
   </rdf:RDF>
</x:xmpmeta>
                                                                                                    
                                                                                                    
                                                                                                    
                                                                                                    
                                                                                                    
                                                                                                    
                                                                                                    
                                                                                                    
                                                                                                    
                                                                                                    
                                                                                                    
                                                                                                    
                                                                                                    
                                                                                                    
                                                                                                    
                                                                                                    
                                                                                                    
                                                                                                    
                                                                                                    
                                                                                                    
                           
<?xpacket end="w"?></metadata>
<defs>
    <style>
      .cls-1 {
        fill: #f3f5f7;
        fill-rule: evenodd;
      }
    </style>
  </defs>
  <path class="cls-1" d="M550.18,154.369V141.506H536.736V128.641H523.293v25.728H550.18Zm53.774-51.455h26.9V90.049h-26.9v12.865ZM590.51,64.32h13.444V51.457H590.51V64.32ZM550.18,77.186H536.736v25.728H550.18V77.186ZM577.067,64.32H563.623V77.186h13.444V64.32Zm0,51.457H590.51V102.914H577.066v12.863ZM590.51,0H577.067V12.865H590.51V0ZM697.15,51.457H683.707V64.32H697.15V51.457Zm-26.887,77.184V115.777H656.82v12.864h13.443Zm13.444-38.592H656.82v12.865h26.887V90.049Zm-66.3,38.592h13.444V115.777H617.407v12.864ZM656.82,38.594H630.851V51.457H656.82V38.594Zm40.33,77.183h13.444V102.914H697.15v12.863ZM469.5,64.32H456.064V77.186H469.5V64.32ZM429.178,38.594H415.722V51.457h13.456V38.594ZM456.052,64.32V51.457H442.609l0.012,12.863h13.431Zm0-25.726V25.729H442.609l0.012,12.865h13.431ZM415.721,90.049H388.834v12.865h26.887V90.049Zm26.9,0H429.177v25.728h13.444V90.049Zm-26.9,38.592V115.777H402.278v12.864h13.443ZM710.594,77.186h13.443V64.32H710.594V77.186ZM496.4,128.641H482.952v12.865H496.4V128.641Zm-13.444,25.728H469.508v12.865h13.443V154.369Zm26.888-141.5H496.4V25.729h13.444V12.865ZM456.064,128.641H442.621v25.728h13.443V128.641Zm53.775-25.727v25.727h13.454V102.914H509.839Zm-40.331,0H456.064v12.863h13.444V102.914ZM992.3,192.961h13.434V180.1H992.3v12.863Zm-53.774-180.1H925.058V25.729h13.464V12.865Zm40.319,64.32H965.4v25.728h13.454Zm-26.875,25.728H938.522v25.727h13.444V102.914Zm26.887,51.455V141.506H965.409V128.641H951.966v25.728h26.887Zm-53.794-25.728H911.614v12.865h13.465Zm-13.444,25.728H898.171v12.865h13.464ZM375.391,64.32h13.444V51.457H375.391V64.32ZM1019,180.1V167.234h-13.26V180.1H1019ZM898.191,102.914H884.748v12.863h13.443V102.914ZM992.3,154.369v12.865h13.444V154.369H992.3Zm13.434-38.592H1019V102.914h-13.27v12.863ZM1019,0h-13.26l-0.01,12.865H1019V0ZM710.594,0H697.15V12.865h13.444V0ZM1005.74,64.32H992.3V77.186h13.444V64.32ZM884.748,25.729H871.284V38.594h13.464V25.729ZM831.6,154.369h13.456V141.506H831.6v12.863Zm-40.331-12.863h13.444V128.641H791.265v12.865ZM831.6,102.914H818.152v12.863H831.6V102.914ZM750.935,77.186H737.481v25.728h13.454V77.186Zm40.33-64.32H777.822V25.729h13.443V12.865Zm13.444,154.369h13.443V154.369H804.709v12.865Zm93.483-90.048V64.32H884.748V77.186h13.444ZM884.748,51.457H871.284V64.32h13.464V51.457Zm-39.7,64.32h26.232V90.049H858.5v12.865H845.052v12.863Zm39.7,12.864H871.284v25.728h13.464V128.641ZM831.6,64.32H818.152V77.186H831.6V64.32Zm13.456-12.863H831.6V64.32h13.456V51.457ZM388.835,128.641H375.391v38.593h13.444V128.641Zm13.443,12.865v12.863h13.444V141.506H402.278ZM294.719,102.914v25.727h13.444V102.914H294.719ZM348.5,154.369v12.865h13.443V154.369H348.5Zm80.674,0H415.722v12.865h13.456V154.369Zm134.445,38.592h13.444V180.1H563.623v12.863ZM429.188,167.234L429.176,180.1h13.445V167.234H429.188ZM80.245,154.369H66.813v12.865H80.245V154.369Zm0,38.592V180.1H66.813v12.863H80.245ZM13.027,154.369H0v12.865H13.027V154.369Zm94.117-25.728v12.865H93.7v12.863h26.887V128.641H107.144ZM66.813,180.1V167.234H53.37V180.1H66.813Zm67.206-77.184H120.588v25.727h13.431V102.914Zm483.389,38.592v12.863h13.443V141.506H617.408Zm160.414-38.592H764.378v25.727h13.444V102.914Zm-214.2,51.455v12.865h13.444V154.369H563.623ZM617.408,180.1v12.863h13.443V167.234h-26.9V180.1h13.454Zm93.186,0V167.234H697.15V180.1h13.444Zm-308.316,0v12.863h13.444V167.234H388.835V180.1h13.443Zm-26.887-12.864H361.947V180.1h13.444V167.234ZM1019,205.826H992.3V218.69H978.865l-0.024-12.864H992.3V192.961H978.852V167.234H951.965V154.369H938.521v12.865H925.057V180.1H911.613v12.863H898.171V180.1H871.284V167.234H845.052V180.1h26.232v12.863h13.464v12.865H871.284V192.961H845.052V180.1h-26.9v12.863h26.9V218.69H831.6v12.865H818.152V218.69H831.6V205.826H818.152V192.961H804.708v12.865H791.265V218.69H777.821v12.865H764.378V218.69H750.934V205.826h13.444V218.69h13.443V205.826h13.444V192.961h13.443V180.1H791.265V167.234H777.821V154.369H764.378V128.641H750.935v12.865H737.481v12.863h26.9v12.865h-26.9v25.727H724.037V180.1H710.594v12.863h13.443v12.865H737.48V218.69H724.047v12.865H710.6l-0.011-12.865h13.443V205.826H697.148V218.69H683.7v12.865H670.261V218.69H683.7V205.826h13.444V180.1H683.707V167.234H656.82v25.727H630.851v12.865h25.966V218.69H630.849V205.826H617.405V192.961H603.951V180.1H590.51V167.234H577.067V180.1h13.441v25.728H563.642V218.69H550.2l-0.02-12.864h13.444V192.961H550.179V167.234H523.292V154.369H509.838v12.865H496.394V180.1H482.951v12.863H469.508V180.1H442.621v12.863h13.444v12.865H442.621V192.961h-26.9v12.865h13.466V218.69H415.722V205.826H402.278V192.961H388.835V180.1H375.391v25.728H348.517V218.69H335.073l-0.012-12.864h13.444V192.961h13.442V180.1H348.5v12.863H335.061V167.234h-26.9V154.369h26.9V141.506H321.607V128.641H308.163v25.728H294.72v12.865H281.277V180.1H267.833v12.863h13.444v12.865h13.454l-0.012,12.864h13.443v12.865H294.719V218.69H281.275V205.826H267.832V192.961H254.388V180.1h-26.9V167.234H201.259V180.1h26.232v12.863h13.454v12.865H227.491V192.961H201.259V180.1H174.372v12.863h26.887V218.69H187.792v12.865h-13.42V218.69h13.42V205.826h-13.42V192.961H160.928v12.865H147.485V218.69H134.018v12.865H120.6l-0.012-12.865H107.13V205.826h13.456V218.69h13.431V205.826h13.466V192.961h13.444V180.1H147.483V167.234H134.017V154.369H120.588v12.865h-26.9v25.727H80.245v12.865H93.688V218.69H80.245v12.865H66.824L66.812,218.69H80.243V205.826H53.368V180.1H39.914V167.234H53.37V128.641H39.914v38.593H13.027v25.727H26.469v12.865H13.026V192.961H0v12.865H13.015V218.69H0V244H361.946V231.555h13.443V244H577.065V231.555h13.444V244H1005.73V231.555H1019V205.826ZM750.935,180.1h13.443v12.863H750.935V180.1Zm-643.791,0h13.444v12.863H107.144V180.1Zm-80.673,0H39.913v12.863H26.471V180.1ZM53.358,218.69H39.927v12.865H26.483L26.471,218.69H39.9l0.01-12.864H53.358V218.69ZM308.163,180.1h13.444v12.863H308.163V180.1Zm13.454,38.592H308.173l-0.01-12.864h13.454V218.69Zm80.661,12.865H388.835V218.69H375.391V205.826h13.456l-0.012,12.864h13.443v12.865ZM523.292,180.1h13.444v12.863H523.292V180.1Zm-40.34,25.728V192.961h13.442v12.865H482.952Zm40.341,25.729H509.839V218.69H496.4V205.826h13.464l-0.02,12.864h13.454v12.865Zm13.464-12.865H523.313l-0.021-12.864h13.465V218.69Zm80.669,12.865H603.982l-0.02-12.865H590.529l-0.02-12.864h13.463V218.69h13.454v12.865ZM670.263,180.1H683.7v12.863H670.263V180.1ZM656.82,192.961h13.441v12.865H656.82V192.961ZM951.956,180.1H965.4v12.863H951.956V180.1Zm0.009,51.457H938.521V218.69H925.078l-0.02-12.864H911.614V192.961h13.464v12.865h13.443V218.69h13.444v12.865Zm13.457-12.865H951.978l-0.023-12.864h13.467V218.69ZM26.471,141.506H13.027v12.863H26.471V141.506Zm577.483-12.865H590.51v38.593h13.444V128.641Zm66.309,12.865H656.82v12.863h13.443V141.506Zm53.774,12.863H710.594v12.865h13.443V154.369ZM697.15,128.641H683.707v38.593H697.15V128.641Zm-40.33,25.728H630.851v12.865H656.82V154.369Zm-362.1-141.5H281.276V25.729H294.72V12.865ZM254.389,167.234h13.443V154.369H254.389v12.865Zm0-64.32H240.945v12.863h13.444V102.914Zm0-25.728V64.32H240.945V77.186h13.444Zm-26.9,77.183h13.454V128.641H227.491v25.728ZM240.945,51.457H227.491V64.32h13.454V51.457Zm-39.686,64.32h26.232V90.049H214.7v12.865H201.259v12.863ZM361.947,64.32H348.5V77.186h13.443V64.32ZM201.259,51.457H187.793V64.32h13.466V51.457Zm39.686-25.729H227.491V38.594h13.454V25.729ZM335.06,77.186H321.606v25.728H335.06V77.186Zm26.887,38.591h13.444V102.914H361.947v12.863ZM375.391,0H361.947V12.865h13.444V0ZM281.276,128.641H267.832v12.865h13.444V128.641ZM39.914,90.049H13.027v12.865H39.914V90.049ZM53.37,115.777H66.814V102.914H53.37v12.863Zm0-64.32H39.914V64.32H53.37V51.457ZM66.814,0H53.37V12.865H66.814V0Zm0,77.186H80.245V64.32H66.814V77.186ZM13.027,128.641H26.471V115.777H13.027v12.864ZM13.04,38.594H0V51.457H13.04V38.594Zm174.754,64.32H174.372v12.863h13.421V102.914Zm0-38.594H174.372V77.186h13.421V64.32Zm0,90.049h13.466V141.506H187.793v12.863Zm-26.864,12.865h13.443V154.369H160.929v12.865ZM147.485,12.865H134.019V25.729h13.466V12.865Zm0,128.641h13.444V128.641H147.485v12.865Zm-40.341-64.32H93.7v25.728h13.431Z"/>
</svg>
