<svg width="70" height="70" viewBox="0 0 70 70" fill="none" xmlns="http://www.w3.org/2000/svg">
<path d="M49 7V11.6667H55.034L43.3673 23.3333L46.6667 26.6327L58.3333 14.966V21H63V7H49ZM21 7V11.6667H14.966L26.6327 23.3333L23.3333 26.6327L11.6667 14.966V21H7V7H21ZM44.3333 9.33333L35 0L25.6667 9.33333L28.966 12.6327L32.6667 8.93433V23.3333H37.3333V8.93433L41.034 12.6327L44.3333 9.33333ZM49 63V58.3333H55.034L43.3673 46.6667L46.6667 43.3673L58.3333 55.034V49H63V63H49ZM21 63V58.3333H14.966L26.6327 46.6667L23.3333 43.3673L11.6667 55.034V49H7V63H21ZM44.3333 60.6667L35 70L25.6667 60.6667L28.966 57.3673L32.6667 61.0657V46.6667H37.3333V61.0657L41.034 57.3673L44.3333 60.6667ZM9.33333 25.6667L0 35L9.33333 44.3333L12.6327 41.034L8.93433 37.3333H23.3333V32.6667H8.93433L12.6327 28.966L9.33333 25.6667ZM60.6667 25.6667L70 35L60.6667 44.3333L57.3673 41.034L61.0657 37.3333H46.6667V32.6667H61.0657L57.3673 28.966L60.6667 25.6667Z" fill="#F72E5C"/>
</svg>
