<svg width="76" height="70" viewBox="0 0 76 70" fill="none" xmlns="http://www.w3.org/2000/svg">
<path fill-rule="evenodd" clip-rule="evenodd" d="M2.69231 0H72.6923L75.3846 2.69231V67.3077L72.6923 70H2.69231L0 67.3077V2.69231L2.69231 0ZM3.38462 16.1538H72V3.38462H3.38462V16.1538Z" fill="#F72E5C"/>
<path fill-rule="evenodd" clip-rule="evenodd" d="M10.5 12C11.163 12 11.7989 11.7366 12.2678 11.2678C12.7366 10.7989 13 10.163 13 9.5C13 8.83696 12.7366 8.20107 12.2678 7.73223C11.7989 7.26339 11.163 7 10.5 7C9.83696 7 9.20107 7.26339 8.73223 7.73223C8.26339 8.20107 8 8.83696 8 9.5C8 10.163 8.26339 10.7989 8.73223 11.2678C9.20107 11.7366 9.83696 12 10.5 12ZM18 12C18.663 12 19.2989 11.7366 19.7678 11.2678C20.2366 10.7989 20.5 10.163 20.5 9.5C20.5 8.83696 20.2366 8.20107 19.7678 7.73223C19.2989 7.26339 18.663 7 18 7C17.337 7 16.7011 7.26339 16.2322 7.73223C15.7634 8.20107 15.5 8.83696 15.5 9.5C15.5 10.163 15.7634 10.7989 16.2322 11.2678C16.7011 11.7366 17.337 12 18 12ZM25.5 12C26.163 12 26.7989 11.7366 27.2678 11.2678C27.7366 10.7989 28 10.163 28 9.5C28 8.83696 27.7366 8.20107 27.2678 7.73223C26.7989 7.26339 26.163 7 25.5 7C24.837 7 24.2011 7.26339 23.7322 7.73223C23.2634 8.20107 23 8.83696 23 9.5C23 10.163 23.2634 10.7989 23.7322 11.2678C24.2011 11.7366 24.837 12 25.5 12Z" fill="#F72E5C"/>
<path d="M49.9273 25L46.9789 25.8053L42.0161 27.1414L38.793 28.02L35.0022 29.0632L23.7947 32.0832L22 39.1481L26.5966 43.7421L30.076 47.2379L33.3724 43.9068L33.3541 39.6789L39.8918 33.1448L41.1554 34.3893L40.6426 37.8852L42.5105 39.7521L46.0083 39.2396L47.2536 40.5025L40.7159 47.0183L36.4673 47L33.1709 50.2945L35.8446 52.985L40.8624 58L47.9678 56.2795L48.8468 52.985L49.909 49.0682L52.2164 40.4476L53.242 36.6589L55 30.1248L49.9273 25Z" fill="white"/>
</svg>
