<svg width="744" height="244" viewBox="0 0 744 244" fill="none" xmlns="http://www.w3.org/2000/svg">
<path fill-rule="evenodd" clip-rule="evenodd" d="M550.18 154.369V141.506H536.736V128.641H523.293V154.369H550.18ZM603.954 102.914H630.854V90.049H603.954V102.914ZM590.51 64.32H603.954V51.457H590.51V64.32ZM550.18 77.186H536.736V102.914H550.18V77.186ZM577.067 64.32H563.623V77.186H577.067V64.32ZM577.067 115.777H590.51V102.914H577.066V115.777H577.067ZM590.51 0H577.067V12.865H590.51V0ZM697.15 51.457H683.707V64.32H697.15V51.457ZM670.263 128.641V115.777H656.82V128.641H670.263V128.641ZM683.707 90.049H656.82V102.914H683.707V90.049V90.049ZM617.407 128.641H630.851V115.777H617.407V128.641V128.641ZM656.82 38.594H630.851V51.457H656.82V38.594ZM697.15 115.777H710.594V102.914H697.15V115.777V115.777ZM469.5 64.32H456.064V77.186H469.5V64.32ZM429.178 38.594H415.722V51.457H429.178V38.594ZM456.052 64.32V51.457H442.609L442.621 64.32H456.052V64.32ZM456.052 38.594V25.729H442.609L442.621 38.594H456.052V38.594ZM415.721 90.049H388.834V102.914H415.721V90.049ZM442.621 90.049H429.177V115.777H442.621V90.049V90.049ZM415.721 128.641V115.777H402.278V128.641H415.721V128.641ZM710.594 77.186H724.037V64.32H710.594V77.186ZM496.4 128.641H482.952V141.506H496.4V128.641ZM482.956 154.369H469.508V167.234H482.951V154.369H482.956ZM509.844 12.869H496.4V25.729H509.844V12.865V12.869ZM456.064 128.641H442.621V154.369H456.064V128.641V128.641ZM509.839 102.914V128.641H523.293V102.914H509.839V102.914ZM469.508 102.914H456.064V115.777H469.508V102.914V102.914ZM992.3 192.961H1005.73V180.1H992.3V192.963V192.961ZM938.526 12.861H925.058V25.729H938.522V12.865L938.526 12.861ZM978.845 77.181H965.4V102.909H978.854L978.845 77.181ZM951.97 102.909H938.522V128.636H951.966V102.914L951.97 102.909ZM978.857 154.364V141.506H965.409V128.641H951.966V154.369H978.853L978.857 154.364ZM925.063 128.636H911.614V141.501H925.079L925.063 128.636ZM911.619 154.364H898.171V167.229H911.635L911.619 154.364ZM375.391 64.32H388.835V51.457H375.391V64.32ZM1019 180.1V167.234H1005.74V180.1H1019ZM898.191 102.914H884.748V115.777H898.191V102.914ZM992.3 154.369V167.234H1005.74V154.369H992.3ZM1005.73 115.777H1019V102.914H1005.73V115.777H1005.73ZM1019 0H1005.74L1005.73 12.865H1019V0ZM710.594 0H697.15V12.865H710.594V0V0ZM1005.74 64.32H992.3V77.186H1005.74V64.32H1005.74ZM884.748 25.729H871.284V38.594H884.748V25.729ZM831.6 154.369H845.056V141.506H831.6V154.369ZM791.269 141.506H804.713V128.641H791.265V141.506H791.269ZM831.6 102.914H818.152V115.777H831.6V102.914ZM750.935 77.186H737.481V102.914H750.935V77.186ZM791.265 12.866H777.822V25.729H791.265V12.865V12.866ZM804.709 167.235H818.152V154.369H804.709V167.234V167.235ZM898.192 77.187V64.32H884.748V77.186H898.192V77.187ZM884.748 51.457H871.284V64.32H884.748V51.457ZM845.048 115.777H871.28V90.049H858.5V102.914H845.052V115.777H845.048ZM884.748 128.641H871.284V154.369H884.748V128.641ZM831.6 64.32H818.152V77.186H831.6V64.32ZM845.056 51.457H831.6V64.32H845.056V51.457V51.457ZM388.835 128.641H375.391V167.234H388.835V128.641V128.641ZM402.278 141.506V154.369H415.722V141.506H402.278V141.506ZM294.719 102.914V128.641H308.163V102.914H294.719ZM348.5 154.369V167.234H361.943V154.369H348.5ZM429.174 154.369H415.722V167.234H429.178V154.369H429.174ZM563.619 192.961H577.063V180.1H563.623V192.963L563.619 192.961ZM429.188 167.234L429.176 180.1H442.621V167.234H429.188ZM80.245 154.369H66.813V167.234H80.245V154.369ZM80.245 192.961V180.1H66.813V192.963H80.245V192.961ZM13.027 154.369H0V167.234H13.027V154.369ZM107.144 128.641V141.506H93.7V154.369H120.587V128.641H107.144ZM66.813 180.1V167.234H53.37V180.1H66.813ZM134.019 102.916H120.588V128.643H134.019V102.914V102.916ZM617.408 141.508V154.371H630.851V141.506H617.408V141.508ZM777.822 102.916H764.378V128.643H777.822V102.914V102.916ZM563.622 154.371V167.236H577.066V154.369H563.623L563.622 154.371ZM617.408 180.1V192.963H630.851V167.234H603.951V180.1H617.405H617.408ZM710.594 180.1V167.234H697.15V180.1H710.594V180.1ZM402.278 180.1V192.963H415.722V167.234H388.835V180.1H402.278V180.1ZM375.391 167.236H361.947V180.1H375.391V167.234V167.236ZM1019 205.826H992.3V218.69H978.865L978.841 205.826H992.3V192.961H978.852V167.234H951.965V154.369H938.521V167.234H925.057V180.1H911.613V192.963H898.171V180.1H871.284V167.234H845.052V180.1H871.284V192.963H884.748V205.828H871.284V192.961H845.052V180.1H818.152V192.963H845.052V218.69H831.6V231.555H818.152V218.69H831.6V205.826H818.152V192.961H804.708V205.826H791.265V218.69H777.821V231.555H764.378V218.69H750.934V205.826H764.378V218.69H777.821V205.826H791.265V192.961H804.708V180.1H791.265V167.234H777.821V154.369H764.378V128.641H750.935V141.506H737.481V154.369H764.381V167.234H737.481V192.961H724.037V180.1H710.594V192.963H724.037V205.828H737.48V218.69H724.047V231.555H710.6L710.589 218.69H724.032V205.826H697.148V218.69H683.7V231.555H670.261V218.69H683.7V205.826H697.144V180.1H683.707V167.234H656.82V192.961H630.851V205.826H656.817V218.69H630.849V205.826H617.405V192.961H603.951V180.1H590.51V167.234H577.067V180.1H590.508V205.828H563.642V218.69H550.2L550.18 205.826H563.624V192.961H550.179V167.234H523.292V154.369H509.838V167.234H496.394V180.1H482.951V192.963H469.508V180.1H442.621V192.963H456.065V205.828H442.621V192.961H415.721V205.826H429.187V218.69H415.722V205.826H402.278V192.961H388.835V180.1H375.391V205.828H348.517V218.69H335.073L335.061 205.826H348.505V192.961H361.947V180.1H348.5V192.963H335.061V167.234H308.161V154.369H335.061V141.506H321.607V128.641H308.163V154.369H294.72V167.234H281.277V180.1H267.833V192.963H281.277V205.828H294.731L294.719 218.692H308.162V231.557H294.719V218.69H281.275V205.826H267.832V192.961H254.388V180.1H227.488V167.234H201.259V180.1H227.491V192.963H240.945V205.828H227.491V192.961H201.259V180.1H174.372V192.963H201.259V218.69H187.792V231.555H174.372V218.69H187.792V205.826H174.372V192.961H160.928V205.826H147.485V218.69H134.018V231.555H120.6L120.588 218.69H107.13V205.826H120.586V218.69H134.017V205.826H147.483V192.961H160.927V180.1H147.483V167.234H134.017V154.369H120.588V167.234H93.688V192.961H80.245V205.826H93.688V218.69H80.245V231.555H66.824L66.812 218.69H80.243V205.826H53.368V180.1H39.914V167.234H53.37V128.641H39.914V167.234H13.027V192.961H26.469V205.826H13.026V192.961H0V205.826H13.015V218.69H0V244H361.946V231.555H375.389V244H577.065V231.555H590.509V244H1005.73V231.555H1019V205.826ZM750.935 180.1H764.378V192.963H750.935V180.1ZM107.144 180.1H120.588V192.963H107.144V180.1V180.1ZM26.471 180.1H39.913V192.963H26.471V180.1V180.1ZM53.358 218.69H39.927V231.555H26.483L26.471 218.69H39.9L39.91 205.826H53.358V218.69ZM308.163 180.1H321.607V192.963H308.163V180.1ZM321.617 218.692H308.173L308.163 205.828H321.617V218.69V218.692ZM402.278 231.557H388.835V218.69H375.391V205.826H388.847L388.835 218.69H402.278V231.555V231.557ZM523.292 180.1H536.736V192.963H523.292V180.1ZM482.952 205.828V192.961H496.394V205.826H482.952V205.828ZM523.293 231.557H509.839V218.69H496.4V205.826H509.864L509.844 218.69H523.298V231.555L523.293 231.557ZM536.757 218.692H523.313L523.292 205.828H536.757V218.69V218.692ZM617.426 231.557H603.982L603.962 218.692H590.529L590.509 205.828H603.972V218.69H617.426V231.555V231.557ZM670.263 180.1H683.7V192.963H670.263V180.1ZM656.82 192.961H670.261V205.826H656.82V192.961ZM951.956 180.1H965.4V192.963H951.956V180.1ZM951.965 231.557H938.521V218.69H925.078L925.058 205.826H911.614V192.961H925.078V205.826H938.521V218.69H951.965V231.555V231.557ZM965.422 218.692H951.978L951.955 205.828H965.422V218.69V218.692ZM26.471 141.506H13.027V154.369H26.471V141.506ZM603.954 128.641H590.51V167.234H603.954V128.641ZM670.263 141.506H656.82V154.369H670.263V141.506V141.506ZM724.037 154.369H710.594V167.234H724.037V154.369V154.369ZM697.15 128.641H683.707V167.234H697.15V128.641ZM656.82 154.369H630.851V167.234H656.82V154.369V154.369ZM294.72 12.869H281.276V25.729H294.72V12.865V12.869ZM254.389 167.234H267.832V154.369H254.389V167.234ZM254.389 102.914H240.945V115.777H254.389V102.914V102.914ZM254.389 77.186V64.32H240.945V77.186H254.389V77.186ZM227.489 154.369H240.943V128.641H227.491V154.369H227.489ZM240.945 51.457H227.491V64.32H240.945V51.457V51.457ZM201.259 115.777H227.491V90.049H214.7V102.914H201.259V115.777V115.777ZM361.947 64.32H348.5V77.186H361.943V64.32H361.947ZM201.259 51.457H187.793V64.32H201.259V51.457V51.457ZM240.945 25.728H227.491V38.594H240.945V25.729V25.728ZM335.06 77.186H321.606V102.914H335.06V77.186ZM361.947 115.777H375.391V102.914H361.947V115.777V115.777ZM375.391 0H361.947V12.865H375.391V0ZM281.276 128.641H267.832V141.506H281.276V128.641ZM39.914 90.049H13.027V102.914H39.914V90.049ZM53.37 115.777H66.814V102.914H53.37V115.777ZM53.37 51.457H39.914V64.32H53.37V51.457V51.457ZM66.814 0H53.37V12.865H66.814V0ZM66.814 77.186H80.245V64.32H66.814V77.186ZM13.027 128.641H26.471V115.777H13.027V128.641ZM13.04 38.594H0V51.457H13.04V38.594ZM187.794 102.914H174.372V115.777H187.793V102.914H187.794ZM187.794 64.32H174.372V77.186H187.793V64.32H187.794ZM187.794 154.369H201.26V141.506H187.793V154.369H187.794ZM160.93 167.234H174.373V154.369H160.929V167.234H160.93ZM147.485 12.865H134.019V25.729H147.485V12.865ZM147.485 141.506H160.929V128.641H147.485V141.506ZM107.144 77.186H93.7V102.914H107.131L107.144 77.186Z" fill="white"/>
</svg>
