<svg width="182" height="210" viewBox="0 0 182 210" fill="none" xmlns="http://www.w3.org/2000/svg">
<path d="M36.3745 157.504L18.1873 147.013L36.3745 136.503V115.501V94.4992V73.4975L54.5618 84.0072L36.3745 73.4975L54.5618 63.0055L72.7491 73.4975L90.9363 84.0072V63.0055V42.0037V21.002L109.124 31.4939L90.9363 21.002L109.124 10.4922L90.9363 21.002L72.7491 31.4939L54.5618 42.0037L36.3745 52.4957L18.1873 63.0055V84.0072V105.009V126.011V147.013V167.996V147.013L36.3745 157.504Z" fill="#F96D8D"/>
<path d="M54.5618 167.996L36.3745 157.504L54.5618 147.013V126.011V147.013L36.3745 157.504V178.506V157.504L54.5618 167.996Z" fill="#1E1E1E"/>
<path d="M72.749 178.506L54.5618 167.996L72.749 157.504V136.502V157.504L54.5618 167.996V188.998V167.996L72.749 178.506Z" fill="#1E1E1E"/>
<path d="M90.9363 189.016L72.749 178.506L90.9363 168.014L109.124 157.504L127.311 147.012L145.498 136.502L127.311 147.012L109.124 157.504L90.9363 167.996V168.014L72.749 178.506V199.508V178.506L90.9363 189.016Z" fill="#1E1E1E"/>
<path d="M145.498 115.501V94.4988V73.4971L127.311 84.0069L109.124 94.4988L90.9365 105.009V126.01V147.012V167.996L109.124 157.504L127.311 147.012L145.498 136.502V115.501Z" fill="#F96D8D"/>
<path d="M72.749 73.4971L54.5618 84.0069V105.009V84.0069L72.749 94.4988L54.5618 84.0069L72.749 73.4971Z" fill="#1E1E1E"/>
<path d="M90.9363 84.0073L72.749 94.4993V115.501V94.4993L90.9363 105.009L72.749 94.4993L90.9363 84.0073Z" fill="#1E1E1E"/>
<path d="M109.124 52.4957V31.4939L127.311 42.0037L109.124 31.4939L127.311 21.002L109.124 31.4939V52.4957Z" fill="#1E1E1E"/>
<path d="M127.311 63.0057V42.0039L145.498 52.4959L127.311 42.0039L145.498 31.4941L127.311 42.0039V63.0057Z" fill="#1E1E1E"/>
<path d="M145.498 73.4971V52.5132L163.686 63.0052L145.498 52.5132L163.686 42.0034L145.498 52.4954V52.5132V73.4971Z" fill="#1E1E1E"/>
<path d="M181.873 52.5132L163.686 63.0052V84.0069V105.009V126.01V147.012L145.498 157.504L127.311 168.014L109.124 178.506L90.9365 189.016V210L109.124 199.508L127.311 189.016L145.498 178.506L163.686 168.014V167.996L181.873 157.504V136.502V115.501V94.4989V73.4971V52.5132Z" fill="#F96D8D"/>
<path fill-rule="evenodd" clip-rule="evenodd" d="M54.5618 84.0064V84.0071L72.7489 94.499V94.4984L90.9362 105.008V126.01V147.012V167.996L72.749 157.504V157.504L54.5617 147.012V147.012L36.3745 136.502V115.5V94.4983V73.4966L54.5618 84.0064Z" fill="#FB97AE"/>
<path d="M54.5618 147.012L36.3745 157.504L54.5618 147.012Z" fill="#5E5E5E"/>
<path d="M72.749 157.504L54.5618 167.996L72.749 157.504Z" fill="#5E5E5E"/>
<path d="M90.9363 168.014V167.997L72.749 178.506L90.9363 168.014Z" fill="#5E5E5E"/>
<path d="M163.686 147.012L145.498 157.504L163.686 147.012Z" fill="#5E5E5E"/>
<path d="M145.498 157.504L127.311 168.014L145.498 157.504Z" fill="#5E5E5E"/>
<path d="M127.311 168.014L109.124 178.506L127.311 168.014Z" fill="#5E5E5E"/>
<path d="M109.124 178.506L90.9365 189.016L109.124 178.506Z" fill="#5E5E5E"/>
<path fill-rule="evenodd" clip-rule="evenodd" d="M18.1873 126.011V105.009V84.0071V63.0054L0 52.4956V73.4974V94.4991V115.501V136.503V157.504L18.1873 167.996V167.996L36.3745 178.505V157.504L18.1873 147.012V126.011ZM36.3746 157.504L54.5619 167.996V167.996L72.749 178.506L72.7491 178.506L90.9363 189.015V209.999L72.7491 199.508L72.749 199.507L54.5618 189.016V188.998L54.5619 188.998L36.3746 178.506V157.504Z" fill="#FB97AE"/>
<path d="M145.498 73.4971L127.311 84.0069L145.498 73.4971Z" fill="#5E5E5E"/>
<path d="M127.311 84.0073L109.124 94.4993L127.311 84.0073Z" fill="#5E5E5E"/>
<path d="M109.124 94.4985L90.9365 105.008L109.124 94.4985Z" fill="#5E5E5E"/>
<path d="M90.9363 21.002L72.749 31.4939L90.9363 21.002Z" fill="#5E5E5E"/>
<path d="M72.749 31.4941L54.5618 42.0039L72.749 31.4941Z" fill="#5E5E5E"/>
<path d="M54.5618 42.0034L36.3745 52.4954L54.5618 42.0034Z" fill="#5E5E5E"/>
<path d="M36.3745 52.4961L18.1873 63.0059L36.3745 52.4961Z" fill="#5E5E5E"/>
<path fill-rule="evenodd" clip-rule="evenodd" d="M109.124 73.497L90.9365 84.0067V63.005V42.0032V21.0015L109.124 31.4934V31.4937L127.311 42.0034V42.0033L145.498 52.4953V52.5131V73.497L127.311 63.0051V63.0052L109.124 73.4972V73.497ZM145.498 94.4986V73.4968V52.5129L163.686 63.0049V84.0066V105.008V126.01V147.012L145.498 136.502V115.5V94.4986Z" fill="#FB97AE"/>
<path fill-rule="evenodd" clip-rule="evenodd" d="M18.1873 147.012L36.3745 157.504L36.3748 157.504L54.5619 167.996L72.7492 157.504L54.5619 147.012L54.5617 147.012L36.3745 136.502L18.1873 147.012ZM72.7492 178.506L54.5619 167.996L72.7492 157.504L90.9364 167.996L72.7492 178.506Z" fill="#FDC0CE"/>
<path d="M145.498 136.502L127.311 147.012L109.124 157.504L90.9363 168.014L72.749 178.506L90.9363 189.016L109.124 178.506L127.311 168.014L145.498 157.504L163.685 147.012L145.498 136.502Z" fill="#FDC0CE"/>
<path d="M54.5618 84.0069L72.749 73.4971L90.9363 84.0069L72.749 73.4971L54.5618 84.0069Z" fill="#939393"/>
<path d="M90.9363 84.0069L109.124 73.4971L90.9363 84.0069L72.749 94.4988L90.9363 84.0069Z" fill="#939393"/>
<path fill-rule="evenodd" clip-rule="evenodd" d="M36.3745 52.4955L54.5618 42.0035L72.7491 31.4937L90.9364 21.0018L109.124 10.492L90.9364 0L72.7491 10.492L54.5618 21.0018L36.3745 31.4937L18.1873 42.0035L0 52.4955L18.1873 63.0053L36.3745 52.4955ZM127.311 21.002L145.498 31.4938L145.498 31.494L163.685 42.0038L163.686 42.0037L181.873 52.5134L163.686 63.0054L145.498 52.5134L163.6 42.053L145.498 52.4958L127.311 42.0038L127.311 42.0036L109.124 31.494L109.124 31.4938L90.9364 21.002L109.124 10.4922L127.311 21.0019L127.311 21.0018L127.311 21.002Z" fill="#FDC0CE"/>
<path fill-rule="evenodd" clip-rule="evenodd" d="M72.749 94.4985L54.5623 84.0068L54.5618 84.0071L36.3745 73.4973L54.5618 63.0054L72.7485 73.497L72.749 73.4967L90.9363 84.0065L72.749 94.4985ZM72.7489 94.4991L90.9362 84.0071L109.123 73.4973L127.311 63.0054L145.498 73.4973L127.311 84.0071L109.123 94.4991L90.9362 105.009L72.7489 94.4991Z" fill="#FDC0CE"/>
</svg>
