<svg width="317" height="345" viewBox="0 0 317 345" fill="none" xmlns="http://www.w3.org/2000/svg">
<path d="M192.013 125L182.721 127.538L167.081 131.749L156.923 134.517L144.977 137.805L109.656 147.323L104 169.588L118.486 184.066L129.452 195.083L139.84 184.585L139.782 171.261L160.386 150.668L164.368 154.591L162.752 165.608L168.639 171.491L179.663 169.876L183.587 173.856L162.983 194.391L149.594 194.333L139.205 204.716L147.632 213.195L163.445 229L185.838 223.578L188.608 213.195L191.956 200.851L199.228 173.683L202.459 161.743L208 141.151L192.013 125Z" fill="#EC83AB"/>
<path d="M306.033 82.6883L283.986 75.1369C283.72 75.0456 283.363 75 283.006 75C282.649 75 282.293 75.0456 282.027 75.1369L259.98 82.6883C259.441 82.8709 259 83.4969 259 84.0708V115.528C259 116.102 259.37 116.858 259.818 117.217L282.182 134.733C282.409 134.909 282.701 135 283 135C283.298 135 283.597 134.909 283.817 134.733L306.182 117.217C306.63 116.865 307 116.109 307 115.528V84.0708C307.013 83.4969 306.572 82.8774 306.033 82.6883ZM290.455 107.736C287.308 110.898 282.474 111.335 278.867 109.046L273.839 114.1C273.741 114.197 273.609 114.252 273.472 114.252C273.335 114.252 273.203 114.197 273.105 114.1L270.899 111.883C270.803 111.785 270.749 111.652 270.749 111.515C270.749 111.377 270.803 111.244 270.899 111.146L275.928 106.092C273.65 102.46 274.085 97.6084 277.232 94.4457C280.885 90.7744 286.802 90.7744 290.455 94.4457C294.108 98.1171 294.108 104.064 290.455 107.736ZM280.168 104.784C280.65 105.275 281.223 105.665 281.855 105.933C282.487 106.201 283.166 106.34 283.852 106.342C284.538 106.345 285.217 106.211 285.852 105.949C286.486 105.686 287.062 105.3 287.547 104.812C288.032 104.325 288.416 103.746 288.677 103.108C288.939 102.471 289.072 101.788 289.069 101.098C289.066 100.409 288.928 99.7268 288.661 99.0915C288.395 98.4562 288.006 97.8801 287.518 97.3965C287.036 96.9052 286.463 96.5145 285.831 96.247C285.199 95.9794 284.52 95.8403 283.834 95.8376C283.148 95.8349 282.469 95.9688 281.834 96.2314C281.2 96.494 280.624 96.8801 280.139 97.3676C279.654 97.8551 279.27 98.4343 279.009 99.0718C278.747 99.7092 278.614 100.392 278.617 101.082C278.62 101.771 278.758 102.453 279.025 103.088C279.291 103.724 279.68 104.3 280.168 104.784Z" fill="#EC83AB"/>
<path d="M54.033 219.688L31.9861 212.137C31.7201 212.046 31.3632 212 31.0063 212C30.6495 212 30.2926 212.046 30.0266 212.137L7.97972 219.688C7.4412 219.871 7 220.497 7 221.071V252.528C7 253.102 7.36983 253.858 7.81751 254.217L30.1823 271.733C30.4094 271.909 30.7014 272 30.9999 272C31.2983 272 31.5968 271.909 31.8174 271.733L54.1822 254.217C54.6299 253.865 54.9997 253.109 54.9997 252.528V221.071C55.0127 220.497 54.5715 219.877 54.033 219.688ZM38.4548 244.736C35.308 247.898 30.4743 248.335 26.8669 246.046L21.8385 251.1C21.741 251.197 21.6092 251.252 21.4719 251.252C21.3346 251.252 21.2029 251.197 21.1054 251.1L18.8994 248.883C18.8028 248.785 18.7486 248.652 18.7486 248.515C18.7486 248.377 18.8028 248.244 18.8994 248.146L23.9277 243.092C21.6504 239.46 22.0851 234.608 25.2318 231.446C28.8847 227.774 34.8019 227.774 38.4548 231.446C42.1077 235.117 42.1077 241.064 38.4548 244.736ZM28.1684 241.784C28.6496 242.275 29.2228 242.665 29.855 242.933C30.4872 243.201 31.1658 243.34 31.8517 243.342C32.5376 243.345 33.2173 243.211 33.8515 242.949C34.4857 242.686 35.0619 242.3 35.547 241.812C36.032 241.325 36.4161 240.746 36.6774 240.108C36.9386 239.471 37.0717 238.788 37.0689 238.098C37.0662 237.409 36.9277 236.727 36.6615 236.092C36.3952 235.456 36.0064 234.88 35.5176 234.396C35.0364 233.905 34.4632 233.515 33.831 233.247C33.1988 232.979 32.5202 232.84 31.8343 232.838C31.1484 232.835 30.4687 232.969 29.8345 233.231C29.2003 233.494 28.6241 233.88 28.1391 234.368C27.6541 234.855 27.2699 235.434 27.0086 236.072C26.7474 236.709 26.6143 237.392 26.6171 238.082C26.6198 238.771 26.7583 239.453 27.0245 240.088C27.2908 240.724 27.6796 241.3 28.1684 241.784Z" fill="#EC83AB"/>
<path fill-rule="evenodd" clip-rule="evenodd" d="M0 75H67.2V135H0V75ZM61.6 129.545V88.6364H5.6V129.545H61.6ZM46.326 100.964L34.7256 110.725C32.8356 110.348 30.8028 110.91 29.4224 112.41C27.3644 114.657 27.5604 118.105 29.8676 120.112C32.172 122.119 35.714 121.925 37.7748 119.681C39.1524 118.178 39.4996 116.146 38.9004 114.36L47.6 102.068L46.326 100.964ZM19.6 118.636H11.2C11.2 106.595 21.238 96.8182 33.6 96.8182C36.8564 96.8182 39.9532 97.4973 42.7476 98.7164L34.9356 105.06L33.6 105C25.8748 105 19.6 111.109 19.6 118.636ZM56 118.636H47.6C47.6 116.28 46.9868 114.065 45.906 112.132L50.7472 104.602C54.0232 108.398 56 113.294 56 118.636Z" fill="#EC83AB"/>
<path fill-rule="evenodd" clip-rule="evenodd" d="M249 212H316.2V272H249V212ZM310.6 266.545V225.636H254.6V266.545H310.6ZM295.326 237.964L283.726 247.725C281.836 247.348 279.803 247.91 278.422 249.41C276.364 251.657 276.56 255.105 278.868 257.112C281.172 259.119 284.714 258.925 286.775 256.681C288.152 255.178 288.5 253.146 287.9 251.36L296.6 239.068L295.326 237.964ZM268.6 255.636H260.2C260.2 243.595 270.238 233.818 282.6 233.818C285.856 233.818 288.953 234.497 291.748 235.716L283.936 242.06L282.6 242C274.875 242 268.6 248.109 268.6 255.636ZM305 255.636H296.6C296.6 253.28 295.987 251.065 294.906 249.132L299.747 241.602C303.023 245.398 305 250.294 305 255.636Z" fill="#EC83AB"/>
<path fill-rule="evenodd" clip-rule="evenodd" d="M192 0H126V45H192V0ZM155.288 34.998H155.291L177.099 13.254L172.843 9.00903L155.291 26.517L145.256 16.509L141 20.748L155.288 34.998Z" fill="#EC83AB"/>
<rect x="154" y="45" width="10" height="10" fill="#EC83AB"/>
<rect x="147" y="61" width="6" height="25" transform="rotate(-90 147 61)" fill="#EC83AB"/>
<path fill-rule="evenodd" clip-rule="evenodd" d="M192 284H126V329H192V284ZM155.288 318.998H155.291L177.099 297.254L172.843 293.009L155.291 310.517L145.256 300.509L141 304.748L155.288 318.998Z" fill="#EC83AB"/>
<rect x="154" y="329" width="10" height="10" fill="#EC83AB"/>
<rect x="147" y="345" width="6" height="25" transform="rotate(-90 147 345)" fill="#EC83AB"/>
<line x1="158.25" y1="98" x2="158.25" y2="72" stroke="#EC83AB" stroke-width="1.5"/>
<line x1="159.25" y1="273" x2="159.25" y2="247" stroke="#EC83AB" stroke-width="1.5"/>
<line x1="221.61" y1="139.878" x2="243.819" y2="126.359" stroke="#EC83AB" stroke-width="1.5"/>
<line x1="71.6052" y1="225.362" x2="92.6052" y2="212.362" stroke="#EC83AB" stroke-width="1.5"/>
<line x1="243.664" y1="223.672" x2="224.624" y2="212.649" stroke="#EC83AB" stroke-width="1.5"/>
<line x1="96.5588" y1="136.838" x2="77.6184" y2="125.646" stroke="#EC83AB" stroke-width="1.5"/>
<path d="M109.197 115.743L158.5 97.7981L207.803 115.743L234.037 161.181L224.926 212.851L184.734 246.576H132.266L92.0742 212.851L82.9634 161.181L109.197 115.743Z" stroke="#EC83AB" stroke-width="1.5"/>
</svg>
