<svg width="351" height="372" viewBox="0 0 351 372" fill="none" xmlns="http://www.w3.org/2000/svg">
<path d="M330.033 95.6883L307.986 88.1369C307.72 88.0456 307.363 88 307.006 88C306.649 88 306.293 88.0456 306.027 88.1369L283.98 95.6883C283.441 95.8709 283 96.4969 283 97.0708V128.528C283 129.102 283.37 129.858 283.818 130.217L306.182 147.733C306.409 147.909 306.701 148 307 148C307.298 148 307.597 147.909 307.817 147.733L330.182 130.217C330.63 129.865 331 129.109 331 128.528V97.0708C331.013 96.4969 330.572 95.8774 330.033 95.6883ZM314.455 120.736C311.308 123.898 306.474 124.335 302.867 122.046L297.839 127.1C297.741 127.197 297.609 127.252 297.472 127.252C297.335 127.252 297.203 127.197 297.105 127.1L294.899 124.883C294.803 124.785 294.749 124.652 294.749 124.515C294.749 124.377 294.803 124.244 294.899 124.146L299.928 119.092C297.65 115.46 298.085 110.608 301.232 107.446C304.885 103.774 310.802 103.774 314.455 107.446C318.108 111.117 318.108 117.064 314.455 120.736ZM304.168 117.784C304.65 118.275 305.223 118.665 305.855 118.933C306.487 119.201 307.166 119.34 307.852 119.342C308.538 119.345 309.217 119.211 309.852 118.949C310.486 118.686 311.062 118.3 311.547 117.812C312.032 117.325 312.416 116.746 312.677 116.108C312.939 115.471 313.072 114.788 313.069 114.098C313.066 113.409 312.928 112.727 312.661 112.092C312.395 111.456 312.006 110.88 311.518 110.396C311.036 109.905 310.463 109.515 309.831 109.247C309.199 108.979 308.52 108.84 307.834 108.838C307.148 108.835 306.469 108.969 305.834 109.231C305.2 109.494 304.624 109.88 304.139 110.368C303.654 110.855 303.27 111.434 303.009 112.072C302.747 112.709 302.614 113.392 302.617 114.082C302.62 114.771 302.758 115.453 303.025 116.088C303.291 116.724 303.68 117.3 304.168 117.784Z" fill="#EC83AB"/>
<path d="M66.033 230.688L43.9861 223.137C43.7201 223.046 43.3632 223 43.0063 223C42.6495 223 42.2926 223.046 42.0266 223.137L19.9797 230.688C19.4412 230.871 19 231.497 19 232.071V263.528C19 264.102 19.3698 264.858 19.8175 265.217L42.1823 282.733C42.4094 282.909 42.7014 283 42.9999 283C43.2983 283 43.5968 282.909 43.8174 282.733L66.1822 265.217C66.6299 264.865 66.9997 264.109 66.9997 263.528V232.071C67.0127 231.497 66.5715 230.877 66.033 230.688ZM50.4548 255.736C47.308 258.898 42.4743 259.335 38.8669 257.046L33.8385 262.1C33.741 262.197 33.6092 262.252 33.4719 262.252C33.3346 262.252 33.2029 262.197 33.1054 262.1L30.8994 259.883C30.8028 259.785 30.7486 259.652 30.7486 259.515C30.7486 259.377 30.8028 259.244 30.8994 259.146L35.9277 254.092C33.6504 250.46 34.0851 245.608 37.2318 242.446C40.8847 238.774 46.8019 238.774 50.4548 242.446C54.1077 246.117 54.1077 252.064 50.4548 255.736ZM40.1684 252.784C40.6496 253.275 41.2228 253.665 41.855 253.933C42.4872 254.201 43.1658 254.34 43.8517 254.342C44.5376 254.345 45.2173 254.211 45.8515 253.949C46.4857 253.686 47.0619 253.3 47.547 252.812C48.032 252.325 48.4161 251.746 48.6774 251.108C48.9386 250.471 49.0717 249.788 49.0689 249.098C49.0662 248.409 48.9277 247.727 48.6615 247.092C48.3952 246.456 48.0064 245.88 47.5176 245.396C47.0364 244.905 46.4632 244.515 45.831 244.247C45.1988 243.979 44.5202 243.84 43.8343 243.838C43.1484 243.835 42.4687 243.969 41.8345 244.231C41.2003 244.494 40.6241 244.88 40.1391 245.368C39.6541 245.855 39.2699 246.434 39.0086 247.072C38.7474 247.709 38.6143 248.392 38.6171 249.082C38.6198 249.771 38.7583 250.453 39.0245 251.088C39.2908 251.724 39.6796 252.3 40.1684 252.784Z" fill="#EC83AB"/>
<path fill-rule="evenodd" clip-rule="evenodd" d="M0 88H67.2V148H0V88ZM61.6 142.545V101.636H5.6V142.545H61.6ZM46.326 113.964L34.7256 123.725C32.8356 123.348 30.8028 123.91 29.4224 125.41C27.3644 127.657 27.5604 131.105 29.8676 133.112C32.172 135.119 35.714 134.925 37.7748 132.681C39.1524 131.178 39.4996 129.146 38.9004 127.36L47.6 115.068L46.326 113.964ZM19.6 131.636H11.2C11.2 119.595 21.238 109.818 33.6 109.818C36.8564 109.818 39.9532 110.497 42.7476 111.716L34.9356 118.06L33.6 118C25.8748 118 19.6 124.109 19.6 131.636ZM56 131.636H47.6C47.6 129.28 46.9868 127.065 45.906 125.132L50.7472 117.602C54.0232 121.398 56 126.294 56 131.636Z" fill="#EC83AB"/>
<path fill-rule="evenodd" clip-rule="evenodd" d="M283 216H350.2V276H283V216ZM344.6 270.545V229.636H288.6V270.545H344.6ZM329.326 241.964L317.726 251.725C315.836 251.348 313.803 251.91 312.422 253.41C310.364 255.657 310.56 259.105 312.868 261.112C315.172 263.119 318.714 262.925 320.775 260.681C322.152 259.178 322.5 257.146 321.9 255.36L330.6 243.068L329.326 241.964ZM302.6 259.636H294.2C294.2 247.595 304.238 237.818 316.6 237.818C319.856 237.818 322.953 238.497 325.748 239.716L317.936 246.06L316.6 246C308.875 246 302.6 252.109 302.6 259.636ZM339 259.636H330.6C330.6 257.28 329.987 255.065 328.906 253.132L333.747 245.602C337.023 249.398 339 254.294 339 259.636Z" fill="#EC83AB"/>
<path fill-rule="evenodd" clip-rule="evenodd" d="M208 0H142V45H208V0ZM171.288 34.998H171.291L193.099 13.254L188.843 9.00903L171.291 26.517L161.256 16.509L157 20.748L171.288 34.998Z" fill="#EC83AB"/>
<rect x="170" y="45" width="10" height="10" fill="#EC83AB"/>
<rect x="163" y="61" width="6" height="25" transform="rotate(-90 163 61)" fill="#EC83AB"/>
<path fill-rule="evenodd" clip-rule="evenodd" d="M208 311H142V356H208V311ZM171.288 345.998H171.291L193.099 324.254L188.843 320.009L171.291 337.517L161.256 327.509L157 331.748L171.288 345.998Z" fill="#EC83AB"/>
<rect x="170" y="356" width="10" height="10" fill="#EC83AB"/>
<rect x="163" y="372" width="6" height="25" transform="rotate(-90 163 372)" fill="#EC83AB"/>
<line x1="174.25" y1="113" x2="174.25" y2="87" stroke="#EC83AB" stroke-width="1.5" stroke-dasharray="3 3"/>
<line x1="174.25" y1="289" x2="174.25" y2="263" stroke="#EC83AB" stroke-width="1.5" stroke-dasharray="3 3"/>
<line x1="239.61" y1="148.878" x2="261.819" y2="135.359" stroke="#EC83AB" stroke-width="1.5" stroke-dasharray="3 3"/>
<line x1="87.6052" y1="235.362" x2="108.605" y2="222.362" stroke="#EC83AB" stroke-width="1.5" stroke-dasharray="3 3"/>
<line x1="261.664" y1="234.672" x2="242.624" y2="223.649" stroke="#EC83AB" stroke-width="1.5" stroke-dasharray="3 3"/>
<line x1="108.559" y1="148.838" x2="89.6184" y2="137.646" stroke="#EC83AB" stroke-width="1.5" stroke-dasharray="3 3"/>
<circle cx="174" cy="188" r="74.25" stroke="#EC83AB" stroke-width="1.5" stroke-dasharray="2 2"/>
<path d="M202.395 147L195.069 149.001L182.737 152.321L174.728 154.504L165.309 157.097L137.459 164.601L133 182.156L144.422 193.571L153.068 202.258L161.259 193.981L161.213 183.475L177.458 167.238L180.598 170.331L179.324 179.018L183.966 183.657L192.657 182.383L195.751 185.521L179.506 201.712L168.949 201.667L160.758 209.853L167.402 216.539L179.87 229L197.526 224.725L199.71 216.539L202.35 206.806L208.083 185.385L210.632 175.971L215 159.734L202.395 147Z" fill="#EC83AB"/>
</svg>
