<svg width="752" height="411" viewBox="0 0 752 411" fill="none" xmlns="http://www.w3.org/2000/svg">
<path d="M97.3425 762.496L271.98 460.015L230.76 306.607L406.625 2L465.035 35.723L484.031 167.674L574.881 220.126L692.16 166.854L750.558 200.57L574.693 505.177L421.24 546.19L246.602 848.671" stroke="white" stroke-opacity="0.2" stroke-width="2"/>
<path d="M166.028 686.12L297.503 458.398L266.477 342.892L398.887 113.55L442.85 138.932L457.161 238.277L525.563 277.769L613.86 237.665L657.833 263.053L525.423 492.394L409.867 523.272L278.392 750.993" stroke="white" stroke-opacity="0.2" stroke-width="1.5"/>
<path d="M234.696 609.747L323.022 456.762L302.183 379.169L391.132 225.104L420.669 242.157L430.285 308.891L476.239 335.422L535.554 308.486L565.09 325.539L476.141 479.603L398.524 500.353L310.198 653.338" stroke="white" stroke-opacity="0.2"/>
<path d="M303.387 533.388L348.563 455.141L337.919 415.419L383.395 336.654L398.506 345.379L403.419 379.512L426.914 393.076L457.254 379.297L472.365 388.022L426.89 466.787L387.169 477.43L341.993 555.678" stroke="white" stroke-opacity="0.2" stroke-width="0.5"/>
</svg>
