<?xml version="1.0" encoding="UTF-8" standalone="no"?>
<!DOCTYPE svg PUBLIC "-//W3C//DTD SVG 1.1//EN" "http://www.w3.org/Graphics/SVG/1.1/DTD/svg11.dtd">
<svg width="100%" height="100%" viewBox="0 0 1361 1345" version="1.1" xmlns="http://www.w3.org/2000/svg" xmlns:xlink="http://www.w3.org/1999/xlink" xml:space="preserve" xmlns:serif="http://www.serif.com/" style="fill-rule:evenodd;clip-rule:evenodd;stroke-linecap:round;stroke-linejoin:round;stroke-miterlimit:1.5;">
    <g transform="matrix(0.75,0,0,0.75,-681.218,-70.5103)">
        <g transform="matrix(0.995398,0,0,0.966306,-67.0483,3.65589)">
            <rect x="979.848" y="93.509" width="1822.55" height="1855.4" style="fill:white;"/>
        </g>
        <g transform="matrix(0.606871,0,0,1.79954,648.431,-554.454)">
            <path d="M3231.24,558.433L3231.24,1258.09C3231.24,1279.39 3213.94,1296.69 3192.64,1296.69L647.365,1296.69C626.057,1296.69 608.759,1279.39 608.759,1258.09L608.759,558.433C608.759,537.126 626.057,519.827 647.365,519.827L3192.64,519.827C3213.94,519.827 3231.24,537.126 3231.24,558.433Z" style="fill:rgb(255,190,206);fill-opacity:0.39;"/>
        </g>
        <g transform="matrix(1.71722,0,0,0.184201,84.4525,646.491)">
            <path d="M1411.32,518.073L1411.32,1561.45C1411.32,1593.22 1408.55,1619.02 1405.15,1619.02L608.772,1619.02C605.364,1619.02 602.597,1593.22 602.597,1561.45L602.597,518.073C602.597,486.298 605.364,460.501 608.772,460.501L1405.15,460.501C1408.55,460.501 1411.32,486.298 1411.32,518.073Z" style="fill:rgb(255,190,206);fill-opacity:0.39;"/>
        </g>
        <g transform="matrix(1.71722,0,0,0.184201,84.3887,896.732)">
            <path d="M1411.32,518.073L1411.32,1561.45C1411.32,1593.22 1408.55,1619.02 1405.15,1619.02L608.772,1619.02C605.364,1619.02 602.597,1593.22 602.597,1561.45L602.597,518.073C602.597,486.298 605.364,460.501 608.772,460.501L1405.15,460.501C1408.55,460.501 1411.32,486.298 1411.32,518.073Z" style="fill:rgb(255,190,206);fill-opacity:0.39;"/>
        </g>
        <g transform="matrix(2.69602,0,0,2.82003,-957.567,-2053.99)">
            <g transform="matrix(52.009,0,0,52.009,853.894,1133.43)">
                <path d="M0.197,-0L0.018,-0.7L0.074,-0.7L0.23,-0.09L0.385,-0.7L0.432,-0.7L0.588,-0.09L0.743,-0.7L0.799,-0.7L0.621,-0L0.555,-0L0.408,-0.573L0.262,-0L0.197,-0Z" style="fill:rgb(247,46,92);fill-rule:nonzero;"/>
            </g>
            <g transform="matrix(52.009,0,0,52.009,891.954,1133.43)">
                <path d="M0.295,-0.7L0.365,-0.7L0.62,-0L0.563,-0L0.505,-0.158L0.155,-0.158L0.098,-0L0.04,-0L0.295,-0.7ZM0.175,-0.212L0.485,-0.212L0.33,-0.638L0.175,-0.212Z" style="fill:rgb(247,46,92);fill-rule:nonzero;"/>
            </g>
            <g transform="matrix(52.009,0,0,52.009,923.513,1133.43)">
                <path d="M0.302,0.013C0.265,0.013 0.23,0.007 0.195,-0.004C0.16,-0.016 0.13,-0.032 0.104,-0.053C0.079,-0.075 0.06,-0.1 0.05,-0.13L0.101,-0.149C0.109,-0.126 0.123,-0.106 0.144,-0.09C0.165,-0.074 0.19,-0.062 0.218,-0.054C0.246,-0.045 0.274,-0.041 0.302,-0.041C0.337,-0.041 0.369,-0.047 0.398,-0.058C0.428,-0.07 0.452,-0.086 0.47,-0.107C0.488,-0.128 0.498,-0.153 0.498,-0.181C0.498,-0.21 0.488,-0.234 0.469,-0.252C0.45,-0.271 0.426,-0.286 0.396,-0.296C0.366,-0.307 0.335,-0.315 0.302,-0.321C0.255,-0.33 0.213,-0.341 0.175,-0.355C0.138,-0.369 0.108,-0.388 0.087,-0.414C0.065,-0.439 0.054,-0.473 0.054,-0.516C0.054,-0.555 0.066,-0.589 0.089,-0.619C0.112,-0.648 0.142,-0.67 0.18,-0.686C0.218,-0.702 0.259,-0.71 0.302,-0.71C0.338,-0.71 0.373,-0.704 0.407,-0.693C0.442,-0.682 0.472,-0.666 0.499,-0.645C0.525,-0.623 0.544,-0.597 0.556,-0.566L0.504,-0.548C0.496,-0.571 0.481,-0.591 0.46,-0.607C0.439,-0.623 0.415,-0.635 0.387,-0.643C0.359,-0.651 0.331,-0.656 0.302,-0.656C0.268,-0.656 0.236,-0.65 0.207,-0.638C0.177,-0.626 0.153,-0.61 0.135,-0.589C0.117,-0.568 0.108,-0.544 0.108,-0.516C0.108,-0.483 0.117,-0.458 0.134,-0.441C0.151,-0.423 0.174,-0.41 0.203,-0.401C0.232,-0.392 0.265,-0.384 0.302,-0.377C0.346,-0.369 0.387,-0.357 0.425,-0.342C0.463,-0.326 0.493,-0.305 0.517,-0.279C0.54,-0.252 0.552,-0.22 0.552,-0.181C0.552,-0.142 0.54,-0.108 0.517,-0.079C0.494,-0.049 0.463,-0.027 0.425,-0.011C0.388,0.005 0.347,0.013 0.302,0.013Z" style="fill:rgb(247,46,92);fill-rule:nonzero;"/>
            </g>
            <g transform="matrix(52.009,0,0,52.009,955.01,1133.43)">
                <path d="M0.06,-0L0.195,-0.7L0.231,-0.7L0.435,-0.165L0.637,-0.7L0.673,-0.7L0.809,-0L0.754,-0L0.644,-0.567L0.451,-0.055L0.418,-0.055L0.224,-0.567L0.115,-0L0.06,-0Z" style="fill:rgb(247,46,92);fill-rule:nonzero;"/>
            </g>
            <g transform="matrix(52.009,0,0,52.009,1012.69,1133.43)">
                <path d="M0.06,-0L0.195,-0.7L0.231,-0.7L0.435,-0.165L0.637,-0.7L0.673,-0.7L0.809,-0L0.754,-0L0.644,-0.567L0.451,-0.055L0.418,-0.055L0.224,-0.567L0.115,-0L0.06,-0Z" style="fill:rgb(247,46,92);fill-rule:nonzero;"/>
            </g>
            <g transform="matrix(52.009,0,0,52.009,1055.81,1133.43)">
                <path d="M0.28,0.013C0.234,0.013 0.192,0.001 0.154,-0.023C0.116,-0.046 0.086,-0.078 0.064,-0.118C0.041,-0.158 0.03,-0.202 0.03,-0.25C0.03,-0.287 0.037,-0.321 0.05,-0.353C0.063,-0.385 0.08,-0.413 0.103,-0.437C0.126,-0.461 0.153,-0.48 0.183,-0.494C0.213,-0.507 0.246,-0.514 0.28,-0.514C0.326,-0.514 0.368,-0.502 0.406,-0.479C0.444,-0.455 0.474,-0.423 0.496,-0.383C0.519,-0.343 0.53,-0.299 0.53,-0.25C0.53,-0.214 0.524,-0.18 0.511,-0.148C0.498,-0.116 0.48,-0.088 0.457,-0.064C0.434,-0.04 0.407,-0.021 0.377,-0.008C0.347,0.006 0.315,0.013 0.28,0.013ZM0.28,-0.041C0.317,-0.041 0.35,-0.051 0.38,-0.07C0.409,-0.089 0.433,-0.115 0.45,-0.147C0.467,-0.178 0.476,-0.213 0.476,-0.25C0.476,-0.288 0.467,-0.323 0.45,-0.355C0.432,-0.386 0.409,-0.412 0.379,-0.431C0.35,-0.45 0.317,-0.46 0.28,-0.46C0.243,-0.46 0.21,-0.45 0.18,-0.431C0.15,-0.412 0.127,-0.386 0.11,-0.354C0.093,-0.323 0.084,-0.288 0.084,-0.25C0.084,-0.211 0.093,-0.176 0.111,-0.144C0.128,-0.113 0.152,-0.088 0.182,-0.069C0.212,-0.05 0.244,-0.041 0.28,-0.041Z" style="fill:rgb(247,46,92);fill-rule:nonzero;"/>
            </g>
            <g transform="matrix(52.009,0,0,52.009,1084.42,1133.43)">
                <path d="M0.482,-0.75L0.536,-0.75L0.536,-0L0.482,-0L0.482,-0.103C0.464,-0.068 0.439,-0.04 0.407,-0.019C0.375,0.002 0.337,0.013 0.293,0.013C0.257,0.013 0.223,0.006 0.191,-0.008C0.159,-0.021 0.131,-0.04 0.107,-0.064C0.083,-0.088 0.064,-0.116 0.051,-0.148C0.037,-0.18 0.03,-0.214 0.03,-0.25C0.03,-0.286 0.037,-0.321 0.051,-0.352C0.064,-0.384 0.083,-0.412 0.107,-0.436C0.131,-0.461 0.159,-0.48 0.191,-0.493C0.223,-0.507 0.257,-0.514 0.293,-0.514C0.337,-0.514 0.375,-0.503 0.407,-0.482C0.439,-0.461 0.464,-0.433 0.482,-0.398L0.482,-0.75ZM0.293,-0.04C0.332,-0.04 0.365,-0.049 0.392,-0.068C0.42,-0.087 0.441,-0.112 0.455,-0.144C0.47,-0.176 0.477,-0.212 0.477,-0.25C0.477,-0.289 0.47,-0.325 0.455,-0.357C0.44,-0.389 0.419,-0.414 0.392,-0.433C0.364,-0.452 0.331,-0.461 0.293,-0.461C0.255,-0.461 0.22,-0.451 0.189,-0.433C0.157,-0.414 0.132,-0.388 0.113,-0.356C0.094,-0.324 0.085,-0.289 0.085,-0.25C0.085,-0.211 0.094,-0.175 0.114,-0.143C0.133,-0.112 0.158,-0.086 0.19,-0.068C0.222,-0.049 0.256,-0.04 0.293,-0.04Z" style="fill:rgb(247,46,92);fill-rule:nonzero;"/>
            </g>
            <g transform="matrix(52.009,0,0,52.009,1115.4,1133.43)">
                <path d="M0.04,-0.194L0.04,-0.5L0.094,-0.5L0.094,-0.202C0.094,-0.172 0.101,-0.145 0.116,-0.121C0.13,-0.097 0.15,-0.077 0.174,-0.063C0.198,-0.049 0.225,-0.041 0.255,-0.041C0.284,-0.041 0.311,-0.049 0.335,-0.063C0.359,-0.077 0.379,-0.097 0.393,-0.121C0.408,-0.145 0.415,-0.172 0.415,-0.202L0.415,-0.5L0.469,-0.5L0.469,-0L0.415,-0L0.415,-0.077C0.397,-0.05 0.373,-0.028 0.344,-0.012C0.314,0.005 0.282,0.013 0.247,0.013C0.208,0.013 0.174,0.004 0.143,-0.015C0.111,-0.033 0.086,-0.058 0.068,-0.09C0.049,-0.121 0.04,-0.155 0.04,-0.194Z" style="fill:rgb(247,46,92);fill-rule:nonzero;"/>
            </g>
            <g transform="matrix(52.009,0,0,52.009,1142.22,1133.43)">
                <rect x="0.06" y="-0.75" width="0.054" height="0.75" style="fill:rgb(247,46,92);fill-rule:nonzero;"/>
            </g>
            <g transform="matrix(52.009,0,0,52.009,1151.09,1133.43)">
                <path d="M0.28,0.013C0.234,0.013 0.192,0.001 0.154,-0.023C0.116,-0.046 0.086,-0.078 0.064,-0.118C0.041,-0.158 0.03,-0.202 0.03,-0.25C0.03,-0.287 0.037,-0.321 0.05,-0.353C0.063,-0.385 0.08,-0.413 0.103,-0.437C0.126,-0.461 0.153,-0.48 0.183,-0.494C0.213,-0.507 0.246,-0.514 0.28,-0.514C0.316,-0.514 0.35,-0.507 0.381,-0.493C0.411,-0.479 0.438,-0.459 0.46,-0.433C0.483,-0.407 0.5,-0.377 0.512,-0.342C0.524,-0.307 0.529,-0.269 0.528,-0.228L0.086,-0.228C0.09,-0.192 0.101,-0.161 0.119,-0.132C0.137,-0.104 0.16,-0.082 0.188,-0.066C0.215,-0.049 0.246,-0.041 0.28,-0.041C0.317,-0.041 0.35,-0.051 0.38,-0.07C0.41,-0.09 0.434,-0.117 0.451,-0.151L0.506,-0.138C0.486,-0.094 0.456,-0.057 0.416,-0.029C0.375,-0.001 0.33,0.013 0.28,0.013ZM0.085,-0.274L0.474,-0.274C0.472,-0.308 0.462,-0.34 0.444,-0.369C0.426,-0.397 0.403,-0.42 0.375,-0.438C0.346,-0.455 0.314,-0.464 0.28,-0.464C0.246,-0.464 0.214,-0.455 0.186,-0.438C0.158,-0.421 0.135,-0.399 0.117,-0.37C0.099,-0.341 0.088,-0.309 0.085,-0.274Z" style="fill:rgb(247,46,92);fill-rule:nonzero;"/>
            </g>
            <g transform="matrix(52.009,0,0,52.009,1179.96,1133.43)">
                <path d="M0.217,0.01C0.189,0.009 0.162,0.004 0.135,-0.005C0.109,-0.015 0.086,-0.027 0.066,-0.044C0.047,-0.06 0.033,-0.078 0.025,-0.098L0.073,-0.118C0.078,-0.103 0.089,-0.09 0.105,-0.078C0.121,-0.066 0.14,-0.057 0.16,-0.05C0.181,-0.043 0.201,-0.04 0.22,-0.04C0.243,-0.04 0.264,-0.043 0.284,-0.051C0.303,-0.059 0.319,-0.07 0.332,-0.084C0.344,-0.098 0.35,-0.114 0.35,-0.133C0.35,-0.153 0.344,-0.169 0.331,-0.18C0.318,-0.192 0.301,-0.201 0.281,-0.208C0.261,-0.215 0.24,-0.222 0.219,-0.229C0.182,-0.239 0.15,-0.25 0.123,-0.261C0.096,-0.273 0.076,-0.287 0.061,-0.304C0.046,-0.321 0.039,-0.344 0.039,-0.372C0.039,-0.402 0.047,-0.427 0.064,-0.449C0.082,-0.471 0.104,-0.487 0.132,-0.499C0.159,-0.511 0.189,-0.517 0.22,-0.517C0.261,-0.517 0.299,-0.508 0.332,-0.49C0.366,-0.472 0.389,-0.448 0.403,-0.419L0.359,-0.393C0.352,-0.408 0.342,-0.422 0.328,-0.433C0.313,-0.444 0.297,-0.452 0.278,-0.458C0.26,-0.464 0.242,-0.467 0.223,-0.468C0.2,-0.468 0.178,-0.464 0.158,-0.457C0.138,-0.449 0.121,-0.438 0.109,-0.424C0.097,-0.41 0.091,-0.393 0.091,-0.373C0.091,-0.353 0.096,-0.338 0.108,-0.327C0.119,-0.316 0.135,-0.308 0.155,-0.301C0.175,-0.295 0.199,-0.287 0.226,-0.279C0.256,-0.269 0.285,-0.258 0.312,-0.246C0.339,-0.234 0.361,-0.22 0.377,-0.202C0.394,-0.184 0.402,-0.161 0.402,-0.134C0.402,-0.104 0.393,-0.079 0.375,-0.057C0.358,-0.035 0.335,-0.018 0.307,-0.007C0.279,0.005 0.249,0.01 0.217,0.01Z" style="fill:rgb(247,46,92);fill-rule:nonzero;"/>
            </g>
        </g>
        <g transform="matrix(1.71722,0,0,0.184201,84.4525,1146.97)">
            <path d="M1411.32,518.073L1411.32,1561.45C1411.32,1593.22 1408.55,1619.02 1405.15,1619.02L608.772,1619.02C605.364,1619.02 602.597,1593.22 602.597,1561.45L602.597,518.073C602.597,486.298 605.364,460.501 608.772,460.501L1405.15,460.501C1408.55,460.501 1411.32,486.298 1411.32,518.073Z" style="fill:rgb(255,190,206);fill-opacity:0.39;"/>
        </g>
        <g transform="matrix(1.71722,0,0,0.184201,84.4525,1397.21)">
            <path d="M1411.32,518.073L1411.32,1561.45C1411.32,1593.22 1408.55,1619.02 1405.15,1619.02L608.772,1619.02C605.364,1619.02 602.597,1593.22 602.597,1561.45L602.597,518.073C602.597,486.298 605.364,460.501 608.772,460.501L1405.15,460.501C1408.55,460.501 1411.32,486.298 1411.32,518.073Z" style="fill:rgb(255,190,206);fill-opacity:0.39;"/>
        </g>
        <g transform="matrix(1,0,0,1,-805.885,248.534)">
            <g transform="matrix(5.77646,0,0,5.49827,2220.83,194.694)">
                <g>
                    <path d="M10.623,31.772L10.622,31.774L8.685,30.482L7.198,28.318L6.453,24.744L7.787,21.606L10.988,22.569L16.898,18.82L16.899,18.82L18.68,20.009L18.681,20.008L20.465,21.198L19.141,28.006L21.241,30.579L18.786,32.969L15.148,33.619L12.558,33.063L10.623,31.772Z" style="fill:rgb(246,200,79);"/>
                    <path d="M17.928,15.479C17.19,18.941 11.854,21.127 9.09,20.79C2.373,19.972 -2.698,12.634 9.434,12.377C12.512,12.256 18.518,12.709 17.928,15.479ZM23.227,19.015C25.613,17.442 28.277,22.773 29.31,25.636C33.59,36.841 24.798,34.932 21.525,29.086C20.178,26.681 20.246,20.982 23.228,19.016L23.227,19.015Z" style="fill:rgb(125,255,214);"/>
                    <path d="M3.002,13.915C3.342,13.638 3.784,13.387 4.339,13.172L4.512,13.708L5.392,14.808L6.68,15.96L7.67,15.815L12.622,15.308L17.826,15.858C17.662,16.372 17.397,16.857 17.056,17.305C15.516,17.001 11.92,16.91 9.966,16.907C9.444,17.513 9.255,19.573 9.214,20.803C8.63,20.739 8.052,20.626 7.486,20.466C7.438,19.504 7.774,18.129 8.019,17.366C6.488,17.448 4.869,18.194 3.975,18.714C3.585,18.409 3.23,18.063 2.917,17.68L4.902,16.604C4.595,16.451 3.627,14.944 3.001,13.914L3.002,13.915ZM30.26,32.1C29.057,31.91 27.28,31.585 27.02,31.362L26.748,33.58C26.303,33.449 25.843,33.252 25.383,32.996C25.538,31.985 25.636,30.224 25.143,28.791C24.516,29.3 23.348,30.121 22.425,30.435C22.095,30.015 21.791,29.564 21.524,29.088L21.465,28.978C22.607,28.482 24.474,27.541 24.849,26.837C24.117,25.05 22.692,21.791 21.832,20.494C22.127,20.015 22.483,19.592 22.907,19.25L25.362,23.811L26.732,28.532L26.964,29.494L28.529,30.244L29.891,30.64L30.46,30.599C30.464,31.187 30.393,31.685 30.26,32.1Z" style="fill:rgb(1,191,131);"/>
                    <path d="M23.198,7.684C24.362,7.976 25.426,8.461 26.229,8.996C27.031,9.531 27.884,10.324 28.592,11.281C29.293,11.053 30.156,10.722 31.022,10.305C32.291,9.695 33.464,8.949 34.168,8.15C34.526,7.748 35.148,7.705 35.557,8.055C35.772,8.238 35.895,8.506 35.895,8.788C35.895,9.022 35.81,9.249 35.654,9.425C34.691,10.517 33.237,11.401 31.886,12.051C31.092,12.432 30.299,12.75 29.598,12.994C30.518,15.07 30.554,17.538 28.424,19.774L28.423,19.774C31.267,23.428 34.803,31.881 30.373,35.138C27.829,37.008 22.87,34.382 21.485,32.285C19.963,33.712 15.865,36.023 11.647,33.854L7.729,35.999L7.728,36L7.728,35.999L7.727,36L7.728,35.998L8.285,31.61C4.674,28.557 5.32,23.944 6.095,22.019C3.606,21.532 -0.712,17.97 0.1,14.945C1.512,9.675 10.78,9.763 15.276,11.005L15.276,11.004C16.583,8.222 18.917,7.335 21.212,7.402C21.18,6.67 21.183,5.825 21.246,4.958C21.354,3.478 21.643,1.818 22.312,0.528C22.563,0.053 23.157,-0.136 23.636,0.107C24.12,0.351 24.312,0.937 24.064,1.414C23.575,2.356 23.311,3.708 23.209,5.098C23.14,6.046 23.151,6.959 23.198,7.684ZM2.541,17.15C3.437,16.61 5.04,16.114 5.912,15.892C4.65,14.962 4.099,13.99 3.905,13.361C1.931,14.297 1.708,15.761 2.541,17.15ZM2.541,17.15L2.54,17.15L2.541,17.15ZM27.389,33.724L27.389,33.725L27.389,33.724ZM27.389,33.724C29.005,33.97 30.3,33.219 30.445,31.064C29.781,31.119 28.662,30.977 27.316,30.169C27.433,31.051 27.563,32.703 27.389,33.724ZM18.682,20.014L18.681,20.015L17.815,19.437C16.715,20.695 14.468,21.648 13.482,21.967C13.582,23.38 14.783,24.469 15.373,24.84L15.373,24.839C15.94,25.241 17.414,25.937 18.782,25.501C18.714,24.48 18.773,22.067 19.547,20.591L18.682,20.014ZM12.895,28.461C10,26.529 9.155,23.768 9.093,22.629L8.02,22.57C6.123,26.813 9.098,30.101 10.932,31.325L10.931,31.326C12.767,32.55 16.967,34.046 20.249,30.729L19.795,29.766C18.701,30.135 15.79,30.39 12.895,28.461ZM17.705,16.192C15.843,15.953 13.067,15.892 11.628,15.895C9.672,17.212 9.421,19.433 9.588,20.827C12.236,20.872 16.528,19.051 17.705,16.192ZM8.695,20.738C8.338,18.718 9.488,16.813 10.193,16.038C6.573,16.174 4.29,17.188 3.175,17.983C4.368,19.271 6.417,20.373 8.695,20.738ZM17.93,15.464C18.492,12.71 12.503,12.26 9.432,12.38C7.48,12.422 5.973,12.646 4.847,12.998C5.348,14.534 6.51,15.298 7.075,15.496C10.635,14.696 15.259,15.066 17.93,15.465L17.93,15.464ZM23.24,19.006L23.24,19.007C24.611,21.303 26.68,25.399 27.255,28.957C27.653,29.399 28.804,30.179 30.435,30.065C30.346,28.903 29.996,27.44 29.307,25.637C28.276,22.78 25.62,17.466 23.24,19.006ZM22.64,19.483L22.639,19.483C20.389,21.626 20.275,26.234 21.305,28.642C22.678,28.275 24.673,27.218 25.183,24.937C24.65,23.617 23.558,21.099 22.64,19.483ZM21.721,29.427C22.915,31.376 24.713,32.842 26.369,33.455C26.702,32.137 26.804,29.669 25.584,26.303C25.117,27.238 23.754,29.001 21.721,29.427Z" style="fill:rgb(247,46,92);"/>
                </g>
            </g>
            <g transform="matrix(13.6502,0,0,3.40399,1124.03,231.168)">
                <g>
                    <path d="M103.691,38.206C103.105,38.206 102.558,37.744 102.051,36.821C101.545,35.897 101.102,34.617 100.725,32.981C100.347,31.344 100.052,29.453 99.84,27.309C99.627,25.164 99.521,22.874 99.521,20.438C99.521,17.891 99.634,15.543 99.861,13.393C100.087,11.244 100.396,9.374 100.788,7.784C101.18,6.194 101.627,4.961 102.13,4.086C102.633,3.212 103.161,2.774 103.714,2.774C104.338,2.774 104.939,3.361 105.515,4.533C106.092,5.706 106.595,7.465 107.022,9.809L105.897,12.259C105.607,10.798 105.269,9.693 104.883,8.944C104.498,8.194 104.103,7.82 103.7,7.82C103.309,7.82 102.938,8.14 102.587,8.781C102.236,9.421 101.925,10.318 101.654,11.471C101.383,12.624 101.17,13.97 101.014,15.509C100.859,17.049 100.781,18.722 100.781,20.528C100.781,22.27 100.857,23.904 101.009,25.429C101.161,26.955 101.371,28.293 101.639,29.445C101.907,30.597 102.218,31.498 102.572,32.149C102.926,32.8 103.305,33.126 103.709,33.126C104.006,33.126 104.292,32.93 104.566,32.539C104.84,32.149 105.095,31.59 105.332,30.865C105.568,30.139 105.775,29.272 105.953,28.262C106.131,27.252 106.272,26.129 106.376,24.891L104.576,24.891L104.576,20.409L107.855,20.409C107.861,22.853 107.758,25.149 107.543,27.296C107.329,29.444 107.03,31.336 106.648,32.974C106.266,34.611 105.822,35.892 105.318,36.818C104.814,37.743 104.272,38.206 103.691,38.206Z" style="fill:rgb(247,46,92);fill-rule:nonzero;"/>
                    <path d="M113.352,13.145L114.612,13.145L114.612,37.571L113.349,37.571L113.296,34.024C113.119,35.273 112.879,36.283 112.578,37.052C112.277,37.821 111.92,38.206 111.508,38.206C111.061,38.206 110.642,37.866 110.252,37.187C109.862,36.508 109.518,35.569 109.222,34.37C108.925,33.17 108.694,31.784 108.528,30.21C108.361,28.637 108.278,26.947 108.278,25.142C108.278,23.39 108.359,21.748 108.519,20.215C108.68,18.682 108.904,17.334 109.191,16.172C109.478,15.01 109.811,14.101 110.189,13.445C110.567,12.789 110.972,12.461 111.405,12.461C111.843,12.461 112.23,12.862 112.567,13.665C112.904,14.468 113.183,15.502 113.405,16.768L113.352,13.145ZM111.477,33.306C111.832,33.306 112.143,32.95 112.409,32.237C112.675,31.524 112.882,30.564 113.03,29.356C113.178,28.149 113.252,26.817 113.252,25.358C113.252,23.871 113.177,22.527 113.028,21.324C112.879,20.122 112.672,19.166 112.406,18.458C112.139,17.75 111.83,17.395 111.477,17.395C111.125,17.395 110.804,17.752 110.514,18.465C110.224,19.178 109.994,20.138 109.824,21.345C109.654,22.552 109.569,23.89 109.569,25.358C109.569,26.835 109.656,28.175 109.83,29.378C110.005,30.58 110.237,31.535 110.527,32.244C110.817,32.952 111.134,33.306 111.477,33.306Z" style="fill:rgb(247,46,92);fill-rule:nonzero;"/>
                    <path d="M120.074,0.932L121.334,0.932L121.334,37.571L120.074,37.571L120.074,33.989C119.875,35.248 119.615,36.266 119.296,37.042C118.977,37.818 118.604,38.206 118.177,38.206C117.737,38.206 117.325,37.872 116.942,37.204C116.558,36.537 116.22,35.613 115.927,34.432C115.635,33.252 115.406,31.888 115.24,30.341C115.075,28.794 114.992,27.133 114.992,25.358C114.992,23.583 115.075,21.92 115.24,20.368C115.406,18.816 115.635,17.45 115.927,16.269C116.22,15.089 116.558,14.165 116.942,13.497C117.325,12.83 117.737,12.496 118.177,12.496C118.604,12.496 118.977,12.882 119.296,13.655C119.615,14.427 119.875,15.442 120.074,16.698L120.074,0.932ZM118.191,33.306C118.546,33.306 118.857,32.95 119.123,32.237C119.389,31.524 119.596,30.564 119.744,29.356C119.892,28.149 119.966,26.817 119.966,25.358C119.966,23.871 119.891,22.527 119.742,21.324C119.593,20.122 119.386,19.166 119.119,18.458C118.853,17.75 118.544,17.395 118.191,17.395C117.839,17.395 117.518,17.752 117.229,18.465C116.941,19.178 116.711,20.138 116.539,21.345C116.368,22.552 116.282,23.89 116.282,25.358C116.282,26.835 116.37,28.175 116.544,29.378C116.719,30.58 116.951,31.535 117.241,32.244C117.531,32.952 117.847,33.306 118.191,33.306Z" style="fill:rgb(247,46,92);fill-rule:nonzero;"/>
                    <path d="M127.002,13.145L128.261,13.145L128.261,38.194C128.261,39.882 128.174,41.432 128,42.845C127.825,44.258 127.589,45.483 127.289,46.521C126.99,47.558 126.648,48.362 126.263,48.93C125.878,49.499 125.476,49.784 125.055,49.784C124.631,49.784 124.224,49.421 123.832,48.696C123.441,47.971 123.097,46.99 122.8,45.752C122.504,44.514 122.283,43.116 122.138,41.56L123.292,39.444C123.373,40.458 123.503,41.357 123.683,42.142C123.863,42.926 124.073,43.544 124.313,43.994C124.553,44.444 124.8,44.669 125.055,44.669C125.304,44.669 125.545,44.511 125.777,44.196C126.009,43.881 126.218,43.438 126.402,42.867C126.587,42.296 126.733,41.614 126.841,40.82C126.948,40.027 127.002,39.151 127.002,38.194L127.002,34.073C126.804,35.306 126.549,36.303 126.238,37.064C125.927,37.825 125.567,38.206 125.159,38.206C124.728,38.206 124.323,37.872 123.946,37.204C123.568,36.537 123.236,35.613 122.949,34.432C122.662,33.252 122.437,31.888 122.275,30.341C122.113,28.794 122.032,27.133 122.032,25.358C122.032,23.583 122.113,21.92 122.275,20.368C122.437,18.816 122.662,17.45 122.949,16.269C123.236,15.089 123.568,14.165 123.946,13.497C124.323,12.83 124.728,12.496 125.159,12.496C125.567,12.496 125.927,12.874 126.238,13.63C126.549,14.387 126.804,15.386 127.002,16.629L127.002,13.145ZM125.172,33.306C125.52,33.306 125.825,32.943 126.088,32.216C126.351,31.489 126.556,30.522 126.702,29.314C126.849,28.107 126.922,26.789 126.922,25.358C126.922,23.899 126.849,22.569 126.701,21.366C126.553,20.164 126.347,19.201 126.083,18.479C125.819,17.757 125.516,17.395 125.172,17.395C124.831,17.395 124.52,17.752 124.239,18.465C123.959,19.178 123.736,20.138 123.571,21.345C123.405,22.552 123.323,23.89 123.323,25.358C123.323,26.826 123.407,28.161 123.574,29.364C123.742,30.566 123.966,31.524 124.246,32.237C124.527,32.95 124.836,33.306 125.172,33.306Z" style="fill:rgb(247,46,92);fill-rule:nonzero;"/>
                    <path d="M131.97,38.206C131.413,38.206 130.905,37.628 130.447,36.472C129.989,35.316 129.623,33.763 129.351,31.813C129.078,29.864 128.942,27.709 128.942,25.348C128.942,23.563 129.021,21.893 129.178,20.338C129.336,18.783 129.553,17.415 129.829,16.235C130.106,15.054 130.428,14.13 130.795,13.462C131.163,12.795 131.554,12.461 131.97,12.461C132.434,12.461 132.86,12.849 133.247,13.624C133.635,14.399 133.966,15.466 134.24,16.825C134.515,18.184 134.717,19.748 134.846,21.516C134.976,23.283 135.015,25.155 134.961,27.13L130.291,27.13C130.343,28.262 130.446,29.277 130.599,30.177C130.751,31.076 130.945,31.789 131.18,32.314C131.414,32.839 131.678,33.109 131.97,33.126C132.278,33.133 132.557,32.823 132.809,32.198C133.06,31.572 133.266,30.716 133.428,29.629L134.71,30.829C134.466,32.995 134.1,34.766 133.611,36.142C133.123,37.518 132.576,38.206 131.97,38.206ZM130.249,23.259L133.69,23.259C133.65,22.091 133.548,21.03 133.386,20.075C133.223,19.121 133.018,18.361 132.773,17.794C132.527,17.227 132.26,16.943 131.97,16.943C131.682,16.943 131.417,17.222 131.174,17.78C130.93,18.337 130.728,19.093 130.567,20.047C130.406,21.001 130.3,22.072 130.249,23.259Z" style="fill:rgb(247,46,92);fill-rule:nonzero;"/>
                    <path d="M138.765,18.225L137.495,18.225L137.491,37.571L136.232,37.571L136.235,18.225L135.27,18.225L135.27,13.145L136.235,13.145L136.232,5.475L137.491,5.475L137.495,13.145L138.765,13.145L138.765,18.225Z" style="fill:rgb(247,46,92);fill-rule:nonzero;"/>
                </g>
            </g>
        </g>
        <g transform="matrix(2.77533,0,0,2.90299,-1037.55,-2419.3)">
            <g transform="matrix(50.5227,0,0,50.5227,846.832,1133.43)">
                <path d="M0.28,0.013C0.234,0.013 0.192,0.001 0.154,-0.023C0.116,-0.046 0.086,-0.078 0.064,-0.118C0.041,-0.158 0.03,-0.202 0.03,-0.25C0.03,-0.287 0.037,-0.321 0.05,-0.353C0.063,-0.385 0.08,-0.413 0.103,-0.437C0.126,-0.461 0.153,-0.48 0.183,-0.494C0.213,-0.507 0.246,-0.514 0.28,-0.514C0.316,-0.514 0.35,-0.507 0.381,-0.493C0.411,-0.479 0.438,-0.459 0.46,-0.433C0.483,-0.407 0.5,-0.377 0.512,-0.342C0.524,-0.307 0.529,-0.269 0.528,-0.228L0.086,-0.228C0.09,-0.192 0.101,-0.161 0.119,-0.132C0.137,-0.104 0.16,-0.082 0.188,-0.066C0.215,-0.049 0.246,-0.041 0.28,-0.041C0.317,-0.041 0.35,-0.051 0.38,-0.07C0.41,-0.09 0.434,-0.117 0.451,-0.151L0.506,-0.138C0.486,-0.094 0.456,-0.057 0.416,-0.029C0.375,-0.001 0.33,0.013 0.28,0.013ZM0.085,-0.274L0.474,-0.274C0.472,-0.308 0.462,-0.34 0.444,-0.369C0.426,-0.397 0.403,-0.42 0.375,-0.438C0.346,-0.455 0.314,-0.464 0.28,-0.464C0.246,-0.464 0.214,-0.455 0.186,-0.438C0.158,-0.421 0.135,-0.399 0.117,-0.37C0.099,-0.341 0.088,-0.309 0.085,-0.274Z" style="fill:rgb(247,46,92);fill-rule:nonzero;"/>
            </g>
            <g transform="matrix(50.5227,0,0,50.5227,874.63,1133.43)">
                <path d="M0.06,-0L0.06,-0.7L0.291,-0.7C0.324,-0.7 0.354,-0.693 0.381,-0.68C0.409,-0.666 0.43,-0.647 0.446,-0.621C0.463,-0.595 0.471,-0.563 0.471,-0.526C0.471,-0.503 0.466,-0.482 0.458,-0.462C0.45,-0.442 0.439,-0.425 0.426,-0.412C0.413,-0.398 0.399,-0.39 0.386,-0.387C0.406,-0.381 0.424,-0.372 0.439,-0.359C0.455,-0.347 0.468,-0.331 0.478,-0.314C0.488,-0.296 0.496,-0.278 0.501,-0.258C0.506,-0.238 0.509,-0.219 0.509,-0.199C0.509,-0.159 0.5,-0.124 0.483,-0.094C0.466,-0.064 0.444,-0.041 0.416,-0.025C0.388,-0.008 0.357,-0 0.323,-0L0.06,-0ZM0.114,-0.05L0.319,-0.05C0.345,-0.05 0.368,-0.056 0.389,-0.07C0.41,-0.083 0.427,-0.102 0.439,-0.125C0.452,-0.149 0.458,-0.176 0.458,-0.205C0.458,-0.232 0.452,-0.257 0.439,-0.28C0.427,-0.303 0.41,-0.322 0.389,-0.337C0.368,-0.351 0.345,-0.359 0.319,-0.359L0.114,-0.359L0.114,-0.05ZM0.114,-0.408L0.287,-0.408C0.323,-0.408 0.353,-0.418 0.379,-0.438C0.404,-0.459 0.417,-0.488 0.417,-0.526C0.417,-0.568 0.404,-0.6 0.379,-0.62C0.353,-0.64 0.323,-0.651 0.287,-0.651L0.114,-0.651L0.114,-0.408Z" style="fill:rgb(247,46,92);fill-rule:nonzero;"/>
            </g>
            <g transform="matrix(50.5227,0,0,50.5227,901.912,1133.43)">
                <path d="M0.06,-0L0.06,-0.7L0.276,-0.7C0.313,-0.7 0.347,-0.691 0.376,-0.673C0.406,-0.655 0.43,-0.631 0.448,-0.6C0.465,-0.57 0.474,-0.536 0.474,-0.497C0.474,-0.459 0.465,-0.424 0.447,-0.394C0.429,-0.363 0.405,-0.339 0.375,-0.321C0.345,-0.303 0.312,-0.294 0.276,-0.294L0.114,-0.294L0.114,-0L0.06,-0ZM0.114,-0.348L0.273,-0.348C0.3,-0.348 0.324,-0.355 0.347,-0.368C0.369,-0.381 0.387,-0.399 0.4,-0.422C0.413,-0.445 0.42,-0.471 0.42,-0.499C0.42,-0.528 0.413,-0.554 0.4,-0.577C0.387,-0.6 0.369,-0.618 0.347,-0.631C0.324,-0.644 0.3,-0.651 0.273,-0.651L0.114,-0.651L0.114,-0.348Z" style="fill:rgb(247,46,92);fill-rule:nonzero;"/>
            </g>
            <g transform="matrix(50.5227,0,0,50.5227,927.961,1133.43)">
                <path d="M0.06,-0L0.06,-0.7L0.468,-0.7L0.468,-0.646L0.114,-0.646L0.114,-0.402L0.42,-0.402L0.42,-0.348L0.114,-0.348L0.114,-0L0.06,-0Z" style="fill:rgb(247,46,92);fill-rule:nonzero;"/>
            </g>
            <g transform="matrix(50.5227,0,0,50.5227,964.242,1133.43)">
                <path d="M0.114,0.25L0.06,0.25L0.06,-0.5L0.114,-0.5L0.114,-0.397C0.132,-0.432 0.156,-0.46 0.188,-0.481C0.22,-0.502 0.258,-0.513 0.302,-0.513C0.339,-0.513 0.373,-0.506 0.405,-0.493C0.436,-0.479 0.464,-0.46 0.488,-0.436C0.512,-0.412 0.531,-0.384 0.545,-0.352C0.559,-0.32 0.565,-0.286 0.565,-0.25C0.565,-0.214 0.559,-0.18 0.545,-0.148C0.531,-0.116 0.512,-0.087 0.488,-0.063C0.464,-0.039 0.436,-0.02 0.405,-0.007C0.373,0.007 0.339,0.014 0.302,0.014C0.258,0.014 0.22,0.003 0.188,-0.018C0.156,-0.039 0.132,-0.067 0.114,-0.102L0.114,0.25ZM0.302,-0.46C0.264,-0.46 0.231,-0.451 0.204,-0.432C0.176,-0.413 0.155,-0.388 0.14,-0.356C0.126,-0.325 0.118,-0.289 0.118,-0.25C0.118,-0.212 0.125,-0.176 0.14,-0.144C0.155,-0.112 0.176,-0.087 0.203,-0.068C0.231,-0.049 0.264,-0.039 0.302,-0.039C0.34,-0.039 0.374,-0.048 0.406,-0.067C0.437,-0.086 0.463,-0.111 0.482,-0.143C0.501,-0.175 0.511,-0.21 0.511,-0.25C0.511,-0.288 0.501,-0.324 0.483,-0.355C0.464,-0.387 0.439,-0.413 0.407,-0.432C0.376,-0.451 0.341,-0.46 0.302,-0.46Z" style="fill:rgb(247,46,92);fill-rule:nonzero;"/>
            </g>
            <g transform="matrix(50.5227,0,0,50.5227,994.07,1133.43)">
                <path d="M0.06,-0L0.06,-0.5L0.114,-0.5L0.114,-0.424C0.132,-0.451 0.156,-0.473 0.185,-0.489C0.215,-0.506 0.247,-0.514 0.283,-0.514C0.302,-0.514 0.321,-0.511 0.339,-0.507L0.317,-0.454C0.302,-0.458 0.288,-0.46 0.275,-0.46C0.245,-0.46 0.218,-0.452 0.194,-0.438C0.17,-0.424 0.15,-0.404 0.136,-0.38C0.121,-0.356 0.114,-0.329 0.114,-0.299L0.114,-0L0.06,-0Z" style="fill:rgb(247,46,92);fill-rule:nonzero;"/>
            </g>
            <g transform="matrix(50.5227,0,0,50.5227,1010.01,1133.43)">
                <path d="M0.28,0.013C0.234,0.013 0.192,0.001 0.154,-0.023C0.116,-0.046 0.086,-0.078 0.064,-0.118C0.041,-0.158 0.03,-0.202 0.03,-0.25C0.03,-0.287 0.037,-0.321 0.05,-0.353C0.063,-0.385 0.08,-0.413 0.103,-0.437C0.126,-0.461 0.153,-0.48 0.183,-0.494C0.213,-0.507 0.246,-0.514 0.28,-0.514C0.326,-0.514 0.368,-0.502 0.406,-0.479C0.444,-0.455 0.474,-0.423 0.496,-0.383C0.519,-0.343 0.53,-0.299 0.53,-0.25C0.53,-0.214 0.524,-0.18 0.511,-0.148C0.498,-0.116 0.48,-0.088 0.457,-0.064C0.434,-0.04 0.407,-0.021 0.377,-0.008C0.347,0.006 0.315,0.013 0.28,0.013ZM0.28,-0.041C0.317,-0.041 0.35,-0.051 0.38,-0.07C0.409,-0.089 0.433,-0.115 0.45,-0.147C0.467,-0.178 0.476,-0.213 0.476,-0.25C0.476,-0.288 0.467,-0.323 0.45,-0.355C0.432,-0.386 0.409,-0.412 0.379,-0.431C0.35,-0.45 0.317,-0.46 0.28,-0.46C0.243,-0.46 0.21,-0.45 0.18,-0.431C0.15,-0.412 0.127,-0.386 0.11,-0.354C0.093,-0.323 0.084,-0.288 0.084,-0.25C0.084,-0.211 0.093,-0.176 0.111,-0.144C0.128,-0.113 0.152,-0.088 0.182,-0.069C0.212,-0.05 0.244,-0.041 0.28,-0.041Z" style="fill:rgb(247,46,92);fill-rule:nonzero;"/>
            </g>
            <g transform="matrix(50.5227,0,0,50.5227,1037.79,1133.43)">
                <path d="M0.466,-0.5L0.52,-0.5L0.52,0.021C0.52,0.052 0.513,0.081 0.499,0.109C0.486,0.136 0.468,0.161 0.445,0.182C0.422,0.203 0.396,0.22 0.366,0.232C0.337,0.244 0.307,0.25 0.276,0.25C0.241,0.25 0.208,0.242 0.175,0.226C0.143,0.209 0.115,0.188 0.092,0.161C0.068,0.134 0.052,0.105 0.043,0.073L0.093,0.05C0.099,0.077 0.111,0.101 0.13,0.123C0.149,0.145 0.171,0.163 0.197,0.176C0.223,0.189 0.249,0.196 0.276,0.196C0.3,0.196 0.323,0.191 0.346,0.182C0.368,0.172 0.389,0.159 0.407,0.143C0.425,0.127 0.439,0.108 0.45,0.087C0.46,0.066 0.466,0.044 0.466,0.021L0.466,-0.102C0.448,-0.067 0.423,-0.04 0.392,-0.019C0.361,0.002 0.324,0.013 0.283,0.013C0.248,0.013 0.215,0.006 0.185,-0.008C0.154,-0.021 0.127,-0.04 0.104,-0.064C0.081,-0.088 0.063,-0.116 0.05,-0.148C0.037,-0.18 0.03,-0.214 0.03,-0.25C0.03,-0.286 0.037,-0.321 0.05,-0.352C0.063,-0.384 0.081,-0.412 0.104,-0.436C0.127,-0.461 0.154,-0.48 0.185,-0.493C0.215,-0.507 0.248,-0.514 0.283,-0.514C0.324,-0.514 0.361,-0.503 0.392,-0.482C0.423,-0.461 0.448,-0.434 0.466,-0.399L0.466,-0.5ZM0.283,-0.04C0.32,-0.04 0.352,-0.05 0.379,-0.069C0.406,-0.088 0.427,-0.114 0.441,-0.146C0.456,-0.178 0.463,-0.213 0.463,-0.25C0.463,-0.288 0.456,-0.323 0.441,-0.355C0.426,-0.387 0.405,-0.413 0.379,-0.432C0.352,-0.451 0.32,-0.461 0.283,-0.461C0.246,-0.461 0.213,-0.451 0.183,-0.433C0.153,-0.414 0.129,-0.388 0.111,-0.356C0.094,-0.324 0.085,-0.289 0.085,-0.25C0.085,-0.211 0.094,-0.176 0.112,-0.144C0.13,-0.112 0.154,-0.087 0.184,-0.068C0.214,-0.049 0.247,-0.04 0.283,-0.04Z" style="fill:rgb(247,46,92);fill-rule:nonzero;"/>
            </g>
            <g transform="matrix(50.5227,0,0,50.5227,1067.08,1133.43)">
                <path d="M0.06,-0L0.06,-0.5L0.114,-0.5L0.114,-0.424C0.132,-0.451 0.156,-0.473 0.185,-0.489C0.215,-0.506 0.247,-0.514 0.283,-0.514C0.302,-0.514 0.321,-0.511 0.339,-0.507L0.317,-0.454C0.302,-0.458 0.288,-0.46 0.275,-0.46C0.245,-0.46 0.218,-0.452 0.194,-0.438C0.17,-0.424 0.15,-0.404 0.136,-0.38C0.121,-0.356 0.114,-0.329 0.114,-0.299L0.114,-0L0.06,-0Z" style="fill:rgb(247,46,92);fill-rule:nonzero;"/>
            </g>
            <g transform="matrix(50.5227,0,0,50.5227,1083.02,1133.43)">
                <path d="M0.481,-0.5L0.535,-0.5L0.535,-0L0.481,-0L0.48,-0.103C0.463,-0.068 0.439,-0.04 0.407,-0.019C0.376,0.002 0.338,0.013 0.294,0.013C0.258,0.013 0.223,0.006 0.192,-0.008C0.16,-0.021 0.132,-0.04 0.107,-0.065C0.083,-0.089 0.064,-0.117 0.051,-0.149C0.037,-0.181 0.03,-0.215 0.03,-0.252C0.03,-0.288 0.037,-0.322 0.05,-0.354C0.064,-0.385 0.083,-0.413 0.107,-0.437C0.131,-0.461 0.158,-0.48 0.19,-0.494C0.222,-0.507 0.255,-0.514 0.292,-0.514C0.336,-0.514 0.374,-0.503 0.407,-0.482C0.439,-0.46 0.465,-0.432 0.483,-0.398L0.481,-0.5ZM0.293,-0.04C0.332,-0.04 0.365,-0.049 0.392,-0.068C0.42,-0.087 0.441,-0.112 0.455,-0.144C0.47,-0.176 0.477,-0.212 0.477,-0.25C0.477,-0.289 0.47,-0.325 0.455,-0.357C0.44,-0.389 0.419,-0.414 0.392,-0.433C0.364,-0.452 0.331,-0.461 0.293,-0.461C0.255,-0.461 0.22,-0.451 0.188,-0.433C0.157,-0.414 0.131,-0.388 0.113,-0.356C0.094,-0.324 0.085,-0.289 0.085,-0.25C0.085,-0.211 0.094,-0.175 0.114,-0.143C0.133,-0.112 0.158,-0.086 0.19,-0.068C0.222,-0.049 0.256,-0.04 0.293,-0.04Z" style="fill:rgb(247,46,92);fill-rule:nonzero;"/>
            </g>
            <g transform="matrix(50.5227,0,0,50.5227,1112.09,1133.43)">
                <path d="M0.06,-0L0.06,-0.5L0.114,-0.5L0.114,-0.424C0.132,-0.451 0.156,-0.473 0.186,-0.489C0.215,-0.506 0.247,-0.514 0.282,-0.514C0.321,-0.514 0.356,-0.504 0.388,-0.485C0.42,-0.466 0.445,-0.44 0.463,-0.409C0.48,-0.44 0.505,-0.466 0.537,-0.485C0.568,-0.504 0.603,-0.514 0.642,-0.514C0.68,-0.514 0.715,-0.505 0.746,-0.486C0.777,-0.468 0.802,-0.443 0.821,-0.412C0.839,-0.38 0.849,-0.346 0.849,-0.308L0.849,-0L0.795,-0L0.795,-0.297C0.794,-0.326 0.787,-0.353 0.773,-0.378C0.759,-0.402 0.74,-0.422 0.717,-0.437C0.693,-0.452 0.667,-0.46 0.638,-0.46C0.609,-0.46 0.583,-0.453 0.559,-0.439C0.536,-0.425 0.517,-0.406 0.503,-0.381C0.489,-0.357 0.482,-0.329 0.482,-0.297L0.482,-0L0.428,-0L0.428,-0.297C0.428,-0.329 0.42,-0.357 0.406,-0.381C0.392,-0.406 0.373,-0.425 0.35,-0.439C0.326,-0.453 0.299,-0.46 0.271,-0.46C0.242,-0.46 0.216,-0.452 0.192,-0.437C0.168,-0.422 0.149,-0.402 0.135,-0.378C0.121,-0.353 0.114,-0.326 0.114,-0.297L0.114,-0L0.06,-0Z" style="fill:rgb(247,46,92);fill-rule:nonzero;"/>
            </g>
            <g transform="matrix(50.5227,0,0,50.5227,1156.98,1133.43)">
                <path d="M0.2,0.056C0.166,0.025 0.139,-0.011 0.119,-0.051C0.098,-0.091 0.083,-0.135 0.074,-0.181C0.065,-0.227 0.06,-0.274 0.06,-0.322C0.06,-0.349 0.062,-0.378 0.065,-0.407C0.069,-0.436 0.074,-0.465 0.082,-0.493C0.089,-0.521 0.098,-0.548 0.11,-0.574C0.121,-0.6 0.134,-0.623 0.149,-0.645C0.164,-0.667 0.181,-0.685 0.2,-0.7L0.254,-0.7C0.236,-0.682 0.22,-0.662 0.205,-0.64C0.191,-0.618 0.178,-0.595 0.168,-0.57C0.157,-0.545 0.147,-0.52 0.14,-0.493C0.132,-0.466 0.126,-0.438 0.122,-0.409C0.118,-0.381 0.115,-0.352 0.114,-0.322C0.116,-0.27 0.122,-0.221 0.133,-0.175C0.144,-0.129 0.16,-0.087 0.18,-0.049C0.2,-0.011 0.224,0.024 0.254,0.056L0.2,0.056Z" style="fill:rgb(247,46,92);fill-rule:nonzero;"/>
            </g>
            <g transform="matrix(50.5227,0,0,50.5227,1172.32,1133.43)">
                <path d="M0.217,0.01C0.189,0.009 0.162,0.004 0.135,-0.005C0.109,-0.015 0.086,-0.027 0.066,-0.044C0.047,-0.06 0.033,-0.078 0.025,-0.098L0.073,-0.118C0.078,-0.103 0.089,-0.09 0.105,-0.078C0.121,-0.066 0.14,-0.057 0.16,-0.05C0.181,-0.043 0.201,-0.04 0.22,-0.04C0.243,-0.04 0.264,-0.043 0.284,-0.051C0.303,-0.059 0.319,-0.07 0.332,-0.084C0.344,-0.098 0.35,-0.114 0.35,-0.133C0.35,-0.153 0.344,-0.169 0.331,-0.18C0.318,-0.192 0.301,-0.201 0.281,-0.208C0.261,-0.215 0.24,-0.222 0.219,-0.229C0.182,-0.239 0.15,-0.25 0.123,-0.261C0.096,-0.273 0.076,-0.287 0.061,-0.304C0.046,-0.321 0.039,-0.344 0.039,-0.372C0.039,-0.402 0.047,-0.427 0.064,-0.449C0.082,-0.471 0.104,-0.487 0.132,-0.499C0.159,-0.511 0.189,-0.517 0.22,-0.517C0.261,-0.517 0.299,-0.508 0.332,-0.49C0.366,-0.472 0.389,-0.448 0.403,-0.419L0.359,-0.393C0.352,-0.408 0.342,-0.422 0.328,-0.433C0.313,-0.444 0.297,-0.452 0.278,-0.458C0.26,-0.464 0.242,-0.467 0.223,-0.468C0.2,-0.468 0.178,-0.464 0.158,-0.457C0.138,-0.449 0.121,-0.438 0.109,-0.424C0.097,-0.41 0.091,-0.393 0.091,-0.373C0.091,-0.353 0.096,-0.338 0.108,-0.327C0.119,-0.316 0.135,-0.308 0.155,-0.301C0.175,-0.295 0.199,-0.287 0.226,-0.279C0.256,-0.269 0.285,-0.258 0.312,-0.246C0.339,-0.234 0.361,-0.22 0.377,-0.202C0.394,-0.184 0.402,-0.161 0.402,-0.134C0.402,-0.104 0.393,-0.079 0.375,-0.057C0.358,-0.035 0.335,-0.018 0.307,-0.007C0.279,0.005 0.249,0.01 0.217,0.01Z" style="fill:rgb(247,46,92);fill-rule:nonzero;"/>
            </g>
            <g transform="matrix(50.5227,0,0,50.5227,1193.95,1133.43)">
                <path d="M0.05,0.056C0.079,0.024 0.104,-0.011 0.124,-0.049C0.144,-0.087 0.16,-0.129 0.171,-0.175C0.182,-0.221 0.188,-0.27 0.19,-0.322C0.189,-0.352 0.186,-0.381 0.182,-0.409C0.178,-0.438 0.172,-0.466 0.164,-0.493C0.156,-0.52 0.147,-0.545 0.136,-0.57C0.125,-0.595 0.113,-0.618 0.098,-0.64C0.084,-0.662 0.068,-0.682 0.05,-0.7L0.104,-0.7C0.123,-0.685 0.14,-0.667 0.155,-0.645C0.17,-0.623 0.183,-0.6 0.194,-0.574C0.205,-0.548 0.214,-0.521 0.222,-0.493C0.229,-0.465 0.235,-0.436 0.238,-0.407C0.242,-0.378 0.244,-0.349 0.244,-0.322C0.244,-0.274 0.239,-0.227 0.23,-0.181C0.22,-0.135 0.206,-0.091 0.185,-0.051C0.164,-0.011 0.137,0.025 0.104,0.056L0.05,0.056Z" style="fill:rgb(247,46,92);fill-rule:nonzero;"/>
            </g>
        </g>
        <g transform="matrix(2.77533,0,0,2.90299,-1040.35,-1897.78)">
            <g transform="matrix(50.5227,0,0,50.5227,850.816,1133.43)">
                <path d="M0.06,-0L0.195,-0.7L0.231,-0.7L0.435,-0.165L0.637,-0.7L0.673,-0.7L0.809,-0L0.754,-0L0.644,-0.567L0.451,-0.055L0.418,-0.055L0.224,-0.567L0.115,-0L0.06,-0Z" style="fill:rgb(247,46,92);fill-rule:nonzero;"/>
            </g>
            <g transform="matrix(50.5227,0,0,50.5227,892.704,1133.43)">
                <path d="M0.28,0.013C0.234,0.013 0.192,0.001 0.154,-0.023C0.116,-0.046 0.086,-0.078 0.064,-0.118C0.041,-0.158 0.03,-0.202 0.03,-0.25C0.03,-0.287 0.037,-0.321 0.05,-0.353C0.063,-0.385 0.08,-0.413 0.103,-0.437C0.126,-0.461 0.153,-0.48 0.183,-0.494C0.213,-0.507 0.246,-0.514 0.28,-0.514C0.316,-0.514 0.35,-0.507 0.381,-0.493C0.411,-0.479 0.438,-0.459 0.46,-0.433C0.483,-0.407 0.5,-0.377 0.512,-0.342C0.524,-0.307 0.529,-0.269 0.528,-0.228L0.086,-0.228C0.09,-0.192 0.101,-0.161 0.119,-0.132C0.137,-0.104 0.16,-0.082 0.188,-0.066C0.215,-0.049 0.246,-0.041 0.28,-0.041C0.317,-0.041 0.35,-0.051 0.38,-0.07C0.41,-0.09 0.434,-0.117 0.451,-0.151L0.506,-0.138C0.486,-0.094 0.456,-0.057 0.416,-0.029C0.375,-0.001 0.33,0.013 0.28,0.013ZM0.085,-0.274L0.474,-0.274C0.472,-0.308 0.462,-0.34 0.444,-0.369C0.426,-0.397 0.403,-0.42 0.375,-0.438C0.346,-0.455 0.314,-0.464 0.28,-0.464C0.246,-0.464 0.214,-0.455 0.186,-0.438C0.158,-0.421 0.135,-0.399 0.117,-0.37C0.099,-0.341 0.088,-0.309 0.085,-0.274Z" style="fill:rgb(247,46,92);fill-rule:nonzero;"/>
            </g>
            <g transform="matrix(50.5227,0,0,50.5227,920.249,1133.43)">
                <path d="M0.312,-0.446L0.185,-0.446L0.185,-0L0.131,-0L0.131,-0.446L0.036,-0.446L0.036,-0.5L0.131,-0.5L0.131,-0.657L0.185,-0.657L0.185,-0.5L0.312,-0.5L0.312,-0.446Z" style="fill:rgb(247,46,92);fill-rule:nonzero;"/>
            </g>
            <g transform="matrix(50.5227,0,0,50.5227,936.795,1133.43)">
                <path d="M0.481,-0.5L0.535,-0.5L0.535,-0L0.481,-0L0.48,-0.103C0.463,-0.068 0.439,-0.04 0.407,-0.019C0.376,0.002 0.338,0.013 0.294,0.013C0.258,0.013 0.223,0.006 0.192,-0.008C0.16,-0.021 0.132,-0.04 0.107,-0.065C0.083,-0.089 0.064,-0.117 0.051,-0.149C0.037,-0.181 0.03,-0.215 0.03,-0.252C0.03,-0.288 0.037,-0.322 0.05,-0.354C0.064,-0.385 0.083,-0.413 0.107,-0.437C0.131,-0.461 0.158,-0.48 0.19,-0.494C0.222,-0.507 0.255,-0.514 0.292,-0.514C0.336,-0.514 0.374,-0.503 0.407,-0.482C0.439,-0.46 0.465,-0.432 0.483,-0.398L0.481,-0.5ZM0.293,-0.04C0.332,-0.04 0.365,-0.049 0.392,-0.068C0.42,-0.087 0.441,-0.112 0.455,-0.144C0.47,-0.176 0.477,-0.212 0.477,-0.25C0.477,-0.289 0.47,-0.325 0.455,-0.357C0.44,-0.389 0.419,-0.414 0.392,-0.433C0.364,-0.452 0.331,-0.461 0.293,-0.461C0.255,-0.461 0.22,-0.451 0.188,-0.433C0.157,-0.414 0.131,-0.388 0.113,-0.356C0.094,-0.324 0.085,-0.289 0.085,-0.25C0.085,-0.211 0.094,-0.175 0.114,-0.143C0.133,-0.112 0.158,-0.086 0.19,-0.068C0.222,-0.049 0.256,-0.04 0.293,-0.04Z" style="fill:rgb(247,46,92);fill-rule:nonzero;"/>
            </g>
            <g transform="matrix(50.5227,0,0,50.5227,965.361,1133.43)">
                <path d="M0.482,-0.75L0.536,-0.75L0.536,-0L0.482,-0L0.482,-0.103C0.464,-0.068 0.439,-0.04 0.407,-0.019C0.375,0.002 0.337,0.013 0.293,0.013C0.257,0.013 0.223,0.006 0.191,-0.008C0.159,-0.021 0.131,-0.04 0.107,-0.064C0.083,-0.088 0.064,-0.116 0.051,-0.148C0.037,-0.18 0.03,-0.214 0.03,-0.25C0.03,-0.286 0.037,-0.321 0.051,-0.352C0.064,-0.384 0.083,-0.412 0.107,-0.436C0.131,-0.461 0.159,-0.48 0.191,-0.493C0.223,-0.507 0.257,-0.514 0.293,-0.514C0.337,-0.514 0.375,-0.503 0.407,-0.482C0.439,-0.461 0.464,-0.433 0.482,-0.398L0.482,-0.75ZM0.293,-0.04C0.332,-0.04 0.365,-0.049 0.392,-0.068C0.42,-0.087 0.441,-0.112 0.455,-0.144C0.47,-0.176 0.477,-0.212 0.477,-0.25C0.477,-0.289 0.47,-0.325 0.455,-0.357C0.44,-0.389 0.419,-0.414 0.392,-0.433C0.364,-0.452 0.331,-0.461 0.293,-0.461C0.255,-0.461 0.22,-0.451 0.189,-0.433C0.157,-0.414 0.132,-0.388 0.113,-0.356C0.094,-0.324 0.085,-0.289 0.085,-0.25C0.085,-0.211 0.094,-0.175 0.114,-0.143C0.133,-0.112 0.158,-0.086 0.19,-0.068C0.222,-0.049 0.256,-0.04 0.293,-0.04Z" style="fill:rgb(247,46,92);fill-rule:nonzero;"/>
            </g>
            <g transform="matrix(50.5227,0,0,50.5227,995.28,1133.43)">
                <path d="M0.481,-0.5L0.535,-0.5L0.535,-0L0.481,-0L0.48,-0.103C0.463,-0.068 0.439,-0.04 0.407,-0.019C0.376,0.002 0.338,0.013 0.294,0.013C0.258,0.013 0.223,0.006 0.192,-0.008C0.16,-0.021 0.132,-0.04 0.107,-0.065C0.083,-0.089 0.064,-0.117 0.051,-0.149C0.037,-0.181 0.03,-0.215 0.03,-0.252C0.03,-0.288 0.037,-0.322 0.05,-0.354C0.064,-0.385 0.083,-0.413 0.107,-0.437C0.131,-0.461 0.158,-0.48 0.19,-0.494C0.222,-0.507 0.255,-0.514 0.292,-0.514C0.336,-0.514 0.374,-0.503 0.407,-0.482C0.439,-0.46 0.465,-0.432 0.483,-0.398L0.481,-0.5ZM0.293,-0.04C0.332,-0.04 0.365,-0.049 0.392,-0.068C0.42,-0.087 0.441,-0.112 0.455,-0.144C0.47,-0.176 0.477,-0.212 0.477,-0.25C0.477,-0.289 0.47,-0.325 0.455,-0.357C0.44,-0.389 0.419,-0.414 0.392,-0.433C0.364,-0.452 0.331,-0.461 0.293,-0.461C0.255,-0.461 0.22,-0.451 0.188,-0.433C0.157,-0.414 0.131,-0.388 0.113,-0.356C0.094,-0.324 0.085,-0.289 0.085,-0.25C0.085,-0.211 0.094,-0.175 0.114,-0.143C0.133,-0.112 0.158,-0.086 0.19,-0.068C0.222,-0.049 0.256,-0.04 0.293,-0.04Z" style="fill:rgb(247,46,92);fill-rule:nonzero;"/>
            </g>
            <g transform="matrix(50.5227,0,0,50.5227,1024.35,1133.43)">
                <path d="M0.312,-0.446L0.185,-0.446L0.185,-0L0.131,-0L0.131,-0.446L0.036,-0.446L0.036,-0.5L0.131,-0.5L0.131,-0.657L0.185,-0.657L0.185,-0.5L0.312,-0.5L0.312,-0.446Z" style="fill:rgb(247,46,92);fill-rule:nonzero;"/>
            </g>
            <g transform="matrix(50.5227,0,0,50.5227,1040.9,1133.43)">
                <path d="M0.481,-0.5L0.535,-0.5L0.535,-0L0.481,-0L0.48,-0.103C0.463,-0.068 0.439,-0.04 0.407,-0.019C0.376,0.002 0.338,0.013 0.294,0.013C0.258,0.013 0.223,0.006 0.192,-0.008C0.16,-0.021 0.132,-0.04 0.107,-0.065C0.083,-0.089 0.064,-0.117 0.051,-0.149C0.037,-0.181 0.03,-0.215 0.03,-0.252C0.03,-0.288 0.037,-0.322 0.05,-0.354C0.064,-0.385 0.083,-0.413 0.107,-0.437C0.131,-0.461 0.158,-0.48 0.19,-0.494C0.222,-0.507 0.255,-0.514 0.292,-0.514C0.336,-0.514 0.374,-0.503 0.407,-0.482C0.439,-0.46 0.465,-0.432 0.483,-0.398L0.481,-0.5ZM0.293,-0.04C0.332,-0.04 0.365,-0.049 0.392,-0.068C0.42,-0.087 0.441,-0.112 0.455,-0.144C0.47,-0.176 0.477,-0.212 0.477,-0.25C0.477,-0.289 0.47,-0.325 0.455,-0.357C0.44,-0.389 0.419,-0.414 0.392,-0.433C0.364,-0.452 0.331,-0.461 0.293,-0.461C0.255,-0.461 0.22,-0.451 0.188,-0.433C0.157,-0.414 0.131,-0.388 0.113,-0.356C0.094,-0.324 0.085,-0.289 0.085,-0.25C0.085,-0.211 0.094,-0.175 0.114,-0.143C0.133,-0.112 0.158,-0.086 0.19,-0.068C0.222,-0.049 0.256,-0.04 0.293,-0.04Z" style="fill:rgb(247,46,92);fill-rule:nonzero;"/>
            </g>
            <g transform="matrix(50.5227,0,0,50.5227,1082.09,1133.43)">
                <path d="M0.489,-0.7L0.553,-0.7L0.318,-0.317L0.318,-0L0.264,-0L0.264,-0.317L0.03,-0.7L0.094,-0.7L0.291,-0.377L0.489,-0.7Z" style="fill:rgb(247,46,92);fill-rule:nonzero;"/>
            </g>
            <g transform="matrix(50.5227,0,0,50.5227,1105.89,1133.43)">
                <path d="M0.295,-0.7L0.365,-0.7L0.62,-0L0.563,-0L0.505,-0.158L0.155,-0.158L0.098,-0L0.04,-0L0.295,-0.7ZM0.175,-0.212L0.485,-0.212L0.33,-0.638L0.175,-0.212Z" style="fill:rgb(247,46,92);fill-rule:nonzero;"/>
            </g>
            <g transform="matrix(50.5227,0,0,50.5227,1137.23,1133.43)">
                <path d="M0.06,-0L0.195,-0.7L0.231,-0.7L0.435,-0.165L0.637,-0.7L0.673,-0.7L0.809,-0L0.754,-0L0.644,-0.567L0.451,-0.055L0.418,-0.055L0.224,-0.567L0.115,-0L0.06,-0Z" style="fill:rgb(247,46,92);fill-rule:nonzero;"/>
            </g>
            <g transform="matrix(50.5227,0,0,50.5227,1180.3,1133.43)">
                <path d="M0.06,-0L0.06,-0.7L0.114,-0.7L0.114,-0.054L0.445,-0.054L0.445,-0L0.06,-0Z" style="fill:rgb(247,46,92);fill-rule:nonzero;"/>
            </g>
        </g>
        <g transform="matrix(2.77533,0,0,2.90299,-1057.96,-1647.54)">
            <g transform="matrix(50.5227,0,0,50.5227,954.971,1133.43)">
                <path d="M0.302,-0.514C0.351,-0.514 0.395,-0.502 0.435,-0.479C0.475,-0.455 0.507,-0.423 0.53,-0.383C0.554,-0.343 0.566,-0.299 0.566,-0.25C0.566,-0.214 0.559,-0.18 0.545,-0.148C0.532,-0.116 0.513,-0.088 0.488,-0.064C0.464,-0.04 0.436,-0.021 0.405,-0.008C0.373,0.006 0.339,0.013 0.302,0.013C0.258,0.013 0.22,0.002 0.188,-0.019C0.156,-0.04 0.132,-0.068 0.114,-0.103L0.114,-0L0.06,-0L0.06,-0.75L0.114,-0.75L0.114,-0.398C0.132,-0.433 0.156,-0.461 0.188,-0.482C0.22,-0.503 0.258,-0.514 0.302,-0.514ZM0.302,-0.04C0.341,-0.04 0.376,-0.05 0.407,-0.068C0.439,-0.087 0.464,-0.113 0.483,-0.145C0.501,-0.177 0.511,-0.212 0.511,-0.25C0.511,-0.29 0.501,-0.326 0.482,-0.357C0.463,-0.389 0.437,-0.415 0.406,-0.433C0.374,-0.452 0.34,-0.461 0.302,-0.461C0.264,-0.461 0.231,-0.452 0.203,-0.433C0.176,-0.414 0.155,-0.388 0.14,-0.356C0.125,-0.324 0.118,-0.289 0.118,-0.25C0.118,-0.211 0.126,-0.176 0.14,-0.144C0.155,-0.112 0.176,-0.087 0.204,-0.068C0.231,-0.049 0.264,-0.04 0.302,-0.04Z" style="fill:rgb(247,46,92);fill-rule:nonzero;"/>
            </g>
            <g transform="matrix(50.5227,0,0,50.5227,984.385,1133.43)">
                <path d="M0.312,-0.446L0.185,-0.446L0.185,-0L0.131,-0L0.131,-0.446L0.036,-0.446L0.036,-0.5L0.131,-0.5L0.131,-0.657L0.185,-0.657L0.185,-0.5L0.312,-0.5L0.312,-0.446Z" style="fill:rgb(247,46,92);fill-rule:nonzero;"/>
            </g>
            <g transform="matrix(50.5227,0,0,50.5227,1001.61,1133.43)">
                <path d="M0.152,-0.638L0.152,-0.5L0.306,-0.5L0.306,-0.446L0.152,-0.446L0.152,-0L0.098,-0L0.098,-0.446L0.025,-0.446L0.025,-0.5L0.098,-0.5L0.098,-0.638C0.098,-0.661 0.103,-0.682 0.114,-0.701C0.125,-0.719 0.14,-0.734 0.159,-0.745C0.178,-0.756 0.199,-0.762 0.222,-0.762C0.238,-0.762 0.254,-0.759 0.27,-0.752C0.285,-0.746 0.299,-0.736 0.311,-0.724L0.272,-0.686C0.266,-0.693 0.259,-0.698 0.25,-0.702C0.241,-0.706 0.231,-0.708 0.222,-0.708C0.203,-0.708 0.186,-0.701 0.172,-0.688C0.159,-0.674 0.152,-0.658 0.152,-0.638Z" style="fill:rgb(247,46,92);fill-rule:nonzero;"/>
            </g>
            <g transform="matrix(50.5227,0,0,50.5227,1017.41,1133.43)">
                <path d="M0.466,-0.5L0.52,-0.5L0.52,0.021C0.52,0.052 0.513,0.081 0.499,0.109C0.486,0.136 0.468,0.161 0.445,0.182C0.422,0.203 0.396,0.22 0.366,0.232C0.337,0.244 0.307,0.25 0.276,0.25C0.241,0.25 0.208,0.242 0.175,0.226C0.143,0.209 0.115,0.188 0.092,0.161C0.068,0.134 0.052,0.105 0.043,0.073L0.093,0.05C0.099,0.077 0.111,0.101 0.13,0.123C0.149,0.145 0.171,0.163 0.197,0.176C0.223,0.189 0.249,0.196 0.276,0.196C0.3,0.196 0.323,0.191 0.346,0.182C0.368,0.172 0.389,0.159 0.407,0.143C0.425,0.127 0.439,0.108 0.45,0.087C0.46,0.066 0.466,0.044 0.466,0.021L0.466,-0.102C0.448,-0.067 0.423,-0.04 0.392,-0.019C0.361,0.002 0.324,0.013 0.283,0.013C0.248,0.013 0.215,0.006 0.185,-0.008C0.154,-0.021 0.127,-0.04 0.104,-0.064C0.081,-0.088 0.063,-0.116 0.05,-0.148C0.037,-0.18 0.03,-0.214 0.03,-0.25C0.03,-0.286 0.037,-0.321 0.05,-0.352C0.063,-0.384 0.081,-0.412 0.104,-0.436C0.127,-0.461 0.154,-0.48 0.185,-0.493C0.215,-0.507 0.248,-0.514 0.283,-0.514C0.324,-0.514 0.361,-0.503 0.392,-0.482C0.423,-0.461 0.448,-0.434 0.466,-0.399L0.466,-0.5ZM0.283,-0.04C0.32,-0.04 0.352,-0.05 0.379,-0.069C0.406,-0.088 0.427,-0.114 0.441,-0.146C0.456,-0.178 0.463,-0.213 0.463,-0.25C0.463,-0.288 0.456,-0.323 0.441,-0.355C0.426,-0.387 0.405,-0.413 0.379,-0.432C0.352,-0.451 0.32,-0.461 0.283,-0.461C0.246,-0.461 0.213,-0.451 0.183,-0.433C0.153,-0.414 0.129,-0.388 0.111,-0.356C0.094,-0.324 0.085,-0.289 0.085,-0.25C0.085,-0.211 0.094,-0.176 0.112,-0.144C0.13,-0.112 0.154,-0.087 0.184,-0.068C0.214,-0.049 0.247,-0.04 0.283,-0.04Z" style="fill:rgb(247,46,92);fill-rule:nonzero;"/>
            </g>
            <g transform="matrix(50.5227,0,0,50.5227,1046.44,1133.43)">
                <path d="M0.28,0.013C0.234,0.013 0.192,0.001 0.154,-0.023C0.116,-0.046 0.086,-0.078 0.064,-0.118C0.041,-0.158 0.03,-0.202 0.03,-0.25C0.03,-0.287 0.037,-0.321 0.05,-0.353C0.063,-0.385 0.08,-0.413 0.103,-0.437C0.126,-0.461 0.153,-0.48 0.183,-0.494C0.213,-0.507 0.246,-0.514 0.28,-0.514C0.316,-0.514 0.35,-0.507 0.381,-0.493C0.411,-0.479 0.438,-0.459 0.46,-0.433C0.483,-0.407 0.5,-0.377 0.512,-0.342C0.524,-0.307 0.529,-0.269 0.528,-0.228L0.086,-0.228C0.09,-0.192 0.101,-0.161 0.119,-0.132C0.137,-0.104 0.16,-0.082 0.188,-0.066C0.215,-0.049 0.246,-0.041 0.28,-0.041C0.317,-0.041 0.35,-0.051 0.38,-0.07C0.41,-0.09 0.434,-0.117 0.451,-0.151L0.506,-0.138C0.486,-0.094 0.456,-0.057 0.416,-0.029C0.375,-0.001 0.33,0.013 0.28,0.013ZM0.085,-0.274L0.474,-0.274C0.472,-0.308 0.462,-0.34 0.444,-0.369C0.426,-0.397 0.403,-0.42 0.375,-0.438C0.346,-0.455 0.314,-0.464 0.28,-0.464C0.246,-0.464 0.214,-0.455 0.186,-0.438C0.158,-0.421 0.135,-0.399 0.117,-0.37C0.099,-0.341 0.088,-0.309 0.085,-0.274Z" style="fill:rgb(247,46,92);fill-rule:nonzero;"/>
            </g>
            <g transform="matrix(50.5227,0,0,50.5227,1074.42,1133.43)">
                <path d="M0.489,-0.308L0.489,-0L0.435,-0L0.435,-0.299C0.435,-0.329 0.428,-0.356 0.414,-0.38C0.399,-0.404 0.38,-0.424 0.355,-0.438C0.331,-0.452 0.304,-0.46 0.275,-0.46C0.245,-0.46 0.218,-0.452 0.194,-0.438C0.17,-0.424 0.15,-0.404 0.136,-0.38C0.121,-0.356 0.114,-0.329 0.114,-0.299L0.114,-0L0.06,-0L0.06,-0.5L0.114,-0.5L0.114,-0.424C0.132,-0.451 0.156,-0.473 0.185,-0.489C0.215,-0.506 0.247,-0.514 0.283,-0.514C0.321,-0.514 0.355,-0.505 0.387,-0.486C0.418,-0.468 0.443,-0.443 0.461,-0.412C0.48,-0.38 0.489,-0.346 0.489,-0.308Z" style="fill:rgb(247,46,92);fill-rule:nonzero;"/>
            </g>
        </g>
        <g transform="matrix(0.614434,0,0,0.614434,789.853,132.434)">
            <g transform="matrix(0.339354,0,0,0.339354,1164.76,-91.3265)">
                <g transform="matrix(4.88043,0,0,4.88043,108.006,443.233)">
                    <path d="M93.798,59.877L93.798,36.305L35.439,36.305L35.439,128.29L93.798,128.29L93.798,104.718L59.01,104.718L59.01,59.877L93.798,59.877Z" style="fill:rgb(255,190,206);fill-rule:nonzero;"/>
                </g>
                <g transform="matrix(4.88043,0,0,4.88043,108.006,443.233)">
                    <rect x="105.585" y="36.305" width="23.572" height="23.574" style="fill:rgb(253,104,141);"/>
                </g>
                <g transform="matrix(4.88043,0,0,4.88043,108.006,443.233)">
                    <rect x="105.585" y="71.664" width="23.572" height="56.626" style="fill:rgb(253,104,141);"/>
                </g>
                <g transform="matrix(4.88043,0,0,4.88043,51.8163,402.342)">
                    <path d="M11.513,8.379L11.513,172.974L176.108,172.974L176.108,8.379L11.513,8.379ZM152.461,148.489L35.16,148.489L35.16,32.863L152.461,32.863L152.461,148.489Z" style="fill:rgb(253,104,141);fill-rule:nonzero;"/>
                </g>
            </g>
            <g transform="matrix(3.87319,0,0,4.05134,-2141.31,-4340.27)">
                <g transform="matrix(55.1156,0,0,55.1156,952.283,1133.43)">
                    <path d="M0.06,-0.5L0.114,-0.5L0.114,-0L0.06,-0L0.06,-0.5ZM0.088,-0.595C0.078,-0.595 0.07,-0.598 0.064,-0.604C0.057,-0.61 0.054,-0.618 0.054,-0.627C0.054,-0.636 0.057,-0.644 0.064,-0.65C0.07,-0.656 0.078,-0.66 0.088,-0.66C0.097,-0.66 0.104,-0.656 0.111,-0.65C0.117,-0.644 0.121,-0.636 0.121,-0.627C0.121,-0.618 0.117,-0.61 0.111,-0.604C0.105,-0.598 0.097,-0.595 0.088,-0.595Z" style="fill:rgb(247,46,92);fill-rule:nonzero;"/>
                </g>
                <g transform="matrix(55.1156,0,0,55.1156,961.791,1133.43)">
                    <path d="M0.06,-0L0.06,-0.5L0.114,-0.5L0.114,-0.424C0.132,-0.451 0.156,-0.473 0.186,-0.489C0.215,-0.506 0.247,-0.514 0.282,-0.514C0.321,-0.514 0.356,-0.504 0.388,-0.485C0.42,-0.466 0.445,-0.44 0.463,-0.409C0.48,-0.44 0.505,-0.466 0.537,-0.485C0.568,-0.504 0.603,-0.514 0.642,-0.514C0.68,-0.514 0.715,-0.505 0.746,-0.486C0.777,-0.468 0.802,-0.443 0.821,-0.412C0.839,-0.38 0.849,-0.346 0.849,-0.308L0.849,-0L0.795,-0L0.795,-0.297C0.794,-0.326 0.787,-0.353 0.773,-0.378C0.759,-0.402 0.74,-0.422 0.717,-0.437C0.693,-0.452 0.667,-0.46 0.638,-0.46C0.609,-0.46 0.583,-0.453 0.559,-0.439C0.536,-0.425 0.517,-0.406 0.503,-0.381C0.489,-0.357 0.482,-0.329 0.482,-0.297L0.482,-0L0.428,-0L0.428,-0.297C0.428,-0.329 0.42,-0.357 0.406,-0.381C0.392,-0.406 0.373,-0.425 0.35,-0.439C0.326,-0.453 0.299,-0.46 0.271,-0.46C0.242,-0.46 0.216,-0.452 0.192,-0.437C0.168,-0.422 0.149,-0.402 0.135,-0.378C0.121,-0.353 0.114,-0.326 0.114,-0.297L0.114,-0L0.06,-0Z" style="fill:rgb(247,46,92);fill-rule:nonzero;"/>
                </g>
                <g transform="matrix(55.1156,0,0,55.1156,1010.21,1133.43)">
                    <path d="M0.481,-0.5L0.535,-0.5L0.535,-0L0.481,-0L0.48,-0.103C0.463,-0.068 0.439,-0.04 0.407,-0.019C0.376,0.002 0.338,0.013 0.294,0.013C0.258,0.013 0.223,0.006 0.192,-0.008C0.16,-0.021 0.132,-0.04 0.107,-0.065C0.083,-0.089 0.064,-0.117 0.051,-0.149C0.037,-0.181 0.03,-0.215 0.03,-0.252C0.03,-0.288 0.037,-0.322 0.05,-0.354C0.064,-0.385 0.083,-0.413 0.107,-0.437C0.131,-0.461 0.158,-0.48 0.19,-0.494C0.222,-0.507 0.255,-0.514 0.292,-0.514C0.336,-0.514 0.374,-0.503 0.407,-0.482C0.439,-0.46 0.465,-0.432 0.483,-0.398L0.481,-0.5ZM0.293,-0.04C0.332,-0.04 0.365,-0.049 0.392,-0.068C0.42,-0.087 0.441,-0.112 0.455,-0.144C0.47,-0.176 0.477,-0.212 0.477,-0.25C0.477,-0.289 0.47,-0.325 0.455,-0.357C0.44,-0.389 0.419,-0.414 0.392,-0.433C0.364,-0.452 0.331,-0.461 0.293,-0.461C0.255,-0.461 0.22,-0.451 0.188,-0.433C0.157,-0.414 0.131,-0.388 0.113,-0.356C0.094,-0.324 0.085,-0.289 0.085,-0.25C0.085,-0.211 0.094,-0.175 0.114,-0.143C0.133,-0.112 0.158,-0.086 0.19,-0.068C0.222,-0.049 0.256,-0.04 0.293,-0.04Z" style="fill:rgb(247,46,92);fill-rule:nonzero;"/>
                </g>
                <g transform="matrix(55.1156,0,0,55.1156,1041.37,1133.43)">
                    <path d="M0.466,-0.5L0.52,-0.5L0.52,0.021C0.52,0.052 0.513,0.081 0.499,0.109C0.486,0.136 0.468,0.161 0.445,0.182C0.422,0.203 0.396,0.22 0.366,0.232C0.337,0.244 0.307,0.25 0.276,0.25C0.241,0.25 0.208,0.242 0.175,0.226C0.143,0.209 0.115,0.188 0.092,0.161C0.068,0.134 0.052,0.105 0.043,0.073L0.093,0.05C0.099,0.077 0.111,0.101 0.13,0.123C0.149,0.145 0.171,0.163 0.197,0.176C0.223,0.189 0.249,0.196 0.276,0.196C0.3,0.196 0.323,0.191 0.346,0.182C0.368,0.172 0.389,0.159 0.407,0.143C0.425,0.127 0.439,0.108 0.45,0.087C0.46,0.066 0.466,0.044 0.466,0.021L0.466,-0.102C0.448,-0.067 0.423,-0.04 0.392,-0.019C0.361,0.002 0.324,0.013 0.283,0.013C0.248,0.013 0.215,0.006 0.185,-0.008C0.154,-0.021 0.127,-0.04 0.104,-0.064C0.081,-0.088 0.063,-0.116 0.05,-0.148C0.037,-0.18 0.03,-0.214 0.03,-0.25C0.03,-0.286 0.037,-0.321 0.05,-0.352C0.063,-0.384 0.081,-0.412 0.104,-0.436C0.127,-0.461 0.154,-0.48 0.185,-0.493C0.215,-0.507 0.248,-0.514 0.283,-0.514C0.324,-0.514 0.361,-0.503 0.392,-0.482C0.423,-0.461 0.448,-0.434 0.466,-0.399L0.466,-0.5ZM0.283,-0.04C0.32,-0.04 0.352,-0.05 0.379,-0.069C0.406,-0.088 0.427,-0.114 0.441,-0.146C0.456,-0.178 0.463,-0.213 0.463,-0.25C0.463,-0.288 0.456,-0.323 0.441,-0.355C0.426,-0.387 0.405,-0.413 0.379,-0.432C0.352,-0.451 0.32,-0.461 0.283,-0.461C0.246,-0.461 0.213,-0.451 0.183,-0.433C0.153,-0.414 0.129,-0.388 0.111,-0.356C0.094,-0.324 0.085,-0.289 0.085,-0.25C0.085,-0.211 0.094,-0.176 0.112,-0.144C0.13,-0.112 0.154,-0.087 0.184,-0.068C0.214,-0.049 0.247,-0.04 0.283,-0.04Z" style="fill:rgb(247,46,92);fill-rule:nonzero;"/>
                </g>
                <g transform="matrix(55.1156,0,0,55.1156,1073.05,1133.43)">
                    <path d="M0.28,0.013C0.234,0.013 0.192,0.001 0.154,-0.023C0.116,-0.046 0.086,-0.078 0.064,-0.118C0.041,-0.158 0.03,-0.202 0.03,-0.25C0.03,-0.287 0.037,-0.321 0.05,-0.353C0.063,-0.385 0.08,-0.413 0.103,-0.437C0.126,-0.461 0.153,-0.48 0.183,-0.494C0.213,-0.507 0.246,-0.514 0.28,-0.514C0.316,-0.514 0.35,-0.507 0.381,-0.493C0.411,-0.479 0.438,-0.459 0.46,-0.433C0.483,-0.407 0.5,-0.377 0.512,-0.342C0.524,-0.307 0.529,-0.269 0.528,-0.228L0.086,-0.228C0.09,-0.192 0.101,-0.161 0.119,-0.132C0.137,-0.104 0.16,-0.082 0.188,-0.066C0.215,-0.049 0.246,-0.041 0.28,-0.041C0.317,-0.041 0.35,-0.051 0.38,-0.07C0.41,-0.09 0.434,-0.117 0.451,-0.151L0.506,-0.138C0.486,-0.094 0.456,-0.057 0.416,-0.029C0.375,-0.001 0.33,0.013 0.28,0.013ZM0.085,-0.274L0.474,-0.274C0.472,-0.308 0.462,-0.34 0.444,-0.369C0.426,-0.397 0.403,-0.42 0.375,-0.438C0.346,-0.455 0.314,-0.464 0.28,-0.464C0.246,-0.464 0.214,-0.455 0.186,-0.438C0.158,-0.421 0.135,-0.399 0.117,-0.37C0.099,-0.341 0.088,-0.309 0.085,-0.274Z" style="fill:rgb(247,46,92);fill-rule:nonzero;"/>
                </g>
            </g>
        </g>
        <g transform="matrix(0.952712,0,0,0.976814,85.1928,6.81811)">
            <path d="M2171.28,245.779C2171.28,243.142 2173.47,241.002 2176.17,241.002C2178.88,241.002 2181.07,243.142 2181.07,245.779L2181.07,254.173L2186.17,254.173C2188.88,254.173 2191.07,256.314 2191.07,258.951C2191.07,261.588 2188.88,263.728 2186.17,263.728L2176.17,263.728C2173.47,263.728 2171.28,261.589 2171.28,258.951L2171.28,245.779ZM2216.17,263.728C2213.47,263.728 2211.27,261.588 2211.27,258.951C2211.27,256.314 2213.47,254.173 2216.17,254.173L2236.17,254.173C2238.87,254.173 2241.07,256.314 2241.07,258.951C2241.07,261.588 2238.87,263.728 2236.17,263.728L2216.17,263.728ZM2266.16,263.728C2263.46,263.728 2261.27,261.588 2261.27,258.951C2261.27,256.314 2263.46,254.173 2266.16,254.173L2286.16,254.173C2288.87,254.173 2291.06,256.314 2291.06,258.951C2291.06,261.588 2288.87,263.728 2286.16,263.728L2266.16,263.728ZM2316.16,263.728C2313.46,263.728 2311.26,261.588 2311.26,258.951C2311.26,256.314 2313.46,254.173 2316.16,254.173L2336.16,254.173C2338.86,254.173 2341.06,256.314 2341.06,258.951C2341.06,261.588 2338.86,263.728 2336.16,263.728L2316.16,263.728ZM2366.15,263.728C2363.45,263.728 2361.26,261.588 2361.26,258.951C2361.26,256.314 2363.45,254.173 2366.15,254.173L2386.15,254.173C2388.86,254.173 2391.05,256.314 2391.05,258.951C2391.05,261.588 2388.86,263.728 2386.15,263.728L2366.15,263.728ZM2416.15,263.728C2413.45,263.728 2411.25,261.588 2411.25,258.951C2411.25,256.314 2413.45,254.173 2416.15,254.173L2436.15,254.173C2438.85,254.173 2441.04,256.314 2441.04,258.951C2441.04,261.588 2438.85,263.728 2436.15,263.728L2416.15,263.728ZM2466.14,263.728C2463.44,263.728 2461.24,261.588 2461.24,258.951C2461.24,256.314 2463.44,254.173 2466.14,254.173L2486.14,254.173C2488.84,254.173 2491.04,256.314 2491.04,258.951C2491.04,261.588 2488.84,263.728 2486.14,263.728L2466.14,263.728ZM2516.14,263.728C2513.43,263.728 2511.24,261.588 2511.24,258.951C2511.24,256.314 2513.43,254.173 2516.14,254.173L2536.14,254.173C2538.84,254.173 2541.03,256.314 2541.03,258.951C2541.03,261.588 2538.84,263.728 2536.14,263.728L2516.14,263.728ZM2566.13,263.728C2563.43,263.728 2561.24,261.588 2561.24,258.951C2561.24,256.314 2563.43,254.173 2566.13,254.173L2586.13,254.173C2588.83,254.173 2591.03,256.314 2591.03,258.951C2591.03,261.588 2588.83,263.728 2586.13,263.728L2566.13,263.728ZM2616.13,263.728C2613.42,263.728 2611.23,261.588 2611.23,258.951C2611.23,256.314 2613.42,254.173 2616.13,254.173L2636.13,254.173C2638.83,254.173 2641.02,256.314 2641.02,258.951C2641.02,261.588 2638.83,263.728 2636.13,263.728L2616.13,263.728ZM2666.12,263.728C2663.42,263.728 2661.22,261.588 2661.22,258.951C2661.22,256.314 2663.42,254.173 2666.12,254.173L2686.12,254.173C2688.82,254.173 2691.02,256.314 2691.02,258.951C2691.02,261.588 2688.82,263.728 2686.12,263.728L2666.12,263.728ZM2716.12,263.728C2713.41,263.728 2711.22,261.588 2711.22,258.951C2711.22,256.314 2713.41,254.173 2716.12,254.173L2726.12,254.173C2728.82,254.173 2731.01,256.312 2731.01,258.951L2731.01,268.789C2731.01,271.425 2728.82,273.566 2726.12,273.566C2723.41,273.566 2721.22,271.425 2721.22,268.789L2721.22,263.728L2716.12,263.728ZM2721.22,298.303C2721.22,295.667 2723.41,293.526 2726.12,293.526C2728.82,293.526 2731.01,295.667 2731.01,298.303L2731.01,317.98C2731.01,320.617 2728.82,322.757 2726.12,322.757C2723.41,322.757 2721.22,320.617 2721.22,317.98L2721.22,298.303ZM2721.22,347.493C2721.22,344.856 2723.41,342.715 2726.12,342.715C2728.82,342.715 2731.01,344.856 2731.01,347.493L2731.01,367.169C2731.01,369.805 2728.82,371.946 2726.12,371.946C2723.41,371.946 2721.22,369.805 2721.22,367.169L2721.22,347.493ZM2721.22,396.685C2721.22,394.048 2723.41,391.908 2726.12,391.908C2728.82,391.908 2731.01,394.048 2731.01,396.685L2731.01,416.361C2731.01,418.998 2728.82,421.139 2726.12,421.139C2723.41,421.139 2721.22,418.998 2721.22,416.361L2721.22,396.685ZM2721.22,445.876C2721.22,443.239 2723.41,441.098 2726.12,441.098C2728.82,441.098 2731.01,443.239 2731.01,445.876L2731.01,465.551C2731.01,468.188 2728.82,470.329 2726.12,470.329C2723.41,470.329 2721.22,468.188 2721.22,465.551L2721.22,445.876ZM2721.22,495.067C2721.22,492.43 2723.41,490.289 2726.12,490.289C2728.82,490.289 2731.01,492.43 2731.01,495.067L2731.01,514.744C2731.01,517.38 2728.82,519.521 2726.12,519.521C2723.41,519.521 2721.22,517.38 2721.22,514.744L2721.22,495.067ZM2721.22,544.256C2721.22,541.619 2723.41,539.478 2726.12,539.478C2728.82,539.478 2731.01,541.619 2731.01,544.256L2731.01,563.933C2731.01,566.569 2728.82,568.71 2726.12,568.71C2723.41,568.71 2721.22,566.569 2721.22,563.933L2721.22,544.256ZM2721.22,593.446C2721.22,590.809 2723.41,588.668 2726.12,588.668C2728.82,588.668 2731.01,590.809 2731.01,593.446L2731.01,613.122C2731.01,615.759 2728.82,617.9 2726.12,617.9C2723.41,617.9 2721.22,615.759 2721.22,613.122L2721.22,593.446ZM2721.22,642.637C2721.22,640 2723.41,637.859 2726.12,637.859C2728.82,637.859 2731.01,640 2731.01,642.637L2731.01,662.314C2731.01,664.951 2728.82,667.092 2726.12,667.092C2723.41,667.092 2721.22,664.951 2721.22,662.314L2721.22,642.637ZM2721.22,691.827C2721.22,689.191 2723.41,687.05 2726.12,687.05C2728.82,687.05 2731.01,689.191 2731.01,691.827L2731.01,711.502C2731.01,714.139 2728.82,716.28 2726.12,716.28C2723.41,716.28 2721.22,714.139 2721.22,711.502L2721.22,691.827ZM2721.22,741.019C2721.22,738.382 2723.41,736.241 2726.12,736.241C2728.82,736.241 2731.01,738.382 2731.01,741.019L2731.01,760.694C2731.01,763.33 2728.82,765.471 2726.12,765.471C2723.41,765.471 2721.22,763.33 2721.22,760.694L2721.22,741.019ZM2721.22,790.21C2721.22,787.573 2723.41,785.432 2726.12,785.432C2728.82,785.432 2731.01,787.573 2731.01,790.21L2731.01,809.887C2731.01,812.524 2728.82,814.665 2726.12,814.665C2723.41,814.665 2721.22,812.524 2721.22,809.887L2721.22,790.21ZM2721.22,839.401C2721.22,836.764 2723.41,834.623 2726.12,834.623C2728.82,834.623 2731.01,836.764 2731.01,839.401L2731.01,859.076C2731.01,861.713 2728.82,863.853 2726.12,863.853C2723.41,863.853 2721.22,861.713 2721.22,859.076L2721.22,839.401ZM2721.22,888.591C2721.22,885.954 2723.41,883.813 2726.12,883.813C2728.82,883.813 2731.01,885.954 2731.01,888.591L2731.01,908.267C2731.01,910.903 2728.82,913.044 2726.12,913.044C2723.41,913.044 2721.22,910.903 2721.22,908.267L2721.22,888.591ZM2721.22,937.779C2721.22,935.142 2723.41,933.001 2726.12,933.001C2728.82,933.001 2731.01,935.142 2731.01,937.779L2731.01,957.455C2731.01,960.092 2728.82,962.233 2726.12,962.233C2723.41,962.233 2721.22,960.092 2721.22,957.455L2721.22,937.779ZM2721.22,986.969C2721.22,984.332 2723.41,982.192 2726.12,982.192C2728.82,982.192 2731.01,984.332 2731.01,986.969L2731.01,1006.65C2731.01,1009.28 2728.82,1011.42 2726.12,1011.42C2723.41,1011.42 2721.22,1009.28 2721.22,1006.65L2721.22,986.969ZM2721.22,1036.16C2721.22,1033.52 2723.41,1031.38 2726.12,1031.38C2728.82,1031.38 2731.01,1033.52 2731.01,1036.16L2731.01,1055.83C2731.01,1058.47 2728.82,1060.61 2726.12,1060.61C2723.41,1060.61 2721.22,1058.47 2721.22,1055.83L2721.22,1036.16ZM2721.22,1085.35C2721.22,1082.71 2723.41,1080.57 2726.12,1080.57C2728.82,1080.57 2731.01,1082.71 2731.01,1085.35L2731.01,1105.03C2731.01,1107.66 2728.82,1109.8 2726.12,1109.8C2723.41,1109.8 2721.22,1107.66 2721.22,1105.03L2721.22,1085.35ZM2721.22,1134.54C2721.22,1131.9 2723.41,1129.76 2726.12,1129.76C2728.82,1129.76 2731.01,1131.9 2731.01,1134.54L2731.01,1154.21C2731.01,1156.85 2728.82,1158.99 2726.12,1158.99C2723.41,1158.99 2721.22,1156.85 2721.22,1154.21L2721.22,1134.54ZM2721.22,1183.73C2721.22,1181.1 2723.41,1178.95 2726.12,1178.95C2728.82,1178.95 2731.01,1181.1 2731.01,1183.73L2731.01,1203.41C2731.01,1206.05 2728.82,1208.18 2726.12,1208.18C2723.41,1208.18 2721.22,1206.05 2721.22,1203.41L2721.22,1183.73ZM2721.22,1232.92C2721.22,1230.29 2723.41,1228.14 2726.12,1228.14C2728.82,1228.14 2731.01,1230.29 2731.01,1232.92L2731.01,1252.6C2731.01,1255.24 2728.82,1257.38 2726.12,1257.38C2723.41,1257.38 2721.22,1255.24 2721.22,1252.6L2721.22,1232.92ZM2721.22,1282.11C2721.22,1279.48 2723.41,1277.33 2726.12,1277.33C2728.82,1277.33 2731.01,1279.48 2731.01,1282.11L2731.01,1301.79C2731.01,1304.42 2728.82,1306.57 2726.12,1306.57C2723.41,1306.57 2721.22,1304.42 2721.22,1301.79L2721.22,1282.11ZM2721.22,1331.3C2721.22,1328.66 2723.41,1326.52 2726.12,1326.52C2728.82,1326.52 2731.01,1328.66 2731.01,1331.3L2731.01,1350.98C2731.01,1353.62 2728.82,1355.76 2726.12,1355.76C2723.41,1355.76 2721.22,1353.62 2721.22,1350.98L2721.22,1331.3ZM2721.22,1380.5C2721.22,1377.86 2723.41,1375.72 2726.12,1375.72C2728.82,1375.72 2731.01,1377.86 2731.01,1380.5L2731.01,1400.17C2731.01,1402.81 2728.82,1404.95 2726.12,1404.95C2723.41,1404.95 2721.22,1402.81 2721.22,1400.17L2721.22,1380.5ZM2721.22,1429.68C2721.22,1427.05 2723.41,1424.91 2726.12,1424.91C2728.82,1424.91 2731.01,1427.05 2731.01,1429.68L2731.01,1449.36C2731.01,1452 2728.82,1454.14 2726.12,1454.14C2723.41,1454.14 2721.22,1452 2721.22,1449.36L2721.22,1429.68ZM2721.22,1478.88C2721.22,1476.24 2723.41,1474.1 2726.12,1474.1C2728.82,1474.1 2731.01,1476.24 2731.01,1478.88L2731.01,1498.55C2731.01,1501.19 2728.82,1503.33 2726.12,1503.33C2723.41,1503.33 2721.22,1501.19 2721.22,1498.55L2721.22,1478.88ZM2721.22,1528.07C2721.22,1525.43 2723.41,1523.29 2726.12,1523.29C2728.82,1523.29 2731.01,1525.43 2731.01,1528.07L2731.01,1547.74C2731.01,1550.38 2728.82,1552.52 2726.12,1552.52C2723.41,1552.52 2721.22,1550.38 2721.22,1547.74L2721.22,1528.07ZM2721.22,1577.26C2721.22,1574.62 2723.41,1572.48 2726.12,1572.48C2728.82,1572.48 2731.01,1574.62 2731.01,1577.26L2731.01,1596.93C2731.01,1599.57 2728.82,1601.71 2726.12,1601.71C2723.41,1601.71 2721.22,1599.57 2721.22,1596.93L2721.22,1577.26ZM2721.22,1626.45C2721.22,1623.81 2723.41,1621.67 2726.12,1621.67C2728.82,1621.67 2731.01,1623.81 2731.01,1626.45L2731.01,1646.12C2731.01,1648.76 2728.82,1650.9 2726.12,1650.9C2723.41,1650.9 2721.22,1648.76 2721.22,1646.12L2721.22,1626.45ZM2721.22,1675.64C2721.22,1673 2723.41,1670.86 2726.12,1670.86C2728.82,1670.86 2731.01,1673 2731.01,1675.64L2731.01,1695.31C2731.01,1697.95 2728.82,1700.09 2726.12,1700.09C2723.41,1700.09 2721.22,1697.95 2721.22,1695.31L2721.22,1675.64ZM2721.22,1724.83C2721.22,1722.19 2723.41,1720.05 2726.12,1720.05C2728.82,1720.05 2731.01,1722.19 2731.01,1724.83L2731.01,1744.5C2731.01,1747.14 2728.82,1749.28 2726.12,1749.28C2723.41,1749.28 2721.22,1747.14 2721.22,1744.5L2721.22,1724.83ZM2721.22,1774.02C2721.22,1771.38 2723.41,1769.24 2726.12,1769.24C2728.82,1769.24 2731.01,1771.38 2731.01,1774.02L2731.01,1793.69C2731.01,1796.33 2728.82,1798.47 2726.12,1798.47C2723.41,1798.47 2721.22,1796.33 2721.22,1793.69L2721.22,1774.02ZM2721.22,1823.21C2721.22,1820.57 2723.41,1818.43 2726.12,1818.43C2728.82,1818.43 2731.01,1820.57 2731.01,1823.21L2731.01,1842.88C2731.01,1845.52 2728.82,1847.66 2726.12,1847.66C2723.41,1847.66 2721.22,1845.52 2721.22,1842.88L2721.22,1823.21ZM2721.22,1872.4C2721.22,1869.76 2723.41,1867.62 2726.12,1867.62C2728.82,1867.62 2731.01,1869.76 2731.01,1872.4L2731.01,1882.24C2731.01,1884.88 2728.82,1887.01 2726.12,1887.01L2716.3,1887.01C2713.6,1887.01 2711.4,1884.87 2711.4,1882.24C2711.4,1879.6 2713.6,1877.46 2716.3,1877.46L2721.22,1877.46L2721.22,1872.4ZM2686.86,1877.46C2689.56,1877.46 2691.76,1879.6 2691.76,1882.24C2691.76,1884.87 2689.56,1887.01 2686.86,1887.01L2667.23,1887.01C2664.53,1887.01 2662.33,1884.87 2662.33,1882.24C2662.33,1879.6 2664.53,1877.46 2667.23,1877.46L2686.86,1877.46ZM2637.79,1877.46C2640.49,1877.46 2642.69,1879.6 2642.69,1882.24C2642.69,1884.87 2640.49,1887.01 2637.79,1887.01L2618.16,1887.01C2615.46,1887.01 2613.26,1884.87 2613.26,1882.24C2613.26,1879.6 2615.46,1877.46 2618.16,1877.46L2637.79,1877.46ZM2588.72,1877.46C2591.42,1877.46 2593.62,1879.6 2593.62,1882.24C2593.62,1884.87 2591.42,1887.01 2588.72,1887.01L2569.09,1887.01C2566.39,1887.01 2564.2,1884.87 2564.2,1882.24C2564.2,1879.6 2566.39,1877.46 2569.09,1877.46L2588.72,1877.46ZM2539.65,1877.46C2542.35,1877.46 2544.55,1879.6 2544.55,1882.24C2544.55,1884.87 2542.35,1887.01 2539.65,1887.01L2520.02,1887.01C2517.32,1887.01 2515.13,1884.87 2515.13,1882.24C2515.13,1879.6 2517.32,1877.46 2520.02,1877.46L2539.65,1877.46ZM2490.58,1877.46C2493.28,1877.46 2495.48,1879.6 2495.48,1882.24C2495.48,1884.87 2493.28,1887.01 2490.58,1887.01L2470.95,1887.01C2468.25,1887.01 2466.05,1884.87 2466.05,1882.24C2466.05,1879.6 2468.25,1877.46 2470.95,1877.46L2490.58,1877.46ZM2441.51,1877.46C2444.21,1877.46 2446.41,1879.6 2446.41,1882.24C2446.41,1884.87 2444.21,1887.01 2441.51,1887.01L2421.88,1887.01C2419.18,1887.01 2416.98,1884.87 2416.98,1882.24C2416.98,1879.6 2419.18,1877.46 2421.88,1877.46L2441.51,1877.46ZM2392.45,1877.46C2395.15,1877.46 2397.34,1879.6 2397.34,1882.24C2397.34,1884.87 2395.15,1887.01 2392.45,1887.01L2372.82,1887.01C2370.11,1887.01 2367.92,1884.87 2367.92,1882.24C2367.92,1879.6 2370.11,1877.46 2372.82,1877.46L2392.45,1877.46ZM2343.37,1877.46C2346.08,1877.46 2348.27,1879.6 2348.27,1882.24C2348.27,1884.87 2346.08,1887.01 2343.37,1887.01L2323.75,1887.01C2321.04,1887.01 2318.85,1884.87 2318.85,1882.24C2318.85,1879.6 2321.04,1877.46 2323.75,1877.46L2343.37,1877.46ZM2294.31,1877.46C2297.01,1877.46 2299.2,1879.6 2299.2,1882.24C2299.2,1884.87 2297.01,1887.01 2294.31,1887.01L2274.68,1887.01C2271.97,1887.01 2269.78,1884.87 2269.78,1882.24C2269.78,1879.6 2271.97,1877.46 2274.68,1877.46L2294.31,1877.46ZM2245.23,1877.46C2247.94,1877.46 2250.13,1879.6 2250.13,1882.24C2250.13,1884.87 2247.94,1887.01 2245.23,1887.01L2225.61,1887.01C2222.9,1887.01 2220.71,1884.87 2220.71,1882.24C2220.71,1879.6 2222.9,1877.46 2225.61,1877.46L2245.23,1877.46ZM2196.17,1877.46C2198.87,1877.46 2201.06,1879.6 2201.06,1882.24C2201.06,1884.87 2198.87,1887.01 2196.17,1887.01L2176.54,1887.01C2173.83,1887.01 2171.64,1884.87 2171.64,1882.24C2171.64,1879.6 2173.83,1877.46 2176.54,1877.46L2196.17,1877.46ZM2147.1,1877.46C2149.8,1877.46 2152,1879.6 2152,1882.24C2152,1884.87 2149.8,1887.01 2147.1,1887.01L2127.47,1887.01C2124.77,1887.01 2122.57,1884.87 2122.57,1882.24C2122.57,1879.6 2124.77,1877.46 2127.47,1877.46L2147.1,1877.46ZM2098.02,1877.46C2100.73,1877.46 2102.92,1879.6 2102.92,1882.24C2102.92,1884.87 2100.73,1887.01 2098.02,1887.01L2078.39,1887.01C2075.69,1887.01 2073.5,1884.87 2073.5,1882.24C2073.5,1879.6 2075.69,1877.46 2078.39,1877.46L2098.02,1877.46ZM2048.96,1877.46C2051.66,1877.46 2053.86,1879.6 2053.86,1882.24C2053.86,1884.87 2051.66,1887.01 2048.96,1887.01L2029.33,1887.01C2026.62,1887.01 2024.43,1884.87 2024.43,1882.24C2024.43,1879.6 2026.62,1877.46 2029.33,1877.46L2048.96,1877.46ZM1999.89,1877.46C2002.59,1877.46 2004.79,1879.6 2004.79,1882.24C2004.79,1884.87 2002.59,1887.01 1999.89,1887.01L1980.26,1887.01C1977.56,1887.01 1975.36,1884.87 1975.36,1882.24C1975.36,1879.6 1977.56,1877.46 1980.26,1877.46L1999.89,1877.46ZM1950.82,1877.46C1953.52,1877.46 1955.72,1879.6 1955.72,1882.24C1955.72,1884.87 1953.52,1887.01 1950.82,1887.01L1931.19,1887.01C1928.49,1887.01 1926.29,1884.87 1926.29,1882.24C1926.29,1879.6 1928.49,1877.46 1931.19,1877.46L1950.82,1877.46ZM1901.75,1877.46C1904.45,1877.46 1906.65,1879.6 1906.65,1882.24C1906.65,1884.87 1904.45,1887.01 1901.75,1887.01L1882.12,1887.01C1879.42,1887.01 1877.22,1884.87 1877.22,1882.24C1877.22,1879.6 1879.42,1877.46 1882.12,1877.46L1901.75,1877.46ZM1852.68,1877.46C1855.38,1877.46 1857.58,1879.6 1857.58,1882.24C1857.58,1884.87 1855.38,1887.01 1852.68,1887.01L1833.05,1887.01C1830.35,1887.01 1828.15,1884.87 1828.15,1882.24C1828.15,1879.6 1830.35,1877.46 1833.05,1877.46L1852.68,1877.46ZM1803.61,1877.46C1806.31,1877.46 1808.51,1879.6 1808.51,1882.24C1808.51,1884.87 1806.31,1887.01 1803.61,1887.01L1783.98,1887.01C1781.28,1887.01 1779.08,1884.87 1779.08,1882.24C1779.08,1879.6 1781.28,1877.46 1783.98,1877.46L1803.61,1877.46ZM1754.54,1877.46C1757.24,1877.46 1759.44,1879.6 1759.44,1882.24C1759.44,1884.87 1757.24,1887.01 1754.54,1887.01L1734.91,1887.01C1732.21,1887.01 1730.01,1884.87 1730.01,1882.24C1730.01,1879.6 1732.21,1877.46 1734.91,1877.46L1754.54,1877.46ZM1705.47,1877.46C1708.17,1877.46 1710.37,1879.6 1710.37,1882.24C1710.37,1884.87 1708.17,1887.01 1705.47,1887.01L1685.84,1887.01C1683.14,1887.01 1680.94,1884.87 1680.94,1882.24C1680.94,1879.6 1683.14,1877.46 1685.84,1877.46L1705.47,1877.46ZM1656.4,1877.46C1659.11,1877.46 1661.3,1879.6 1661.3,1882.24C1661.3,1884.87 1659.11,1887.01 1656.4,1887.01L1636.77,1887.01C1634.07,1887.01 1631.88,1884.87 1631.88,1882.24C1631.88,1879.6 1634.07,1877.46 1636.77,1877.46L1656.4,1877.46ZM1607.33,1877.46C1610.04,1877.46 1612.23,1879.6 1612.23,1882.24C1612.23,1884.87 1610.04,1887.01 1607.33,1887.01L1587.7,1887.01C1585,1887.01 1582.8,1884.87 1582.8,1882.24C1582.8,1879.6 1585,1877.46 1587.7,1877.46L1607.33,1877.46ZM1558.26,1877.46C1560.96,1877.46 1563.16,1879.6 1563.16,1882.24C1563.16,1884.87 1560.96,1887.01 1558.26,1887.01L1538.63,1887.01C1535.93,1887.01 1533.73,1884.87 1533.73,1882.24C1533.73,1879.6 1535.93,1877.46 1538.63,1877.46L1558.26,1877.46ZM1509.19,1877.46C1511.9,1877.46 1514.09,1879.6 1514.09,1882.24C1514.09,1884.87 1511.9,1887.01 1509.19,1887.01L1489.57,1887.01C1486.86,1887.01 1484.67,1884.87 1484.67,1882.24C1484.67,1879.6 1486.86,1877.46 1489.57,1877.46L1509.19,1877.46ZM1460.12,1877.46C1462.83,1877.46 1465.02,1879.6 1465.02,1882.24C1465.02,1884.87 1462.83,1887.01 1460.12,1887.01L1440.49,1887.01C1437.79,1887.01 1435.6,1884.87 1435.6,1882.24C1435.6,1879.6 1437.79,1877.46 1440.49,1877.46L1460.12,1877.46ZM1411.05,1877.46C1413.75,1877.46 1415.95,1879.6 1415.95,1882.24C1415.95,1884.87 1413.75,1887.01 1411.05,1887.01L1391.42,1887.01C1388.72,1887.01 1386.52,1884.87 1386.52,1882.24C1386.52,1879.6 1388.72,1877.46 1391.42,1877.46L1411.05,1877.46ZM1361.98,1877.46C1364.68,1877.46 1366.88,1879.6 1366.88,1882.24C1366.88,1884.87 1364.68,1887.01 1361.98,1887.01L1342.35,1887.01C1339.65,1887.01 1337.45,1884.87 1337.45,1882.24C1337.45,1879.6 1339.65,1877.46 1342.35,1877.46L1361.98,1877.46ZM1312.91,1877.46C1315.62,1877.46 1317.81,1879.6 1317.81,1882.24C1317.81,1884.87 1315.62,1887.01 1312.91,1887.01L1293.29,1887.01C1290.58,1887.01 1288.39,1884.87 1288.39,1882.24C1288.39,1879.6 1290.58,1877.46 1293.29,1877.46L1312.91,1877.46ZM1263.85,1877.46C1266.55,1877.46 1268.74,1879.6 1268.74,1882.24C1268.74,1884.87 1266.55,1887.01 1263.85,1887.01L1244.22,1887.01C1241.51,1887.01 1239.32,1884.87 1239.32,1882.24C1239.32,1879.6 1241.51,1877.46 1244.22,1877.46L1263.85,1877.46ZM1214.78,1877.46C1217.48,1877.46 1219.67,1879.6 1219.67,1882.24C1219.67,1884.87 1217.48,1887.01 1214.78,1887.01L1195.15,1887.01C1192.44,1887.01 1190.25,1884.87 1190.25,1882.24C1190.25,1879.6 1192.44,1877.46 1195.15,1877.46L1214.78,1877.46ZM1165.7,1877.46C1168.41,1877.46 1170.6,1879.6 1170.6,1882.24C1170.6,1884.87 1168.41,1887.01 1165.7,1887.01L1146.08,1887.01C1143.37,1887.01 1141.18,1884.87 1141.18,1882.24C1141.18,1879.6 1143.37,1877.46 1146.08,1877.46L1165.7,1877.46ZM1116.64,1877.46C1119.34,1877.46 1121.54,1879.6 1121.54,1882.24C1121.54,1884.87 1119.34,1887.01 1116.64,1887.01L1097.01,1887.01C1094.31,1887.01 1092.11,1884.87 1092.11,1882.24C1092.11,1879.6 1094.31,1877.46 1097.01,1877.46L1116.64,1877.46ZM1067.57,1877.46C1070.27,1877.46 1072.46,1879.6 1072.46,1882.24C1072.46,1884.87 1070.27,1887.01 1067.57,1887.01L1047.94,1887.01C1045.24,1887.01 1043.04,1884.87 1043.04,1882.24C1043.04,1879.6 1045.24,1877.46 1047.94,1877.46L1067.57,1877.46ZM1018.5,1877.46C1021.2,1877.46 1023.39,1879.6 1023.39,1882.24C1023.39,1884.87 1021.2,1887.01 1018.5,1887.01L998.868,1887.01C996.164,1887.01 993.97,1884.87 993.97,1882.24C993.97,1879.6 996.164,1877.46 998.868,1877.46L1018.5,1877.46ZM969.426,1877.46C972.129,1877.46 974.324,1879.6 974.324,1882.24C974.324,1884.87 972.129,1887.01 969.426,1887.01L949.798,1887.01C947.095,1887.01 944.9,1884.87 944.9,1882.24C944.9,1879.6 947.095,1877.46 949.798,1877.46L969.426,1877.46ZM920.357,1877.46C923.06,1877.46 925.255,1879.6 925.255,1882.24C925.255,1884.87 923.06,1887.01 920.357,1887.01L910.543,1887.01C907.838,1887.01 905.645,1884.88 905.645,1882.24L905.645,1872.4C905.645,1869.76 907.839,1867.62 910.543,1867.62C913.246,1867.62 915.441,1869.76 915.441,1872.4L915.441,1877.46L920.357,1877.46ZM915.441,1842.88C915.441,1845.52 913.246,1847.66 910.543,1847.66C907.839,1847.66 905.645,1845.52 905.645,1842.88L905.645,1823.21C905.645,1820.57 907.839,1818.43 910.543,1818.43C913.246,1818.43 915.441,1820.57 915.441,1823.21L915.441,1842.88ZM915.441,1793.69C915.441,1796.33 913.246,1798.47 910.543,1798.47C907.839,1798.47 905.645,1796.33 905.645,1793.69L905.645,1774.02C905.645,1771.38 907.839,1769.24 910.543,1769.24C913.246,1769.24 915.441,1771.38 915.441,1774.02L915.441,1793.69ZM915.441,1744.5C915.441,1747.14 913.246,1749.28 910.543,1749.28C907.839,1749.28 905.645,1747.14 905.645,1744.5L905.645,1724.83C905.645,1722.19 907.839,1720.05 910.543,1720.05C913.246,1720.05 915.441,1722.19 915.441,1724.83L915.441,1744.5ZM915.441,1695.31C915.441,1697.95 913.246,1700.09 910.543,1700.09C907.839,1700.09 905.645,1697.95 905.645,1695.31L905.645,1675.64C905.645,1673 907.839,1670.86 910.543,1670.86C913.246,1670.86 915.441,1673 915.441,1675.64L915.441,1695.31ZM915.441,1646.12C915.441,1648.76 913.246,1650.9 910.543,1650.9C907.839,1650.9 905.645,1648.76 905.645,1646.12L905.645,1626.44C905.645,1623.81 907.839,1621.67 910.543,1621.67C913.246,1621.67 915.441,1623.81 915.441,1626.44L915.441,1646.12ZM915.441,1596.93C915.441,1599.57 913.246,1601.71 910.543,1601.71C907.839,1601.71 905.645,1599.57 905.645,1596.93L905.645,1577.26C905.645,1574.62 907.839,1572.48 910.543,1572.48C913.246,1572.48 915.441,1574.62 915.441,1577.26L915.441,1596.93ZM915.441,1547.74C915.441,1550.38 913.246,1552.52 910.543,1552.52C907.839,1552.52 905.645,1550.38 905.645,1547.74L905.645,1528.07C905.645,1525.43 907.839,1523.29 910.543,1523.29C913.246,1523.29 915.441,1525.43 915.441,1528.07L915.441,1547.74ZM915.441,1498.55C915.441,1501.19 913.246,1503.33 910.543,1503.33C907.839,1503.33 905.645,1501.19 905.645,1498.55L905.645,1478.87C905.645,1476.24 907.839,1474.1 910.543,1474.1C913.246,1474.1 915.441,1476.24 915.441,1478.87L915.441,1498.55ZM915.441,1449.36C915.441,1452 913.246,1454.14 910.543,1454.14C907.839,1454.14 905.645,1452 905.645,1449.36L905.645,1429.68C905.645,1427.05 907.839,1424.91 910.543,1424.91C913.246,1424.91 915.441,1427.05 915.441,1429.68L915.441,1449.36ZM915.441,1400.17C915.441,1402.81 913.246,1404.95 910.543,1404.95C907.839,1404.95 905.645,1402.81 905.645,1400.17L905.645,1380.49C905.645,1377.86 907.839,1375.72 910.543,1375.72C913.246,1375.72 915.441,1377.86 915.441,1380.49L915.441,1400.17ZM915.441,1350.98C915.441,1353.62 913.246,1355.76 910.543,1355.76C907.839,1355.76 905.645,1353.62 905.645,1350.98L905.645,1331.3C905.645,1328.66 907.839,1326.52 910.543,1326.52C913.246,1326.52 915.441,1328.66 915.441,1331.3L915.441,1350.98ZM915.441,1301.79C915.441,1304.42 913.246,1306.57 910.543,1306.57C907.839,1306.57 905.645,1304.42 905.645,1301.79L905.645,1282.11C905.645,1279.48 907.839,1277.33 910.543,1277.33C913.246,1277.33 915.441,1279.48 915.441,1282.11L915.441,1301.79ZM915.441,1252.6C915.441,1255.23 913.246,1257.37 910.543,1257.37C907.839,1257.37 905.645,1255.23 905.645,1252.6L905.645,1232.92C905.645,1230.28 907.839,1228.14 910.543,1228.14C913.246,1228.14 915.441,1230.28 915.441,1232.92L915.441,1252.6ZM915.441,1203.41C915.441,1206.05 913.246,1208.19 910.543,1208.19C907.839,1208.19 905.645,1206.05 905.645,1203.41L905.645,1183.73C905.645,1181.1 907.839,1178.95 910.543,1178.95C913.246,1178.95 915.441,1181.1 915.441,1183.73L915.441,1203.41ZM915.441,1154.22C915.441,1156.86 913.246,1159 910.543,1159C907.839,1159 905.645,1156.86 905.645,1154.22L905.645,1134.54C905.645,1131.9 907.839,1129.77 910.543,1129.77C913.246,1129.77 915.441,1131.9 915.441,1134.54L915.441,1154.22ZM915.441,1105.03C915.441,1107.67 913.246,1109.81 910.543,1109.81C907.839,1109.81 905.645,1107.67 905.645,1105.03L905.645,1085.35C905.645,1082.72 907.839,1080.58 910.543,1080.58C913.246,1080.58 915.441,1082.72 915.441,1085.35L915.441,1105.03ZM915.441,1055.84C915.441,1058.47 913.246,1060.62 910.543,1060.62C907.839,1060.62 905.645,1058.47 905.645,1055.84L905.645,1036.16C905.645,1033.53 907.839,1031.38 910.543,1031.38C913.246,1031.38 915.441,1033.53 915.441,1036.16L915.441,1055.84ZM915.441,1006.65C915.441,1009.28 913.246,1011.43 910.543,1011.43C907.839,1011.43 905.645,1009.28 905.645,1006.65L905.645,986.972C905.645,984.336 907.839,982.195 910.543,982.195C913.246,982.195 915.441,984.336 915.441,986.972L915.441,1006.65ZM915.441,957.456C915.441,960.093 913.246,962.234 910.543,962.234C907.839,962.234 905.645,960.093 905.645,957.456L905.645,937.78C905.645,935.143 907.839,933.002 910.543,933.002C913.246,933.002 915.441,935.143 915.441,937.78L915.441,957.456ZM915.441,908.265C915.441,910.902 913.246,913.042 910.543,913.042C907.839,913.042 905.645,910.902 905.645,908.265L905.645,888.589C905.645,885.953 907.839,883.812 910.543,883.812C913.246,883.812 915.441,885.953 915.441,888.589L915.441,908.265ZM915.441,859.076C915.441,861.713 913.246,863.854 910.543,863.854C907.839,863.854 905.645,861.713 905.645,859.076L905.645,839.4C905.645,836.763 907.839,834.623 910.543,834.623C913.246,834.623 915.441,836.763 915.441,839.4L915.441,859.076ZM915.441,809.886C915.441,812.523 913.246,814.663 910.543,814.663C907.839,814.663 905.645,812.523 905.645,809.886L905.645,790.209C905.645,787.573 907.839,785.432 910.543,785.432C913.246,785.432 915.441,787.573 915.441,790.209L915.441,809.886ZM915.441,760.692C915.441,763.329 913.246,765.469 910.543,765.469C907.839,765.469 905.645,763.329 905.645,760.692L905.645,741.015C905.645,738.379 907.839,736.238 910.543,736.238C913.246,736.238 915.441,738.379 915.441,741.015L915.441,760.692ZM915.441,711.504C915.441,714.14 913.246,716.281 910.543,716.281C907.839,716.281 905.645,714.14 905.645,711.504L905.645,691.828C905.645,689.191 907.839,687.05 910.543,687.05C913.246,687.05 915.441,689.191 915.441,691.828L915.441,711.504ZM915.441,662.313C915.441,664.949 913.246,667.09 910.543,667.09C907.839,667.09 905.645,664.949 905.645,662.313L905.645,642.636C905.645,639.999 907.839,637.858 910.543,637.858C913.246,637.858 915.441,639.999 915.441,642.636L915.441,662.313ZM915.441,613.121C915.441,615.758 913.246,617.899 910.543,617.899C907.839,617.899 905.645,615.758 905.645,613.121L905.645,593.446C905.645,590.809 907.839,588.668 910.543,588.668C913.246,588.668 915.441,590.809 915.441,593.446L915.441,613.121ZM915.441,563.93C915.441,566.567 913.246,568.708 910.543,568.708C907.839,568.708 905.645,566.567 905.645,563.93L905.645,544.254C905.645,541.618 907.839,539.477 910.543,539.477C913.246,539.477 915.441,541.618 915.441,544.254L915.441,563.93ZM915.441,514.74C915.441,517.377 913.246,519.517 910.543,519.517C907.839,519.517 905.645,517.377 905.645,514.74L905.645,495.064C905.645,492.427 907.839,490.286 910.543,490.286C913.246,490.286 915.441,492.427 915.441,495.064L915.441,514.74ZM915.441,465.55C915.441,468.187 913.246,470.328 910.543,470.328C907.839,470.328 905.645,468.187 905.645,465.55L905.645,445.874C905.645,443.237 907.839,441.096 910.543,441.096C913.246,441.096 915.441,443.237 915.441,445.874L915.441,465.55ZM915.441,416.361C915.441,418.997 913.246,421.138 910.543,421.138C907.839,421.138 905.645,418.997 905.645,416.361L905.645,396.684C905.645,394.048 907.839,391.907 910.543,391.907C913.246,391.907 915.441,394.048 915.441,396.684L915.441,416.361ZM915.441,367.171C915.441,369.808 913.246,371.948 910.543,371.948C907.839,371.948 905.645,369.808 905.645,367.171L905.645,347.495C905.645,344.858 907.839,342.717 910.543,342.717C913.246,342.717 915.441,344.858 915.441,347.495L915.441,367.171ZM915.441,317.98C915.441,320.617 913.246,322.757 910.543,322.757C907.839,322.757 905.645,320.617 905.645,317.98L905.645,298.304C905.645,295.667 907.839,293.526 910.543,293.526C913.246,293.526 915.441,295.667 915.441,298.304L915.441,317.98ZM915.441,268.789C915.441,271.425 913.246,273.566 910.543,273.566C907.839,273.566 905.645,271.425 905.645,268.789L905.645,258.951C905.645,256.312 907.838,254.173 910.543,254.173L920.904,254.173C923.607,254.173 925.802,256.314 925.802,258.951C925.802,261.588 923.607,263.728 920.904,263.728L915.441,263.728L915.441,268.789ZM951.987,263.728C949.283,263.728 947.088,261.588 947.088,258.951C947.088,256.314 949.283,254.173 951.987,254.173L972.708,254.173C975.412,254.173 977.607,256.314 977.607,258.951C977.607,261.588 975.412,263.728 972.708,263.728L951.987,263.728ZM1003.79,263.728C1001.09,263.728 998.893,261.588 998.893,258.951C998.893,256.314 1001.09,254.173 1003.79,254.173L1024.51,254.173C1027.22,254.173 1029.41,256.314 1029.41,258.951C1029.41,261.588 1027.22,263.728 1024.51,263.728L1003.79,263.728ZM1055.6,263.728C1052.89,263.728 1050.7,261.588 1050.7,258.951C1050.7,256.314 1052.89,254.173 1055.6,254.173L1076.32,254.173C1079.02,254.173 1081.22,256.314 1081.22,258.951C1081.22,261.588 1079.02,263.728 1076.32,263.728L1055.6,263.728ZM1107.4,263.728C1104.7,263.728 1102.5,261.588 1102.5,258.951C1102.5,256.314 1104.7,254.173 1107.4,254.173L1128.12,254.173C1130.83,254.173 1133.02,256.314 1133.02,258.951C1133.02,261.588 1130.83,263.728 1128.12,263.728L1107.4,263.728ZM1159.2,263.728C1156.5,263.728 1154.31,261.588 1154.31,258.951C1154.31,256.314 1156.5,254.173 1159.2,254.173L1179.93,254.173C1182.63,254.173 1184.83,256.314 1184.83,258.951C1184.83,261.588 1182.63,263.728 1179.93,263.728L1159.2,263.728ZM1211.01,263.728C1208.31,263.728 1206.11,261.588 1206.11,258.951C1206.11,256.314 1208.31,254.173 1211.01,254.173L1231.73,254.173C1234.44,254.173 1236.63,256.314 1236.63,258.951C1236.63,261.588 1234.44,263.728 1231.73,263.728L1211.01,263.728ZM1262.81,263.728C1260.11,263.728 1257.92,261.588 1257.92,258.951C1257.92,256.314 1260.11,254.173 1262.81,254.173L1283.54,254.173C1286.24,254.173 1288.43,256.314 1288.43,258.951C1288.43,261.588 1286.24,263.728 1283.54,263.728L1262.81,263.728ZM1314.62,263.728C1311.92,263.728 1309.72,261.588 1309.72,258.951C1309.72,256.314 1311.92,254.173 1314.62,254.173L1335.34,254.173C1338.05,254.173 1340.24,256.314 1340.24,258.951C1340.24,261.588 1338.05,263.728 1335.34,263.728L1314.62,263.728ZM1366.42,263.728C1363.72,263.728 1361.53,261.588 1361.53,258.951C1361.53,256.314 1363.72,254.173 1366.42,254.173L1387.15,254.173C1389.85,254.173 1392.05,256.314 1392.05,258.951C1392.05,261.588 1389.85,263.728 1387.15,263.728L1366.42,263.728ZM1418.23,263.728C1415.53,263.728 1413.33,261.588 1413.33,258.951C1413.33,256.314 1415.53,254.173 1418.23,254.173L1423.69,254.173L1423.69,245.779C1423.69,243.142 1425.89,241.002 1428.59,241.002C1431.29,241.002 1433.49,243.142 1433.49,245.779L1433.49,258.951C1433.49,261.589 1431.3,263.728 1428.59,263.728L1418.23,263.728ZM1433.49,206.264C1433.49,208.901 1431.29,211.041 1428.59,211.041C1425.89,211.041 1423.69,208.901 1423.69,206.264L1423.69,179.921C1423.69,177.284 1425.89,175.143 1428.59,175.143C1431.29,175.143 1433.49,177.284 1433.49,179.921L1433.49,206.264ZM1433.49,140.405C1433.49,143.042 1431.29,145.183 1428.59,145.183C1425.89,145.183 1423.69,143.042 1423.69,140.405L1423.69,127.234C1423.69,124.595 1425.88,122.456 1428.59,122.456L1438.56,122.456C1441.26,122.456 1443.46,124.597 1443.46,127.234C1443.46,129.871 1441.26,132.011 1438.56,132.011L1433.49,132.011L1433.49,140.405ZM1468.46,132.011C1465.76,132.011 1463.56,129.871 1463.56,127.234C1463.56,124.597 1465.76,122.456 1468.46,122.456L1488.4,122.456C1491.1,122.456 1493.3,124.597 1493.3,127.234C1493.3,129.871 1491.1,132.011 1488.4,132.011L1468.46,132.011ZM1518.3,132.011C1515.6,132.011 1513.4,129.871 1513.4,127.234C1513.4,124.597 1515.6,122.456 1518.3,122.456L1538.24,122.456C1540.94,122.456 1543.13,124.597 1543.13,127.234C1543.13,129.871 1540.94,132.011 1538.24,132.011L1518.3,132.011ZM1568.14,132.011C1565.44,132.011 1563.24,129.871 1563.24,127.234C1563.24,124.597 1565.44,122.456 1568.14,122.456L1588.07,122.456C1590.78,122.456 1592.97,124.597 1592.97,127.234C1592.97,129.871 1590.78,132.011 1588.07,132.011L1568.14,132.011ZM1617.98,132.011C1615.28,132.011 1613.08,129.871 1613.08,127.234C1613.08,124.597 1615.28,122.456 1617.98,122.456L1637.91,122.456C1640.62,122.456 1642.81,124.597 1642.81,127.234C1642.81,129.871 1640.62,132.011 1637.91,132.011L1617.98,132.011ZM1667.82,132.011C1665.12,132.011 1662.92,129.871 1662.92,127.234C1662.92,124.597 1665.12,122.456 1667.82,122.456L1687.75,122.456C1690.46,122.456 1692.65,124.597 1692.65,127.234C1692.65,129.871 1690.46,132.011 1687.75,132.011L1667.82,132.011ZM1717.66,132.011C1714.95,132.011 1712.76,129.871 1712.76,127.234C1712.76,124.597 1714.95,122.456 1717.66,122.456L1737.59,122.456C1740.3,122.456 1742.49,124.597 1742.49,127.234C1742.49,129.871 1740.3,132.011 1737.59,132.011L1717.66,132.011ZM1767.5,132.011C1764.79,132.011 1762.6,129.871 1762.6,127.234C1762.6,124.597 1764.79,122.456 1767.5,122.456L1787.43,122.456C1790.13,122.456 1792.33,124.597 1792.33,127.234C1792.33,129.871 1790.13,132.011 1787.43,132.011L1767.5,132.011ZM1817.34,132.011C1814.63,132.011 1812.44,129.871 1812.44,127.234C1812.44,124.597 1814.63,122.456 1817.34,122.456L1837.27,122.456C1839.97,122.456 1842.17,124.597 1842.17,127.234C1842.17,129.871 1839.97,132.011 1837.27,132.011L1817.34,132.011ZM1867.17,132.011C1864.47,132.011 1862.27,129.871 1862.27,127.234C1862.27,124.597 1864.47,122.456 1867.17,122.456L1887.11,122.456C1889.81,122.456 1892.01,124.597 1892.01,127.234C1892.01,129.871 1889.81,132.011 1887.11,132.011L1867.17,132.011ZM1917.01,132.011C1914.31,132.011 1912.11,129.871 1912.11,127.234C1912.11,124.597 1914.31,122.456 1917.01,122.456L1936.95,122.456C1939.65,122.456 1941.85,124.597 1941.85,127.234C1941.85,129.871 1939.65,132.011 1936.95,132.011L1917.01,132.011ZM1966.85,132.011C1964.15,132.011 1961.95,129.871 1961.95,127.234C1961.95,124.597 1964.15,122.456 1966.85,122.456L1986.79,122.456C1989.49,122.456 1991.68,124.597 1991.68,127.234C1991.68,129.871 1989.49,132.011 1986.79,132.011L1966.85,132.011ZM2016.69,132.011C2013.99,132.011 2011.79,129.871 2011.79,127.234C2011.79,124.597 2013.99,122.456 2016.69,122.456L2036.62,122.456C2039.33,122.456 2041.52,124.597 2041.52,127.234C2041.52,129.871 2039.33,132.011 2036.62,132.011L2016.69,132.011ZM2066.53,132.011C2063.82,132.011 2061.63,129.871 2061.63,127.234C2061.63,124.597 2063.82,122.456 2066.53,122.456L2086.46,122.456C2089.17,122.456 2091.36,124.597 2091.36,127.234C2091.36,129.871 2089.17,132.011 2086.46,132.011L2066.53,132.011ZM2116.37,132.011C2113.66,132.011 2111.47,129.871 2111.47,127.234C2111.47,124.597 2113.66,122.456 2116.37,122.456L2136.3,122.456C2139.01,122.456 2141.2,124.597 2141.2,127.234C2141.2,129.871 2139.01,132.011 2136.3,132.011L2116.37,132.011ZM2166.21,132.011C2163.5,132.011 2161.31,129.871 2161.31,127.234C2161.31,124.597 2163.5,122.456 2166.21,122.456L2176.17,122.456C2178.88,122.456 2181.07,124.595 2181.07,127.234L2181.07,140.405C2181.07,143.042 2178.88,145.183 2176.17,145.183C2173.47,145.183 2171.28,143.042 2171.28,140.405L2171.28,132.011L2166.21,132.011ZM2171.28,179.921C2171.28,177.284 2173.47,175.143 2176.17,175.143C2178.88,175.143 2181.07,177.284 2181.07,179.921L2181.07,206.264C2181.07,208.901 2178.88,211.042 2176.17,211.042C2173.47,211.042 2171.28,208.901 2171.28,206.264L2171.28,179.921Z" style="fill:rgb(1,191,131);"/>
        </g>
        <g transform="matrix(1,0,0,0.973374,-5.94071,10.0982)">
            <rect x="1093.07" y="698.011" width="1462.4" height="1080.99" style="fill:none;stroke:rgb(247,46,92);stroke-width:2.7px;"/>
        </g>
    </g>
</svg>
